<?xml version="1.0" encoding="UTF-8" standalone="no"?>
<!DOCTYPE svg PUBLIC "-//W3C//DTD SVG 1.1//EN" "http://www.w3.org/Graphics/SVG/1.1/DTD/svg11.dtd">
<!-- Created with Vectornator (http://vectornator.io/) -->
<svg height="1800.0pt" stroke-miterlimit="10" style="fill-rule:nonzero;clip-rule:evenodd;stroke-linecap:round;stroke-linejoin:round;" version="1.1" viewBox="0 0 1800 1800" width="1800.0pt" xml:space="preserve" xmlns="http://www.w3.org/2000/svg" xmlns:xlink="http://www.w3.org/1999/xlink">
<defs/>
<g id="center-block"/>
<g id="segment-ziwo"/>
<g id="segment-shehui"/>
<g id="segment-ziran"/>
<g id="segment-nengliang"/>
<g id="segment-gongpin"/>
<g id="segment-wowo">
<g opacity="1">
<path d="M904.321 678.26L1118.79 803.049L1118.79 1052.63L904.321 1177.42L689.847 1052.63L689.847 803.049L904.321 678.26Z" fill="#ffffff" fill-rule="nonzero" opacity="1" stroke="#cbd5e1" stroke-linecap="butt" stroke-linejoin="miter" stroke-width="3.63515"/>
<g opacity="1">
<path d="M772.951 926.038C776.488 926.038 779.141 924.889 780.821 922.678C782.677 920.025 783.915 912.687 784.623 900.573L778.61 898.54C778.168 908.885 777.372 915.074 776.311 917.196C775.427 918.876 773.924 919.76 771.802 919.76L755.179 919.76C751.996 919.76 750.404 918.434 750.404 915.781L750.404 866.355L744.038 866.355L744.038 917.108C744.038 923.032 747.044 926.038 753.234 926.038L772.951 926.038ZM730.952 875.816C728.83 889.255 725.558 901.634 720.961 912.864L726.443 916.312C731.04 905.348 734.577 892.262 737.053 877.054L730.952 875.816ZM787.894 873.075L781.705 875.108C787.187 885.896 792.227 898.363 796.825 912.421L802.66 909.769C798.416 896.771 793.553 884.569 787.894 873.075ZM756.063 848.229L750.758 851.5C758.716 859.812 764.905 867.504 769.503 874.401L774.808 870.776C770.476 864.321 764.198 856.806 756.063 848.229Z" fill="#1b2a38" fill-rule="nonzero" opacity="1" stroke="none"/>
<path d="M835.11 865.294L835.11 871.395L852.706 871.395C847.577 888.018 840.415 901.192 831.131 911.095L834.845 917.108C843.864 906.232 851.291 891.466 856.95 872.721L856.95 929.044L863.228 929.044L863.228 872.721C869.417 890.582 877.198 904.817 886.57 915.428L890.726 909.769C880.558 899.601 872.777 886.78 867.383 871.395L886.128 871.395L886.128 865.294L863.228 865.294L863.228 847.964L856.95 847.964L856.95 865.294L835.11 865.294ZM817.338 849.201L813.005 853.357C819.548 858.132 824.677 862.73 828.39 866.974L832.811 862.553C828.567 858.132 823.439 853.622 817.338 849.201ZM813.978 871.041L809.557 875.197C815.835 879.618 820.786 883.773 824.323 887.664L828.744 883.243C824.677 879.176 819.814 875.108 813.978 871.041ZM824.5 895.533C821.051 905.702 816.984 915.605 812.21 925.331L818.31 928.072C822.555 918.611 826.445 908.531 829.982 897.744L824.5 895.533Z" fill="#1b2a38" fill-rule="nonzero" opacity="1" stroke="none"/>
<path d="M953.327 886.338L947.845 889.786C957.66 903.933 965.441 916.754 971.099 928.249L976.758 924.358C971.365 913.571 963.584 900.838 953.327 886.338ZM922.911 886.868C917.606 902.076 909.736 914.19 899.126 923.12L904.52 927.718C914.688 918.876 922.911 906.144 929.1 889.344L922.911 886.868ZM899.214 871.572L899.214 877.761L977.731 877.761L977.731 871.572L899.214 871.572ZM930.25 848.582L925.829 852.738C933.344 858.22 939.18 863.349 943.424 868.212L948.11 863.525C943.247 858.574 937.323 853.534 930.25 848.582Z" fill="#1b2a38" fill-rule="nonzero" opacity="1" stroke="none"/>
<path d="M1063.14 853.888L1029.37 853.888L1029.37 926.303L1035.47 926.303L1035.47 918.434L1056.95 918.434L1056.95 925.419L1063.14 925.419L1063.14 853.888ZM1035.47 912.421L1035.47 859.812L1056.95 859.812L1056.95 912.421L1035.47 912.421ZM988.96 872.191L988.96 878.115L1004.43 878.115L1004.43 878.734C1000.81 888.46 994.884 897.213 986.661 904.994L989.314 911.891C995.592 905.083 1000.63 897.479 1004.43 889.079L1004.43 928.337L1010.62 928.337L1010.62 888.46C1013.89 892.173 1017.78 897.213 1022.38 903.491L1026.1 898.009C1020.88 892.173 1015.75 887.045 1010.62 882.536L1010.62 878.115L1025.74 878.115L1025.74 872.191L1010.62 872.191L1010.62 858.22C1015.57 857.159 1020.26 855.744 1024.86 854.065L1021.85 848.759C1013.01 852.119 1002.05 854.33 988.872 855.391L990.905 861.05C995.503 860.696 1000.01 860.165 1004.43 859.458L1004.43 872.191L988.96 872.191Z" fill="#1b2a38" fill-rule="nonzero" opacity="1" stroke="none"/>
</g>
<path d="M693.329 942.828L1115.31 942.828" fill="#000000" fill-rule="nonzero" opacity="0.6" stroke="#1b2a38" stroke-linecap="butt" stroke-linejoin="miter" stroke-width="2.76311"/>
<g opacity="1">
<path d="M751.052 958.442L749.4 960.022C751.196 961.28 752.633 962.465 753.675 963.614L755.327 961.926C754.177 960.777 752.741 959.591 751.052 958.442ZM751.16 952.946C747.353 956.538 742.431 959.52 736.433 961.818L737.905 963.974C743.473 961.747 748.251 958.801 752.274 955.209C755.902 958.729 760.715 961.603 766.714 963.758L768.15 961.639C761.649 959.34 756.728 956.43 753.387 952.946L751.16 952.946ZM756.369 985.239C758.021 985.239 759.242 984.951 760.032 984.412C760.895 983.766 761.505 982.006 761.793 979.096L759.422 978.342C759.206 980.533 758.811 981.862 758.201 982.329C757.734 982.688 756.979 982.904 755.902 982.904L749.077 982.904C748.143 982.904 747.676 982.401 747.676 981.431L747.676 975.289L745.054 975.289L745.054 981.97C745.054 984.125 746.131 985.239 748.322 985.239L756.369 985.239ZM741.174 973.205C740.204 976.654 738.66 979.851 736.505 982.724L738.768 984.125C740.887 981.18 742.539 977.731 743.689 973.708L741.174 973.205ZM753.531 974.103L751.196 974.822C752.202 976.33 753.1 978.09 753.926 980.03L756.297 978.988C755.506 977.264 754.608 975.612 753.531 974.103ZM762.116 972.631L760.14 973.852C762.583 977.156 764.523 980.21 765.923 982.94L768.15 981.431C766.75 978.917 764.738 976.007 762.116 972.631ZM742.611 964.117L742.611 966.38L758.847 966.38C756.62 968.895 752.92 970.655 747.676 971.661L748.61 973.924C755.291 972.199 759.673 969.649 761.793 966.201L761.793 964.117L742.611 964.117Z" fill="#1b2a38" fill-rule="nonzero" opacity="1" stroke="none"/>
<path d="M802.921 955.353L789.2 955.353L789.2 984.772L791.678 984.772L791.678 981.575L800.407 981.575L800.407 984.412L802.921 984.412L802.921 955.353ZM791.678 979.132L791.678 957.759L800.407 957.759L800.407 979.132L791.678 979.132ZM772.784 962.788L772.784 965.195L779.07 965.195L779.07 965.446C777.598 969.398 775.191 972.954 771.85 976.115L772.928 978.917C775.478 976.151 777.526 973.062 779.07 969.649L779.07 985.598L781.585 985.598L781.585 969.398C782.914 970.906 784.494 972.954 786.362 975.504L787.871 973.277C785.751 970.906 783.668 968.823 781.585 966.991L781.585 965.195L787.727 965.195L787.727 962.788L781.585 962.788L781.585 957.113C783.596 956.682 785.5 956.107 787.368 955.425L786.147 953.269C782.555 954.634 778.1 955.532 772.748 955.963L773.574 958.262C775.442 958.119 777.274 957.903 779.07 957.616L779.07 962.788L772.784 962.788Z" fill="#1b2a38" fill-rule="nonzero" opacity="1" stroke="none"/>
<path d="M819.05 969.649L819.05 972.164L827.276 972.164L827.276 982.078L817.577 982.078L817.577 984.628L840.099 984.628L840.099 982.078L829.898 982.078L829.898 972.164L838.483 972.164L838.483 969.649L829.898 969.649L829.898 962.968L827.276 962.968L827.276 969.649L819.05 969.649ZM813.267 971.23L813.267 985.957L815.817 985.957L815.817 968.284C817.757 965.842 819.445 963.183 820.846 960.346L840.063 960.346L840.063 957.795L821.995 957.795C822.642 956.251 823.181 954.634 823.683 952.982L820.989 952.659C820.487 954.419 819.84 956.143 819.122 957.795L808.669 957.795L808.669 960.346L817.9 960.346C815.386 965.123 811.902 969.362 807.412 973.062L809.028 975.181C810.537 973.924 811.938 972.595 813.267 971.23Z" fill="#1b2a38" fill-rule="nonzero" opacity="1" stroke="none"/>
<path d="M864.633 984.664C866.07 984.664 867.147 984.197 867.83 983.299C868.584 982.221 869.087 979.24 869.374 974.319L866.932 973.493C866.752 977.695 866.429 980.21 865.998 981.072C865.639 981.754 865.028 982.114 864.166 982.114L857.413 982.114C856.12 982.114 855.473 981.575 855.473 980.497L855.473 960.418L852.887 960.418L852.887 981.036C852.887 983.443 854.108 984.664 856.623 984.664L864.633 984.664ZM847.571 964.261C846.708 969.721 845.379 974.75 843.512 979.312L845.739 980.713C847.607 976.258 849.043 970.942 850.049 964.764L847.571 964.261ZM870.703 963.148L868.189 963.974C870.416 968.356 872.463 973.421 874.331 979.132L876.702 978.054C874.978 972.774 873.002 967.817 870.703 963.148ZM857.772 953.054L855.617 954.383C858.85 957.759 861.364 960.885 863.232 963.686L865.387 962.214C863.627 959.591 861.077 956.538 857.772 953.054Z" fill="#1b2a38" fill-rule="nonzero" opacity="1" stroke="none"/>
<path d="M898.341 969.383C898.341 970.506 897.975 971.435 897.245 972.172C896.514 972.909 895.587 973.277 894.465 973.277C893.342 973.277 892.415 972.909 891.685 972.172C890.954 971.435 890.588 970.506 890.588 969.383C890.588 968.261 890.954 967.337 891.685 966.612C892.415 965.887 893.342 965.525 894.465 965.525C895.587 965.525 896.514 965.887 897.245 966.612C897.975 967.337 898.341 968.261 898.341 969.383Z" fill="#1b2a38" fill-rule="nonzero" opacity="1" stroke="none"/>
<path d="M921.127 952.946L921.127 968.536C921.055 975.684 918.325 980.892 913.009 984.125L914.949 985.813C920.66 982.185 923.57 976.438 923.713 968.536L923.713 952.946L921.127 952.946ZM913.512 956.287L913.512 973.888L916.098 973.888L916.098 956.287L913.512 956.287ZM925.761 955.712L925.761 958.226L940.596 958.226L940.596 967.781L926.623 967.781L926.623 970.26L940.596 970.26L940.596 980.317L924.971 980.317L924.971 982.868L940.596 982.868L940.596 985.059L943.218 985.059L943.218 955.712L925.761 955.712Z" fill="#1b2a38" fill-rule="nonzero" opacity="1" stroke="none"/>
<path d="M979.139 955.353L965.417 955.353L965.417 984.772L967.896 984.772L967.896 981.575L976.624 981.575L976.624 984.412L979.139 984.412L979.139 955.353ZM967.896 979.132L967.896 957.759L976.624 957.759L976.624 979.132L967.896 979.132ZM949.001 962.788L949.001 965.195L955.287 965.195L955.287 965.446C953.815 969.398 951.408 972.954 948.067 976.115L949.145 978.917C951.695 976.151 953.743 973.062 955.287 969.649L955.287 985.598L957.802 985.598L957.802 969.398C959.131 970.906 960.711 972.954 962.579 975.504L964.088 973.277C961.969 970.906 959.885 968.823 957.802 966.991L957.802 965.195L963.944 965.195L963.944 962.788L957.802 962.788L957.802 957.113C959.813 956.682 961.717 956.107 963.585 955.425L962.364 953.269C958.772 954.634 954.318 955.532 948.965 955.963L949.792 958.262C951.659 958.119 953.491 957.903 955.287 957.616L955.287 962.788L949.001 962.788Z" fill="#1b2a38" fill-rule="nonzero" opacity="1" stroke="none"/>
<path d="M984.311 955.245L984.311 957.724L998.607 957.724C998.212 959.555 997.638 961.316 996.847 962.968L986.826 962.968L986.826 985.634L989.448 985.634L989.448 965.446L994.908 965.446L994.908 984.556L997.422 984.556L997.422 965.446L1003.17 965.446L1003.17 984.556L1005.68 984.556L1005.68 965.446L1011.72 965.446L1011.72 981.287C1011.72 982.473 1011.22 983.083 1010.21 983.083L1007.08 982.976L1007.8 985.598L1011.11 985.598C1013.23 985.598 1014.3 984.341 1014.3 981.862L1014.3 962.968L999.901 962.968C1000.65 961.316 1001.23 959.555 1001.66 957.724L1016.35 957.724L1016.35 955.245L984.311 955.245Z" fill="#1b2a38" fill-rule="nonzero" opacity="1" stroke="none"/>
<path d="M1032.05 954.958L1021.38 954.958L1021.38 982.58L1023.97 982.58L1023.97 979.743L1032.05 979.743L1032.05 954.958ZM1023.97 977.192L1023.97 968.392L1029.57 968.392L1029.57 977.192L1023.97 977.192ZM1023.97 965.913L1023.97 957.508L1029.57 957.508L1029.57 965.913L1023.97 965.913ZM1038.55 965.303L1048.07 965.303L1048.07 971.517L1038.55 971.517L1038.55 965.303ZM1048.07 962.896L1038.55 962.896L1038.55 956.574L1048.07 956.574L1048.07 962.896ZM1038.41 973.924L1048.07 973.924L1048.07 981.323C1048.07 982.509 1047.57 983.119 1046.56 983.119C1045.16 983.119 1043.65 983.047 1042 982.976L1042.68 985.526L1047.39 985.526C1049.58 985.526 1050.69 984.412 1050.69 982.257L1050.69 954.096L1035.96 954.096L1035.96 971.05C1035.89 976.33 1034.64 980.677 1032.12 984.125L1034.17 985.993C1036.54 982.832 1037.94 978.809 1038.41 973.924Z" fill="#1b2a38" fill-rule="nonzero" opacity="1" stroke="none"/>
</g>
<path d="M972.735 341.852C1117.38 362.178 1248.49 437.861 1338.43 552.953L1477.83 444.087C1359.67 292.838 1187.39 193.377 997.327 166.67L972.735 341.852Z" fill="#ffb36a" fill-rule="nonzero" opacity="0.72" stroke="#e76f2a" stroke-linecap="butt" stroke-linejoin="miter" stroke-width="2.76311"/>
<g opacity="1">
<path d="M1196.62 311.395L1174.83 300.555C1176.93 299.187 1178.91 297.477 1180.67 295.512L1176.8 292.877C1175.04 294.984 1172.94 296.779 1170.56 298.433L1158.38 292.376L1135.82 337.727L1139.98 339.793L1141.73 336.265L1171.66 351.152L1169.91 354.68L1174.06 356.746L1196.62 311.395ZM1143.69 332.339L1148.3 323.064L1178.23 337.95L1173.62 347.225L1143.69 332.339ZM1150.17 319.308L1154.5 310.602L1184.43 325.489L1180.1 334.195L1150.17 319.308ZM1156.36 306.847L1160.58 298.368L1190.51 313.255L1186.3 321.733L1156.36 306.847Z" fill="#1b2a38" fill-rule="nonzero" opacity="1" stroke="none"/>
<path d="M1225.01 354.019C1221.36 353.123 1217.48 352.003 1213.41 350.693L1219.57 341.048L1232.75 349.454C1230.58 353.8 1228.91 357.712 1227.71 361.245C1226.92 363.676 1226.24 366.035 1225.72 368.267C1219.45 369.469 1213.09 369.405 1206.61 367.985L1206.58 372.64C1212.69 373.82 1218.79 373.943 1224.83 372.974C1224.46 375.45 1224.38 377.814 1224.53 379.944C1224.95 384.731 1226.23 387.808 1228.42 389.209C1230.89 390.781 1235.19 388.172 1241.33 381.384L1239.08 377.463C1234.4 382.917 1231.57 385.337 1230.47 384.707C1229.45 384.058 1228.91 381.83 1228.83 378.164C1228.76 376.385 1229 374.353 1229.41 372.052C1235.08 370.615 1240.71 368.174 1246.38 364.709L1244.19 360.822C1239.73 363.557 1235.17 365.624 1230.62 367.092C1231 365.674 1231.41 364.202 1231.97 362.604C1233 359.568 1234.57 356.046 1236.66 351.949L1252.89 362.303L1255.25 358.605L1238.69 348.046C1241.04 343.662 1243.92 338.791 1247.32 333.345L1243.46 330.884C1240.11 336.135 1237.23 341.007 1234.78 345.552L1221.92 337.351L1227.05 329.313C1230.31 330.34 1233.51 331.245 1236.52 331.959L1237.55 327.496C1230.19 326.041 1222.45 323.289 1214.29 319.294L1212.74 323.504C1216.07 325.023 1219.32 326.42 1222.54 327.642L1217.96 334.822L1206.92 327.783L1204.56 331.48L1215.6 338.519L1208.87 349.075C1204.91 347.604 1200.8 345.889 1196.48 344.038L1194.52 348.291C1198.54 350.025 1202.47 351.55 1206.37 352.987L1199.88 363.167C1198.96 364.614 1197.73 364.886 1196.23 363.929C1194.46 362.801 1192.71 361.532 1190.94 360.176L1189.38 364.385L1195.33 368.178C1198.6 370.263 1201.25 369.768 1203.23 366.661L1210.92 354.604C1214.93 355.88 1218.76 356.966 1222.52 357.93L1225.01 354.019ZM1252.83 337.693L1248.69 338.517C1250.95 343.954 1252.4 348.65 1253.19 352.618L1257.75 351.609C1256.71 347.328 1255.05 342.725 1252.83 337.693Z" fill="#1b2a38" fill-rule="nonzero" opacity="1" stroke="none"/>
<path d="M1313.52 388.082L1294.55 372.934L1262.08 413.607L1265.5 416.343L1269.03 411.923L1281.1 421.559L1277.97 425.483L1281.44 428.258L1313.52 388.082ZM1271.73 408.546L1295.32 378.997L1307.39 388.633L1283.8 418.182L1271.73 408.546ZM1263.65 365.092L1260.99 368.419L1269.68 375.359L1269.41 375.706C1263.01 379.543 1255.75 381.803 1247.65 382.485L1246.04 387.549C1252.62 386.54 1258.86 384.53 1264.77 381.517L1247.16 403.567L1250.64 406.343L1268.52 383.945C1268.69 387.498 1268.62 392.073 1268.38 397.662L1272.93 396.248C1272.62 390.631 1272.03 385.45 1271.18 380.618L1273.16 378.134L1281.65 384.915L1284.31 381.588L1275.82 374.807L1282.08 366.96C1285.34 368.585 1288.61 369.892 1291.94 371.011L1292.63 366.683C1286.16 364.604 1279.01 360.929 1271.13 355.616L1269.74 359.707C1272.48 361.57 1275.25 363.295 1278.05 364.88L1272.34 372.031L1263.65 365.092Z" fill="#1b2a38" fill-rule="nonzero" opacity="1" stroke="none"/>
</g>
<g opacity="1">
<path d="M1180.01 131.685C1182.38 136.725 1184.15 141.337 1185.24 145.494L1188.11 144.079C1186.63 139.392 1184.54 134.408 1181.81 129.154C1182.57 127.972 1183.3 126.645 1184.02 125.226L1195.21 129.129L1187.59 150.966C1187.16 152.219 1186.3 152.666 1185.05 152.229L1179.11 149.984L1178.91 153.075L1185.06 155.218C1187.56 156.091 1189.32 155.211 1190.23 152.589L1199.02 127.386L1185.28 122.595C1186.12 120.693 1186.99 118.582 1187.8 116.273L1184.94 115.276C1184.15 117.546 1183.28 119.658 1182.39 121.585L1168.06 116.59L1157.76 146.138L1160.62 147.134L1169.97 120.326L1181.12 124.216C1180.22 125.92 1179.29 127.441 1178.33 128.817C1175.41 132.67 1171.25 135.261 1165.86 136.628L1166.93 139.592C1172.51 138.201 1176.85 135.587 1180.01 131.685Z" fill="#1b2a38" fill-rule="nonzero" opacity="1" stroke="none"/>
<path d="M1223.96 129.979L1219.96 139.806L1222.69 140.916L1226.69 131.088L1223.96 129.979ZM1208.33 143.307L1200.87 161.656L1203.55 162.75L1204.29 160.946L1222.29 168.274L1221.59 170.002L1224.27 171.096L1232.6 150.635L1217.33 144.416C1223.72 144.87 1229.4 144.543 1234.35 143.38C1235.25 145.133 1236.03 146.838 1236.62 148.466L1239.34 147.289C1237.7 143.4 1235.46 139.223 1232.57 134.78L1230.01 135.796C1231.13 137.55 1232.13 139.257 1233.06 140.932C1225.11 142.662 1214.82 142.099 1202.18 139.19L1202.32 142.154C1204.38 142.59 1206.37 142.956 1208.33 143.307ZM1205.29 158.489L1206.63 155.188L1224.63 162.516L1223.29 165.818L1205.29 158.489ZM1207.54 152.961L1208.79 149.89L1226.79 157.219L1225.54 160.29L1207.54 152.961ZM1209.69 147.663L1210.96 144.554L1228.96 151.883L1227.7 154.992L1209.69 147.663ZM1216.97 129.682C1213.69 131.479 1209.99 132.749 1205.89 133.494L1206.65 136.223C1210.91 135.449 1214.76 134.11 1218.22 132.207L1216.97 129.682Z" fill="#1b2a38" fill-rule="nonzero" opacity="1" stroke="none"/>
<path d="M1274.22 152.127L1271.72 152.971C1272.95 155.331 1273.8 157.423 1274.29 159.301L1267.27 156.017C1268.04 154.18 1268.9 152.247 1269.88 150.145L1267.1 148.845C1266.16 150.873 1265.3 152.805 1264.49 154.717L1248.99 147.463L1243.14 159.964C1240.17 166.03 1236.7 170.218 1232.68 172.548L1233.88 175.353C1238.56 172.599 1242.59 167.896 1245.88 161.246L1246.41 160.12L1252.9 163.158C1250.9 167.253 1249.52 169.903 1248.7 171.074C1247.98 172.02 1247.19 172.337 1246.35 171.988C1245.33 171.514 1244.11 170.897 1242.68 170.137L1242.37 172.963C1243.53 173.6 1244.59 174.185 1245.49 174.606C1247.4 175.409 1248.95 175.128 1250.19 173.742C1251.54 172.131 1253.76 168.18 1256.8 161.87L1247.6 157.567L1250.52 151.335L1263.39 157.36C1261.5 162.193 1260.18 166.381 1259.53 169.92C1259.19 171.728 1258.97 173.458 1258.85 175.093C1254.73 177.147 1250.38 178.132 1245.84 178.065L1246.28 181.02C1250.55 181.094 1254.7 180.244 1258.77 178.395C1258.79 179.823 1258.93 181.172 1259.19 182.39C1259.94 185.485 1261.1 187.402 1262.68 188.139C1264.37 188.93 1266.82 187.012 1270.06 182.44L1268.25 179.947C1265.88 183.55 1264.32 185.204 1263.63 184.925C1262.88 184.574 1262.29 183.199 1261.89 180.817C1261.7 179.673 1261.62 178.358 1261.66 176.911C1265.64 174.656 1269.56 171.365 1273.38 167.112L1271.43 164.92C1268.39 168.392 1265.24 171.218 1261.96 173.343C1262.08 172.394 1262.22 171.408 1262.44 170.364C1263.02 167.345 1264.26 163.438 1266.17 158.66L1277.74 164.069L1278.95 161.479L1274.37 159.336L1276.9 158.417C1276.28 156.431 1275.39 154.322 1274.22 152.127Z" fill="#1b2a38" fill-rule="nonzero" opacity="1" stroke="none"/>
<path d="M1299.12 168.423L1297.95 170.619L1300.88 172.176C1300.77 173.619 1300.55 175.19 1300.21 176.887L1294.76 173.988L1293.57 176.22L1313.44 186.785L1314.63 184.553L1309.06 181.595C1310.31 180.662 1311.45 179.578 1312.52 178.363L1315.52 179.958L1316.69 177.763L1308.93 173.638C1309.19 172.272 1309.35 170.997 1309.47 169.887L1306.6 168.926C1306.59 170.001 1306.54 171.149 1306.4 172.295L1299.12 168.423ZM1306.54 180.253L1302.59 178.152C1302.94 176.51 1303.24 174.979 1303.44 173.538L1310.07 177.059C1309.05 178.258 1307.88 179.322 1306.54 180.253ZM1294.63 179.603L1288.52 191.094L1291.82 192.845C1290.63 194.28 1289.33 195.23 1287.91 195.788C1286.15 196.356 1283.81 196.335 1280.97 195.67L1280.72 198.353C1284.21 199.126 1286.99 199.103 1289.12 198.266C1290.98 197.515 1292.7 196.13 1294.27 194.149L1297.49 195.861L1294.69 201.131C1293.62 203.144 1294.1 204.713 1296.18 205.822L1298.86 207.242C1299.99 207.845 1300.97 208.037 1301.73 207.833C1302.65 207.523 1303.95 206.053 1305.65 203.389L1303.84 201.582C1302.62 203.61 1301.72 204.774 1301.15 205.038C1300.72 205.231 1300.19 205.18 1299.6 204.869L1298.03 204.033C1297.11 203.546 1296.93 202.837 1297.41 201.922L1299.94 197.164L1303.67 199.149L1309.78 187.658L1294.63 179.603ZM1302.42 195.762L1292.03 190.236L1293.45 187.565L1303.84 193.09L1302.42 195.762ZM1294.48 185.625L1295.9 182.954L1306.3 188.479L1304.88 191.151L1294.48 185.625ZM1291.09 160.306C1287.69 164.318 1283.92 167.617 1279.78 170.202L1281.22 172.704C1283.51 171.296 1285.8 169.555 1288.09 167.536L1295.27 171.349L1296.61 168.824L1290.28 165.458C1291.27 164.482 1292.28 163.376 1293.33 162.197L1291.09 160.306ZM1283.93 171.566L1282.67 173.945L1284.57 174.957L1282.18 179.458L1277.6 177.026L1276.32 179.442L1280.89 181.874L1276.48 190.181C1276.18 190.73 1275.64 190.957 1274.9 190.846L1274.76 193.587C1277.75 194.143 1280.55 194.269 1283.22 194.002L1283.95 191.48C1282.19 191.714 1280.5 191.802 1278.94 191.726L1283.45 183.236L1288.14 185.726L1289.42 183.311L1284.74 180.82L1287.13 176.319L1290.97 178.362L1292.24 175.983L1283.93 171.566Z" fill="#1b2a38" fill-rule="nonzero" opacity="1" stroke="none"/>
<path d="M1333.15 205.832C1332.49 206.945 1331.58 207.651 1330.42 207.949C1329.26 208.248 1328.13 208.066 1327.01 207.403C1325.9 206.74 1325.2 205.828 1324.91 204.666C1324.62 203.504 1324.81 202.367 1325.47 201.254C1326.13 200.142 1327.04 199.442 1328.19 199.155C1329.35 198.868 1330.48 199.055 1331.59 199.718C1332.7 200.381 1333.41 201.288 1333.7 202.438C1334 203.588 1333.82 204.72 1333.15 205.832Z" fill="#1b2a38" fill-rule="nonzero" opacity="1" stroke="none"/>
<path d="M1357.71 242.4C1359.09 243.317 1360.43 243.556 1361.66 243.128C1363.07 242.574 1365.45 240.029 1368.87 235.482L1367.05 233.129C1364.2 237.054 1362.28 239.265 1361.32 239.818C1360.54 240.245 1359.72 240.201 1358.89 239.651L1352.4 235.341C1351.16 234.515 1350.88 233.585 1351.57 232.549L1364.38 213.247L1361.9 211.596L1348.74 231.416C1347.2 233.73 1347.59 235.683 1350.01 237.288L1357.71 242.4ZM1354.33 211.898C1350.02 216.596 1345.53 220.582 1340.82 223.775L1342.07 226.543C1346.71 223.454 1351.48 219.261 1356.39 213.963L1354.33 211.898ZM1377.28 225.592L1374.33 224.781C1373.68 230.415 1372.41 236.59 1370.56 243.273L1373.53 243.75C1375.24 237.574 1376.51 231.548 1377.28 225.592ZM1371.29 207.636L1368.37 207.538C1369.32 212.847 1369.75 217.456 1369.75 221.341L1372.76 221.301C1372.75 217.657 1372.24 213.094 1371.29 207.636Z" fill="#1b2a38" fill-rule="nonzero" opacity="1" stroke="none"/>
<path d="M1407.35 232.646L1398.21 245.006L1384.91 235.169L1383.16 237.534L1392.22 244.24L1392.05 244.474C1389.45 247.856 1386.64 250.112 1383.73 251.258C1380.74 252.239 1377 251.997 1372.39 250.551L1372.18 253.694C1376.91 255.181 1380.97 255.404 1384.36 254.304C1387.94 253.03 1391.3 250.364 1394.48 246.273L1394.66 246.04L1400.29 250.207L1391.66 261.867C1390.05 264.033 1390.24 265.872 1392.31 267.401L1397.5 271.247C1398.84 272.233 1400.05 272.615 1401.14 272.393C1402.35 272.153 1404.39 270.366 1407.24 267.007L1405.48 264.573C1403.23 267.339 1401.71 268.841 1400.86 269.145C1400.18 269.365 1399.48 269.203 1398.75 268.661L1394.72 265.678C1393.78 264.987 1393.69 264.142 1394.43 263.143L1402.69 251.982L1412.25 259.058L1414 256.693L1400.67 246.831L1409.82 234.471L1407.35 232.646ZM1417.23 242.431C1414.21 244.216 1410.77 245.796 1406.96 247.106L1408.32 249.808C1412.05 248.598 1415.52 247.043 1418.67 245.149L1417.23 242.431ZM1397.45 228.258L1394.4 227.647C1394.35 231.121 1394.05 234.812 1393.39 238.762L1396.44 239.314C1397.02 235.464 1397.36 231.798 1397.45 228.258Z" fill="#1b2a38" fill-rule="nonzero" opacity="1" stroke="none"/>
<path d="M1449.99 272.517L1437.73 262.436C1439.26 261.874 1440.77 261.078 1442.18 260.087L1440.11 257.846C1438.68 258.927 1437.08 259.76 1435.33 260.462L1428.47 254.829L1407.5 280.345L1409.83 282.266L1411.47 280.282L1428.31 294.127L1426.67 296.112L1429.01 298.033L1449.99 272.517ZM1413.28 278.072L1417.57 272.854L1434.41 286.699L1430.12 291.918L1413.28 278.072ZM1419.31 270.741L1423.34 265.843L1440.18 279.688L1436.15 284.586L1419.31 270.741ZM1425.07 263.73L1429 258.959L1445.84 272.805L1441.91 277.575L1425.07 263.73Z" fill="#1b2a38" fill-rule="nonzero" opacity="1" stroke="none"/>
<path d="M1469.56 286.367L1460.46 278.075L1438.99 301.631L1441.19 303.641L1443.4 301.221L1450.29 307.503L1469.56 286.367ZM1445.38 299.046L1452.22 291.541L1457 295.897L1450.16 303.402L1445.38 299.046ZM1454.15 289.428L1460.68 282.26L1465.46 286.616L1458.93 293.783L1454.15 289.428ZM1467.06 300.243L1475.18 307.642L1470.35 312.941L1462.23 305.542L1467.06 300.243ZM1477.05 305.589L1468.93 298.19L1473.84 292.799L1481.96 300.198L1477.05 305.589ZM1460.24 307.483L1468.48 314.993L1462.72 321.303C1461.8 322.314 1460.9 322.444 1460.04 321.662C1458.85 320.573 1457.62 319.339 1456.26 317.994L1454.86 320.699L1458.88 324.357C1460.74 326.06 1462.56 325.976 1464.23 324.138L1486.12 300.123L1473.56 288.675L1460.39 303.134C1456.22 307.581 1451.77 310.31 1446.95 311.296L1447.24 314.48C1451.72 313.627 1456.04 311.286 1460.24 307.483Z" fill="#1b2a38" fill-rule="nonzero" opacity="1" stroke="none"/>
</g>
<path d="M894.263 115.276C1174.62 115.278 1433.67 264.845 1573.85 507.638" fill="none" opacity="0.98" stroke="#e76f2a" stroke-linecap="round" stroke-linejoin="miter" stroke-width="16.5787"/>
<path d="M1573.85 507.638L1523.3 469.821L1566.37 444.953L1573.85 507.638Z" fill="#e76f2a" fill-rule="nonzero" opacity="1" stroke="none"/>
<path d="M1416.91 688.898C1471.6 824.318 1471.6 975.682 1416.91 1111.1L1580.9 1177.42C1652.8 999.461 1652.8 800.539 1580.9 622.584L1416.91 688.898Z" fill="#9ee7f0" fill-rule="nonzero" opacity="0.72" stroke="#06b6d4" stroke-linecap="butt" stroke-linejoin="miter" stroke-width="2.76311"/>
<g opacity="1">
<path d="M1559.12 841.94L1540.34 844.37L1538.52 830.316L1534.05 830.895L1535.87 844.949L1508.26 848.522L1506.16 832.261L1501.68 832.84L1506.44 869.647L1510.92 869.068L1508.86 853.186L1536.47 849.613L1538.33 863.983L1542.8 863.404L1540.94 849.034L1559.73 846.604L1559.12 841.94ZM1524.46 818.742L1498.25 822.134L1498.82 826.609L1525.48 823.159C1524.05 825.909 1522.17 828.715 1519.85 831.642L1524.09 833.657C1526.52 830.139 1528.54 826.48 1530.15 822.556C1535.14 825.498 1540.02 827.558 1544.77 828.609L1548.62 828.112L1547.59 820.171L1548.27 821.429C1550.81 820.267 1553.5 818.766 1556.47 816.971L1554.71 812.777C1552.36 814.427 1549.86 815.904 1547.21 817.271L1545.96 807.565L1541.61 808.128L1543.67 824.074C1536.43 822.064 1528.61 817.116 1520.3 809.348L1515.69 811.354C1518.67 814.108 1521.62 816.547 1524.46 818.742Z" fill="#1b2a38" fill-rule="nonzero" opacity="1" stroke="none"/>
<path d="M1563.51 900.211C1554.76 892.907 1547.43 883.728 1541.46 872.675L1537.13 875.188C1543.49 886.36 1550.94 895.282 1559.48 901.955C1550.75 909.652 1543.71 918.774 1538.42 929.446L1542.86 931.825C1547.83 921.224 1554.74 911.787 1563.58 903.515L1563.51 900.211ZM1543.69 886.8L1539.37 886.897L1540.07 918.093L1544.39 917.996L1543.69 886.8ZM1530.69 877.113L1526.25 877.213L1526.61 893.16C1521.33 890.546 1516.36 887.225 1511.57 883.265C1511.05 882.768 1510.65 882.014 1510.31 880.878L1506.34 882.238C1507.57 897.403 1509.12 909.891 1510.93 919.767C1509.18 921.078 1507.49 922.26 1505.8 923.379L1508.55 927.131C1513.25 923.91 1518.74 919.337 1525.09 913.409L1522.72 909.903C1519.86 912.573 1516.99 914.99 1514.24 917.213C1512.76 907.839 1511.65 898.011 1510.78 887.669C1515.39 891.887 1520.68 895.455 1526.72 898.37L1527.4 928.295L1531.84 928.195L1530.69 877.113Z" fill="#1b2a38" fill-rule="nonzero" opacity="1" stroke="none"/>
<path d="M1554.98 995.723L1557 971.531L1505.14 967.186L1504.77 971.555L1510.41 972.028L1509.12 987.417L1504.11 986.997L1503.74 991.431L1554.98 995.723ZM1514.71 972.388L1552.39 975.545L1551.1 990.934L1513.42 987.777L1514.71 972.388ZM1546.32 941.491L1542.08 941.136L1541.15 952.218L1540.7 952.181C1533.96 949.001 1528.04 944.233 1522.96 937.876L1517.86 939.362C1522.36 944.267 1527.51 948.333 1533.29 951.56L1505.18 949.205L1504.8 953.638L1533.37 956.031C1530.51 958.151 1526.67 960.635 1521.89 963.551L1525.6 966.54C1530.09 963.154 1534.07 959.789 1537.61 956.386L1540.78 956.651L1539.87 967.481L1544.11 967.836L1545.02 957.007L1555.03 957.845C1555.49 961.455 1556.22 964.897 1557.15 968.291L1561.13 966.456C1559.25 959.921 1558.33 951.936 1558.36 942.436L1554.18 943.553C1554.16 946.867 1554.27 950.129 1554.51 953.338L1545.39 952.574L1546.32 941.491Z" fill="#1b2a38" fill-rule="nonzero" opacity="1" stroke="none"/>
</g>
<g opacity="1">
<path d="M1726.52 764.257L1689.26 771.135L1689.82 774.151L1711.5 770.148C1710.07 772.858 1707.94 776.159 1705.21 780.118L1708.23 781.415C1710.72 777.331 1712.9 773.388 1714.77 769.546L1727.07 767.273L1726.52 764.257ZM1707.3 750.778L1704.73 749.651C1704.07 752.007 1703 754.438 1701.6 756.888C1696.67 754.848 1692.26 751.531 1688.39 746.978L1686.27 749.434C1694.54 758.865 1704.98 763.092 1717.58 762.198L1720.15 761.724L1718.32 751.82C1720.1 752.082 1721.94 752.247 1723.85 752.316L1723.8 749.291C1716.16 749.016 1709.7 746.92 1704.52 743.071L1702.41 745.528C1706.03 748.231 1710.3 750.181 1715.31 751.279L1716.8 759.349C1712.33 759.543 1708.1 759.017 1704.17 757.805C1705.45 755.629 1706.49 753.287 1707.3 750.778Z" fill="#1b2a38" fill-rule="nonzero" opacity="1" stroke="none"/>
<path d="M1729.59 785.789L1727.39 784.031C1725.44 787.258 1723.57 789.847 1721.77 791.757L1724.15 793.616C1726.03 791.444 1727.82 788.824 1729.59 785.789ZM1696.47 814.461L1697.71 823.871L1700.77 824.178C1700.54 823.12 1700.29 821.564 1699.99 819.597C1699.68 817.59 1699.38 815.623 1699.13 813.692C1698.71 810.528 1698.4 807.852 1698.15 805.71C1697.92 803.315 1698.01 801.423 1698.42 800.114C1698.8 798.893 1699.53 797.752 1700.59 796.608C1700.91 796.23 1701.2 795.858 1701.4 795.497L1716.77 793.464L1715.63 784.835L1712.92 785.194L1713.69 791.07L1701.2 792.722C1700.24 791.135 1697.89 789.481 1694.15 787.76L1692.43 790.246C1696.51 792.005 1698.61 793.358 1698.74 794.344C1698.81 794.837 1698.55 795.414 1697.92 796.041C1696.61 797.51 1695.77 799.085 1695.49 800.752C1695.26 802.456 1695.29 804.584 1695.59 807.219C1695.9 809.813 1696.18 812.242 1696.47 814.461ZM1727.17 794.972L1724.42 795.337L1725.13 800.76C1722.04 799.79 1719.37 798.596 1717.18 797.214L1714.56 798.23L1715.81 807.721L1710.92 808.368L1709.42 796.987L1706.62 797.356L1708.13 808.738L1700.49 809.749L1700.86 812.584L1708.5 811.573L1709.93 822.338L1712.72 821.969L1711.3 811.203L1716.19 810.556L1717.37 819.514L1720.08 819.155L1718.9 810.198L1723.79 809.551L1723.41 806.716L1718.52 807.362L1717.65 800.747C1719.98 801.944 1722.63 803.015 1725.55 803.883L1727.61 819.456L1730.36 819.091L1728.45 804.669C1729.75 804.999 1731.08 805.283 1732.5 805.555L1732.78 802.633C1731.16 802.347 1729.56 801.973 1728.05 801.588L1727.17 794.972Z" fill="#1b2a38" fill-rule="nonzero" opacity="1" stroke="none"/>
<path d="M1737.74 853.631L1735.77 851.877C1734.33 854.114 1732.93 855.89 1731.55 857.249L1730.92 849.524C1732.9 849.281 1735 849.07 1737.32 848.883L1737.07 845.826C1734.84 846.006 1732.73 846.218 1730.68 846.467L1729.3 829.405L1715.54 830.515C1708.8 830.934 1703.44 829.994 1699.43 827.657L1697.59 830.092C1702.29 832.789 1708.38 833.962 1715.79 833.531L1717.02 833.431L1717.6 840.578C1713.05 840.862 1710.07 840.978 1708.64 840.843C1707.46 840.688 1706.8 840.16 1706.68 839.255C1706.59 838.139 1706.52 836.772 1706.48 835.155L1703.87 836.28C1703.89 837.609 1703.9 838.814 1703.98 839.805C1704.23 841.864 1705.24 843.071 1707.06 843.465C1709.13 843.839 1713.66 843.806 1720.65 843.325L1719.83 833.204L1726.69 832.651L1727.83 846.821C1722.7 847.568 1718.41 848.496 1715.01 849.685C1713.27 850.283 1711.66 850.953 1710.18 851.655C1706.35 849.094 1703.34 845.803 1701.15 841.821L1698.81 843.674C1700.85 847.417 1703.65 850.602 1707.27 853.22C1706.04 853.943 1704.94 854.739 1704.01 855.562C1701.69 857.745 1700.6 859.704 1700.74 861.44C1700.89 863.299 1703.77 864.48 1709.34 865.028L1710.62 862.223C1706.31 861.947 1704.11 861.418 1704 860.677C1703.94 859.851 1704.84 858.656 1706.71 857.132C1707.61 856.395 1708.72 855.682 1709.99 854.997C1713.92 857.341 1718.72 859.116 1724.31 860.328L1725.25 857.549C1720.73 856.625 1716.71 855.286 1713.24 853.487C1714.12 853.125 1715.05 852.759 1716.06 852.428C1718.98 851.444 1722.98 850.58 1728.08 849.878L1729.11 862.602L1731.96 862.372L1731.55 857.332L1733.61 859.079C1735.02 857.551 1736.41 855.734 1737.74 853.631Z" fill="#1b2a38" fill-rule="nonzero" opacity="1" stroke="none"/>
<path d="M1734.23 890.768C1732.56 890.527 1730.98 890.201 1729.47 889.747L1729.24 881.876L1726.38 881.96L1726.58 888.63C1726.32 888.472 1726.03 888.356 1725.78 888.239C1722.87 886.666 1720.36 884.335 1718.19 881.207L1718.95 881.682C1721.34 879.87 1723.49 878.065 1725.43 876.308L1727.87 876.236L1728 880.71L1730.86 880.626L1730.73 876.151L1738.85 875.912L1738.76 873.012L1730.64 873.251L1730.49 868.114L1727.63 868.198L1727.78 873.253C1722.49 872.248 1717.75 870.397 1713.52 867.744L1710.37 869.122C1713.66 870.932 1717.27 872.402 1721.2 873.53L1700.9 874.128L1700.98 877.028L1722.19 876.403C1720.73 877.441 1718.86 878.657 1716.5 880.137L1717.81 880.969L1715.66 882.691C1716.79 884.192 1717.95 885.568 1719.18 886.775L1716.32 886.859C1711.35 887.006 1706.9 885.064 1702.97 881.033L1701.05 883.412C1705.57 887.757 1710.69 889.886 1716.41 889.718L1720.14 889.608L1720.08 887.619C1721.44 888.823 1722.88 889.817 1724.4 890.643C1725.11 890.995 1725.87 891.346 1726.67 891.655L1726.76 894.803C1722.42 896.838 1718.92 900.176 1716.32 904.897L1718.97 906.104C1720.84 902.275 1723.5 899.46 1726.84 897.62L1727.04 904.415L1729.9 904.33L1729.56 892.606C1731.14 893.057 1732.81 893.422 1734.65 893.7C1735.2 897.042 1736.03 899.962 1737.1 902.501L1739.51 901.02C1737.62 896.266 1736.54 890.244 1736.32 882.953L1733.74 883.9C1733.81 886.302 1734 888.619 1734.23 890.768ZM1720.33 896.029L1701.48 896.585L1701.56 899.485L1720.41 898.929L1720.33 896.029Z" fill="#1b2a38" fill-rule="nonzero" opacity="1" stroke="none"/>
<path d="M1720.27 931.431C1718.98 931.406 1717.91 930.964 1717.08 930.104C1716.25 929.245 1715.84 928.168 1715.87 926.873C1715.89 925.578 1716.34 924.517 1717.2 923.69C1718.07 922.864 1719.15 922.462 1720.44 922.487C1721.74 922.512 1722.8 922.954 1723.62 923.813C1724.44 924.672 1724.83 925.749 1724.81 927.044C1724.79 928.339 1724.35 929.4 1723.49 930.227C1722.64 931.054 1721.57 931.455 1720.27 931.431Z" fill="#1b2a38" fill-rule="nonzero" opacity="1" stroke="none"/>
<path d="M1737.53 966.946C1731.82 961.821 1727.21 955.608 1723.64 948.261L1720.77 949.603C1724.54 957.005 1729.2 963.096 1734.77 967.879C1728.25 972.13 1722.82 977.451 1718.52 983.805L1721.18 985.565C1725.27 979.238 1730.67 973.79 1737.38 969.179L1737.53 966.946ZM1723.56 958.06C1718.93 957.744 1715.2 956.95 1712.29 955.755C1708.82 954.19 1706.07 951.343 1703.99 947.131L1701.59 948.836C1703.99 953.736 1707.31 956.953 1711.47 958.566L1712.73 959.026C1710.36 960.9 1708.14 962.452 1705.98 963.634L1707.94 965.886C1710.47 964.23 1713.01 962.202 1715.59 959.802C1717.88 960.331 1720.47 960.716 1723.36 960.913L1723.56 958.06ZM1722.94 972.599C1718.19 972.234 1714.29 971.511 1711.29 970.435C1707.73 969.029 1704.83 966.422 1702.64 962.7L1700.28 964.368C1702.8 968.818 1706.21 971.792 1710.52 973.249L1711.17 973.459C1706.55 975.346 1702.57 978.316 1699.22 982.408L1701.36 984.506C1705.1 979.568 1709.94 976.283 1715.87 974.61C1717.96 975.002 1720.26 975.283 1722.75 975.452L1722.94 972.599Z" fill="#1b2a38" fill-rule="nonzero" opacity="1" stroke="none"/>
<path d="M1724.32 998.779L1723.14 1008.66L1713.64 1007.52L1715.08 995.42L1712.2 995.076L1710.75 1007.18L1700.3 1005.93L1702.34 988.847L1699.38 988.492L1695.05 1024.75L1698.01 1025.1L1699.94 1008.93L1710.4 1010.18L1708.88 1022.9L1711.76 1023.24L1713.28 1010.52L1722.78 1011.66L1721.16 1025.2L1724.04 1025.54L1725.66 1012L1732.99 1012.88L1733.35 1009.88L1726.02 1009L1727.08 1000.19C1728.85 1001.03 1730.77 1001.8 1732.85 1002.51L1733.75 999.572C1727.03 997.392 1721.88 994.104 1718.31 989.753L1715.65 991.356C1717.9 994.213 1720.77 996.685 1724.32 998.779Z" fill="#1b2a38" fill-rule="nonzero" opacity="1" stroke="none"/>
<path d="M1727.79 1037.69L1724.93 1037.2L1722.91 1048.93L1720.18 1048.46C1717.65 1047.98 1715.27 1047.41 1713.12 1046.7L1715.51 1032.77L1712.69 1032.29L1710.39 1045.73C1707.9 1044.75 1705.7 1043.62 1703.83 1042.29C1700.04 1039.37 1697.4 1034.92 1695.83 1028.85L1692.94 1030.03C1694.41 1036.13 1697.18 1040.81 1701.16 1044.1C1703.54 1045.94 1706.43 1047.49 1709.87 1048.75L1709.3 1052.06L1694.43 1049.51C1691.65 1049.03 1690.04 1050.1 1689.58 1052.79L1688.44 1059.41C1688.15 1061.13 1688.3 1062.42 1688.91 1063.32C1689.65 1064.37 1691.95 1065.4 1695.9 1066.41L1697.28 1063.79C1694.13 1063.04 1692.31 1062.35 1691.75 1061.66C1691.3 1061.12 1691.14 1060.34 1691.31 1059.36L1692.2 1054.17C1692.42 1052.86 1693.23 1052.33 1694.54 1052.55L1708.79 1055L1706.62 1067.66L1709.44 1068.15L1712.61 1049.68C1714.77 1050.35 1717.15 1050.92 1719.67 1051.44L1722.4 1051.91L1719.89 1066.53L1722.75 1067.02L1727.79 1037.69Z" fill="#1b2a38" fill-rule="nonzero" opacity="1" stroke="none"/>
<path d="M1718.43 1090.32L1715.76 1089.72L1710.75 1112.01L1713.42 1112.61L1718.43 1090.32ZM1712.75 1091.21L1704.25 1089.31L1700.25 1107.14L1708.74 1109.05L1712.75 1091.21ZM1703.09 1104.89L1705.86 1092.56L1709.78 1093.44L1707.01 1105.77L1703.09 1104.89ZM1691.98 1088.93L1689.63 1088.4L1688.49 1093.5L1681.21 1091.86L1680.61 1094.53L1687.89 1096.16L1686.75 1101.22L1689.1 1101.75L1689.82 1098.55C1691.15 1099.62 1692.69 1100.68 1694.42 1101.71L1695.86 1099.44C1693.93 1098.37 1692.11 1097.24 1690.39 1096L1691.98 1088.93ZM1696.89 1093.34L1696.66 1090.96C1695.1 1091.46 1693.5 1091.78 1691.88 1092.01L1691.92 1094.31C1693.74 1094.12 1695.43 1093.78 1696.89 1093.34ZM1679.1 1100.86C1678.65 1102.88 1679.5 1104.18 1681.65 1104.66L1697.34 1108.18L1702.17 1086.67L1683.04 1082.37L1682.44 1085.04L1699.06 1088.78L1695.42 1104.99L1682.8 1102.16C1681.95 1101.97 1681.61 1101.42 1681.8 1100.57L1682.63 1097.45L1679.84 1097.58L1679.1 1100.86ZM1721.22 1077.87L1685.8 1069.91L1685.18 1072.66L1717.94 1080.02L1716.72 1085.44C1713.46 1083.9 1709.85 1081.98 1705.91 1079.65C1702.04 1080.82 1698.7 1081.13 1695.91 1080.51C1695.1 1080.33 1694.54 1079.99 1694.29 1079.59C1694.05 1079.15 1694 1078.42 1694.15 1077.35C1694.25 1076.91 1694.45 1076.4 1694.66 1075.85L1691.55 1076.09C1691.05 1078.48 1691.17 1080.25 1691.88 1081.43C1692.45 1082.28 1693.58 1082.92 1695.28 1083.3C1698.23 1083.79 1701.71 1083.6 1705.71 1082.62C1709.44 1084.74 1713.04 1086.69 1716.52 1088.41L1718.74 1088.91L1721.22 1077.87Z" fill="#1b2a38" fill-rule="nonzero" opacity="1" stroke="none"/>
</g>
<path d="M1573.85 507.638C1714.03 750.433 1714.03 1049.57 1573.85 1292.36" fill="none" opacity="0.98" stroke="#06b6d4" stroke-linecap="round" stroke-linejoin="miter" stroke-width="16.5787"/>
<path d="M1573.85 1298.42L1581.33 1235.74L1624.4 1260.6L1573.85 1298.42Z" fill="#06b6d4" fill-rule="nonzero" opacity="1" stroke="none"/>
<path d="M1338.43 1247.05C1248.49 1362.14 1117.38 1437.82 972.735 1458.15L997.327 1633.33C1187.39 1606.62 1359.67 1507.16 1477.83 1355.91L1338.43 1247.05Z" fill="#7ee2a6" fill-rule="nonzero" opacity="0.72" stroke="#16a34a" stroke-linecap="butt" stroke-linejoin="miter" stroke-width="2.76311"/>
<g opacity="1">
<path d="M1257.59 1454.62L1278.54 1442.23C1278.55 1444.73 1278.9 1447.33 1279.59 1449.87L1283.91 1448.06C1283.1 1445.44 1282.73 1442.7 1282.64 1439.8L1294.34 1432.87L1268.55 1389.28L1264.56 1391.65L1266.56 1395.04L1237.79 1412.06L1235.79 1408.67L1231.8 1411.03L1257.59 1454.62ZM1268.8 1398.81L1274.07 1407.73L1245.3 1424.75L1240.03 1415.84L1268.8 1398.81ZM1276.21 1411.33L1281.16 1419.7L1252.39 1436.73L1247.44 1428.36L1276.21 1411.33ZM1283.3 1423.31L1288.12 1431.46L1259.35 1448.49L1254.53 1440.34L1283.3 1423.31Z" fill="#1b2a38" fill-rule="nonzero" opacity="1" stroke="none"/>
<path d="M1200.76 1489.63L1202.89 1486.49C1198.94 1484.73 1195.68 1482.94 1193.06 1481.2L1190.92 1484.76C1193.42 1486.27 1196.75 1487.9 1200.76 1489.63ZM1210.45 1485.62L1207.02 1478.11C1206.31 1476.55 1205.74 1474.99 1205.17 1473.43L1213.32 1469.71L1211.47 1465.67L1203.9 1469.12C1203.21 1466.08 1202.85 1463.31 1202.89 1460.64C1203.18 1455.76 1205.49 1450.86 1209.7 1446.01L1206.05 1443.69C1201.55 1448.68 1199.06 1453.94 1198.59 1459.32C1198.48 1461.68 1198.67 1464.25 1199.08 1466.99C1193.66 1461.08 1186.62 1457.45 1178.02 1456.21L1177.4 1460.82C1186.22 1461.76 1193.17 1465.36 1198.18 1471.74L1186.96 1476.86L1188.81 1480.9L1201.3 1475.2C1201.84 1476.7 1202.47 1478.23 1203.15 1479.88L1206.58 1487.39L1210.45 1485.62ZM1219.96 1435.59C1218.96 1429.27 1218.7 1423.8 1219.21 1419.1L1214.5 1419.5C1214.26 1424.64 1214.69 1430.17 1215.79 1436.24L1219.96 1435.59ZM1206.35 1440.83L1209.86 1438.25C1207.28 1434.75 1204.61 1430.59 1201.8 1425.79L1198.11 1428.59C1200.97 1433.02 1203.7 1437.15 1206.35 1440.83ZM1194.59 1447.04L1198.12 1444.38C1194.8 1441.07 1191.47 1437 1188 1432.16L1184.29 1435.04C1187.72 1439.49 1191.13 1443.45 1194.59 1447.04ZM1184.1 1453.15L1186.87 1449.86C1182.42 1446.86 1177.91 1443.26 1173.34 1439.06L1170.43 1442.63C1175.04 1446.6 1179.63 1450.09 1184.1 1453.15ZM1228.44 1460.44C1225.12 1460.83 1221.65 1460.88 1218.13 1460.67C1218.33 1458.49 1218.69 1456.22 1219.22 1454.03C1222.62 1454.43 1226.11 1454.58 1229.73 1454.4C1229.21 1456.31 1228.74 1458.34 1228.44 1460.44ZM1218.05 1464.62C1221.34 1464.79 1224.68 1464.6 1227.99 1464.2C1227.88 1465.79 1227.85 1467.41 1227.88 1469.01L1218.86 1473.12C1218.39 1470.26 1218.07 1467.41 1218.05 1464.62ZM1228.18 1473.34C1228.33 1474.6 1228.49 1475.85 1228.67 1477.17L1232.95 1475.84C1231.44 1466.54 1232.58 1457.57 1236.44 1448.89L1232.39 1446.76C1231.84 1447.99 1231.33 1449.34 1230.86 1450.74C1227.5 1450.88 1224.04 1450.64 1220.44 1450.12C1222.21 1445.26 1225.01 1440.69 1228.89 1436.48L1225.26 1433.73C1215.2 1445.66 1211.69 1459.56 1214.77 1475.34L1216.33 1478.75L1228.18 1473.34Z" fill="#1b2a38" fill-rule="nonzero" opacity="1" stroke="none"/>
<path d="M1129.67 1511.04L1152.7 1503.36L1136.22 1453.98L1132.06 1455.37L1133.85 1460.74L1119.2 1465.63L1117.61 1460.86L1113.39 1462.27L1129.67 1511.04ZM1135.22 1464.84L1147.19 1500.7L1132.54 1505.59L1120.57 1469.72L1135.22 1464.84ZM1176.08 1481.68L1174.73 1477.64L1164.18 1481.16L1164.04 1480.74C1164.3 1473.29 1166.35 1465.97 1170.18 1458.79L1166.81 1454.7C1164.07 1460.77 1162.37 1467.1 1161.69 1473.69L1152.76 1446.92L1148.54 1448.33L1157.61 1475.52C1154.53 1473.73 1150.73 1471.18 1146.17 1467.95L1144.89 1472.53C1149.77 1475.32 1154.43 1477.65 1158.96 1479.56L1159.96 1482.57L1149.65 1486.01L1151 1490.05L1161.31 1486.61L1164.49 1496.14C1161.35 1497.99 1158.48 1500.02 1155.73 1502.21L1158.99 1505.14C1164.25 1500.84 1171.22 1496.84 1179.96 1493.12L1177.29 1489.72C1174.23 1491.01 1171.28 1492.4 1168.43 1493.88L1165.53 1485.2L1176.08 1481.68Z" fill="#1b2a38" fill-rule="nonzero" opacity="1" stroke="none"/>
</g>
<g opacity="1">
<path d="M1433.94 1545.82L1409.22 1517.11L1406.9 1519.11L1421.28 1535.82C1418.22 1535.94 1414.29 1535.77 1409.5 1535.41L1409.9 1538.67C1414.68 1538.76 1419.19 1538.66 1423.45 1538.33L1431.61 1547.82L1433.94 1545.82ZM1435.89 1522.43L1435.57 1519.64C1433.21 1520.26 1430.57 1520.56 1427.74 1520.58C1427.02 1515.3 1427.67 1509.82 1429.65 1504.18L1426.46 1503.59C1422.48 1515.48 1424.09 1526.63 1431.21 1537.06L1432.91 1539.04L1440.55 1532.47C1441.22 1534.14 1442 1535.82 1442.91 1537.5L1445.49 1535.93C1441.88 1529.19 1440.44 1522.56 1441.15 1516.15L1437.97 1515.56C1437.45 1520.05 1437.93 1524.72 1439.5 1529.6L1433.28 1534.96C1430.86 1531.19 1429.18 1527.27 1428.25 1523.26C1430.77 1523.28 1433.32 1523 1435.89 1522.43Z" fill="#1b2a38" fill-rule="nonzero" opacity="1" stroke="none"/>
<path d="M1391.56 1572.72C1390.79 1569.02 1390.55 1565.48 1390.87 1562.09L1387.96 1562.19C1387.63 1565.7 1387.84 1569.42 1388.58 1573.35L1391.56 1572.72ZM1401.42 1564.13L1403.05 1561.71C1400.61 1560.72 1398.28 1559.54 1396.1 1558.08L1394.24 1560.42C1396.7 1561.97 1399.12 1563.19 1401.42 1564.13ZM1409.78 1556.45L1411.48 1553.97C1408.93 1553.12 1406.3 1551.96 1403.54 1550.43L1402.11 1553.06C1404.65 1554.44 1407.2 1555.56 1409.78 1556.45ZM1393.45 1578.07C1399.06 1571.84 1406.79 1564.9 1416.68 1557.23L1414.23 1555.56C1403.81 1563.64 1396.03 1570.78 1390.76 1576.96L1393.45 1578.07ZM1406.37 1543.88L1404.6 1541.58L1395 1549.02C1394.48 1543.55 1395.85 1537.61 1399.2 1531.24L1396.19 1530.06C1392.9 1537.33 1391.86 1544.17 1393 1550.57L1392.67 1550.83L1383.12 1538.51L1380.77 1540.34L1390.32 1552.66L1389.89 1552.99C1384.51 1550.65 1377.81 1549.92 1369.77 1550.91L1369.72 1554.31C1377.06 1552.81 1383.14 1552.87 1387.96 1554.48L1378.36 1561.93L1380.14 1564.22L1392.09 1554.95L1394.53 1558.09L1396.89 1556.26L1394.45 1553.12L1406.37 1543.88Z" fill="#1b2a38" fill-rule="nonzero" opacity="1" stroke="none"/>
<path d="M1362.39 1600.55L1362.91 1597.96C1360.25 1597.84 1358.02 1597.53 1356.14 1597.02L1362.5 1592.59C1363.71 1594.17 1364.95 1595.88 1366.28 1597.79L1368.79 1596.03C1367.51 1594.2 1366.27 1592.49 1365.02 1590.83L1379.06 1581.05L1371.17 1569.72C1367.41 1564.11 1365.53 1559.01 1365.52 1554.36L1362.49 1554C1362.53 1559.43 1364.58 1565.27 1368.69 1571.45L1369.4 1572.47L1363.52 1576.57C1360.98 1572.78 1359.38 1570.26 1358.77 1568.97C1358.31 1567.87 1358.43 1567.03 1359.16 1566.48C1360.08 1565.84 1361.22 1565.09 1362.6 1564.23L1360.31 1562.54C1359.17 1563.23 1358.14 1563.85 1357.32 1564.42C1355.67 1565.67 1355.14 1567.16 1355.71 1568.93C1356.43 1570.9 1358.74 1574.8 1362.68 1580.59L1371.01 1574.79L1374.94 1580.43L1363.28 1588.56C1360.05 1584.5 1357.08 1581.26 1354.34 1578.92C1352.95 1577.72 1351.56 1576.67 1350.21 1575.74C1350.49 1571.15 1351.82 1566.89 1354.16 1562.99L1351.37 1561.9C1349.17 1565.55 1347.83 1569.57 1347.39 1574.02C1346.15 1573.32 1344.91 1572.77 1343.72 1572.38C1340.67 1571.48 1338.43 1571.52 1337 1572.52C1335.47 1573.58 1335.9 1576.67 1338.24 1581.76L1341.3 1581.44C1339.37 1577.59 1338.72 1575.41 1339.3 1574.95C1339.98 1574.48 1341.47 1574.66 1343.73 1575.51C1344.82 1575.91 1345.99 1576.51 1347.23 1577.26C1347.18 1581.84 1348.07 1586.88 1349.84 1592.32L1352.71 1591.73C1351.23 1587.36 1350.36 1583.21 1350.17 1579.31C1350.93 1579.89 1351.71 1580.51 1352.51 1581.21C1354.82 1583.24 1357.59 1586.26 1360.76 1590.31L1350.29 1597.61L1351.93 1599.96L1356.07 1597.06L1355.6 1599.72C1357.63 1600.17 1359.9 1600.46 1362.39 1600.55Z" fill="#1b2a38" fill-rule="nonzero" opacity="1" stroke="none"/>
<path d="M1331.12 1600.16C1325.29 1604.28 1319.95 1608.24 1315.15 1612.07C1314.02 1611.5 1312.91 1610.97 1311.87 1610.4L1310.72 1613.17C1313.34 1614.56 1316.69 1615.94 1320.88 1617.34L1322.19 1614.81C1320.69 1614.28 1319.28 1613.74 1317.87 1613.21C1321.57 1610.21 1325.36 1607.36 1329.27 1604.63C1328.86 1606.79 1328.76 1609.84 1328.93 1613.79L1316.09 1621.79L1317.51 1624.08L1326.76 1618.31C1328.18 1619.48 1329.5 1620.51 1330.81 1621.35L1333.12 1619.33C1331.87 1618.59 1330.6 1617.72 1329.3 1616.73L1339.11 1610.61L1337.68 1608.33L1331.53 1612.16C1331.47 1607.37 1331.82 1604.17 1332.63 1602.49C1332.73 1602.33 1332.86 1602.15 1333.02 1601.95L1331.12 1600.16ZM1347.54 1609.65L1348.28 1606.75C1344.95 1606.58 1342.21 1606.19 1339.98 1605.58L1339.3 1608.49C1341.72 1609.08 1344.46 1609.47 1347.54 1609.65ZM1343.15 1600.72L1343.85 1597.84C1340.35 1597.48 1337.41 1596.92 1335.06 1596.14L1334.41 1599.08C1336.94 1599.85 1339.88 1600.41 1343.15 1600.72ZM1333.73 1593.6C1332.39 1588.47 1331.35 1583.36 1330.63 1578.14L1327.64 1578.59C1328.41 1583.58 1329.53 1588.74 1330.93 1594.12L1333.73 1593.6ZM1322.94 1603.01L1313.45 1587.78L1310.88 1589.38L1320.37 1604.61L1322.94 1603.01ZM1328.66 1599.49C1326.21 1595.26 1324.71 1591.99 1324.22 1589.71C1323.74 1587.37 1323.93 1585.01 1324.76 1582.58L1321.89 1581.59C1320.93 1584.43 1320.69 1587.27 1321.25 1590.04C1321.82 1592.67 1323.47 1596.33 1326.2 1601.03L1328.66 1599.49ZM1302.18 1594.32C1300.82 1595.26 1300.18 1596.2 1300.15 1597.09C1300.17 1598.06 1301.14 1600.09 1303.07 1603.19L1305.82 1602.65C1304.65 1600.79 1303.87 1599.37 1303.48 1598.44C1303.07 1597.62 1303.18 1597.01 1303.77 1596.55L1305.32 1595.58C1305.82 1595.37 1306.21 1595.52 1306.53 1596.05L1314.25 1608.43L1316.68 1606.91L1308.68 1594.08C1307.54 1592.25 1305.98 1591.95 1303.94 1593.22L1302.18 1594.32Z" fill="#1b2a38" fill-rule="nonzero" opacity="1" stroke="none"/>
<path d="M1286.39 1624.66C1285.75 1623.53 1285.6 1622.38 1285.92 1621.23C1286.24 1620.08 1286.97 1619.18 1288.1 1618.55C1289.23 1617.92 1290.37 1617.77 1291.52 1618.1C1292.67 1618.44 1293.57 1619.17 1294.2 1620.3C1294.83 1621.43 1294.98 1622.57 1294.65 1623.71C1294.32 1624.85 1293.59 1625.73 1292.46 1626.36C1291.33 1627 1290.19 1627.15 1289.05 1626.83C1287.9 1626.51 1287.02 1625.79 1286.39 1624.66Z" fill="#1b2a38" fill-rule="nonzero" opacity="1" stroke="none"/>
<path d="M1247.01 1663.25L1277.54 1648.13L1262.12 1617.01L1259.41 1618.35L1260.48 1620.5L1235.37 1632.94L1234.3 1630.79L1231.59 1632.13L1247.01 1663.25ZM1261.67 1622.92L1273.63 1647.06L1266.54 1650.57L1262.55 1642.51C1260.45 1638.09 1260.82 1633.98 1263.61 1630.1L1260.69 1629.33C1257.7 1633.77 1257.46 1638.6 1259.95 1643.8L1263.94 1651.86L1258.41 1654.6L1251.1 1639.86C1250.11 1637.85 1248.52 1637.35 1246.29 1638.45L1241.02 1641.06L1242.23 1643.51L1246.8 1641.25C1247.76 1640.77 1248.45 1640.94 1248.82 1641.68L1255.85 1655.87L1248.53 1659.5L1236.57 1635.36L1261.67 1622.92Z" fill="#1b2a38" fill-rule="nonzero" opacity="1" stroke="none"/>
<path d="M1228.33 1671.1L1239.28 1666.35L1226.74 1637.41L1224.07 1638.56L1225.57 1642.03L1219.95 1644.47L1218.84 1641.92L1216.18 1643.07L1228.33 1671.1ZM1226.68 1644.57L1230.65 1653.74L1225.02 1656.18L1221.05 1647.01L1226.68 1644.57ZM1231.76 1656.29L1235.53 1664.99L1229.9 1667.43L1226.13 1658.73L1231.76 1656.29ZM1217.94 1662.14L1219.57 1659.76C1215.78 1657.25 1212.6 1654.83 1210.04 1652.56L1208.45 1655.14C1210.86 1657.26 1214.03 1659.59 1217.94 1662.14ZM1200.47 1645.59C1198.11 1646.61 1197.46 1648.34 1198.5 1650.74L1207.71 1671.99L1203.03 1674.02L1204.17 1676.65L1208.85 1674.62L1211.75 1681.31L1214.53 1680.11L1211.63 1673.41L1224.78 1667.71L1223.65 1665.09L1210.49 1670.79L1201.57 1650.22C1201.06 1649.04 1201.37 1648.18 1202.47 1647.71C1204.48 1646.83 1206.61 1646 1208.85 1645.12L1207.12 1642.71L1200.47 1645.59Z" fill="#1b2a38" fill-rule="nonzero" opacity="1" stroke="none"/>
<path d="M1183.26 1682.47C1181.88 1671.21 1184.31 1661.28 1190.58 1652.73L1188.03 1650.99C1181.85 1659.32 1179.34 1668.93 1180.48 1679.79C1180.12 1679.4 1179.72 1678.93 1179.25 1678.39C1171.42 1669.64 1163.65 1664.49 1155.94 1663.04L1155.04 1665.95C1162.61 1667.49 1169.91 1672.24 1177.03 1680.15C1181.79 1685.54 1186.35 1688.84 1190.7 1689.95L1192.48 1687.6C1189.33 1686.75 1186.26 1685.06 1183.26 1682.47Z" fill="#1b2a38" fill-rule="nonzero" opacity="1" stroke="none"/>
<path d="M1148.58 1702.65L1147.7 1699.89L1137.07 1703.26C1137.08 1695.34 1139.17 1687.94 1143.34 1681.05L1140.89 1679.35C1138.25 1683.79 1136.39 1688.47 1135.33 1693.37L1128.38 1671.45L1125.65 1672.31L1134.42 1699.97C1134.34 1701.34 1134.3 1702.74 1134.31 1704.13L1125.81 1706.83L1126.69 1709.59L1148.58 1702.65ZM1130.55 1696.54L1132.33 1694.46C1127.58 1691.57 1123.71 1688.8 1120.64 1686.12L1118.79 1688.53C1121.73 1690.94 1125.63 1693.62 1130.55 1696.54ZM1158.4 1693.19C1157.37 1689.38 1156.88 1685.63 1156.94 1681.87L1154.4 1681.93C1154.42 1685.84 1154.97 1689.76 1156.1 1693.74L1158.4 1693.19ZM1148.63 1697.33L1150.5 1695.96C1148.46 1693.51 1146.59 1690.89 1144.83 1688.1L1142.72 1689.38C1144.69 1692.45 1146.66 1695.09 1148.63 1697.33ZM1156.55 1702.17L1145.14 1666.17L1142.34 1667.06L1153.75 1703.06L1156.55 1702.17Z" fill="#1b2a38" fill-rule="nonzero" opacity="1" stroke="none"/>
</g>
<path d="M1573.85 1292.36C1433.67 1535.16 1174.62 1684.72 894.263 1684.72" fill="none" opacity="0.98" stroke="#16a34a" stroke-linecap="round" stroke-linejoin="miter" stroke-width="16.5787"/>
<path d="M894.263 1684.72L952.288 1659.86L952.288 1709.59L894.263 1684.72Z" fill="#16a34a" fill-rule="nonzero" opacity="1" stroke="none"/>
<path d="M815.791 1458.15C671.144 1437.82 540.036 1362.14 450.093 1247.05L310.694 1355.91C428.858 1507.16 601.131 1606.62 791.199 1633.33L815.791 1458.15Z" fill="#ffd052" fill-rule="nonzero" opacity="0.72" stroke="#d97706" stroke-linecap="butt" stroke-linejoin="miter" stroke-width="2.76311"/>
<g opacity="1">
<path d="M664.256 1491.53L651.027 1485.16L653.589 1479.84L666.818 1486.2L664.256 1491.53ZM649.373 1488.6L662.603 1494.96L659.93 1500.52L646.701 1494.15L649.373 1488.6ZM668.499 1482.71L655.27 1476.34L657.501 1471.7C658.19 1470.27 659.293 1469.88 660.724 1470.57L664.937 1472.81L665.78 1468.42L661.198 1466.22C657.991 1464.67 655.561 1465.62 653.963 1468.94L641.014 1495.86L662.146 1506.03L677.713 1473.67L673.761 1471.77L668.499 1482.71ZM623.199 1481.44C621.195 1480.47 619.485 1480.21 618.156 1480.63C616.629 1481.17 614.507 1483.67 611.847 1488.17L615.105 1491.22C617.043 1487.78 618.406 1485.83 619.364 1485.3C620.098 1484.95 621.065 1484.99 622.21 1485.54L629.712 1489.15C631.259 1489.9 631.562 1491.17 630.681 1493L627.237 1500.16C620.496 1498.05 614.418 1496.46 609.028 1495.35L608.61 1499.59C613.057 1500.46 618.65 1501.88 625.418 1503.94L621.836 1511.39L625.902 1513.34L635.16 1494.1C636.951 1490.38 636.142 1487.66 632.648 1485.98L623.199 1481.44ZM640.021 1473.59C633.817 1471.24 627.793 1469.54 621.923 1468.55L621.477 1472.85C626.662 1473.65 632.227 1475.13 638.23 1477.31L634.841 1484.36L638.907 1486.31L648.467 1466.44C649.928 1463.4 649.011 1461.06 645.575 1459.41L635.839 1454.72C633.777 1453.73 632.068 1453.47 630.738 1453.89C629.154 1454.4 627.06 1456.85 624.484 1461.32L627.656 1464.26C629.566 1460.87 630.986 1458.95 632.002 1458.45C632.708 1458.15 633.704 1458.28 634.85 1458.83L642.638 1462.58C644.127 1463.29 644.512 1464.25 643.96 1465.4L640.021 1473.59ZM637.34 1514.05L641.511 1513.59C641.074 1510.98 640.693 1508.4 640.372 1505.99C646.086 1507.89 651.403 1509.88 656.352 1511.91C651.739 1513.29 646.947 1515.92 641.861 1519.75L645.177 1522.83C649.671 1519.35 654.633 1516.66 659.947 1514.7C660.683 1514.49 661.506 1514.39 662.361 1514.52L662.868 1510.53C654.172 1506.91 646.511 1504.08 639.915 1502.1C639.777 1500.48 639.696 1498.89 639.672 1497.33L635.136 1498.11C635.372 1502.45 636.135 1507.76 637.34 1514.05Z" fill="#1b2a38" fill-rule="nonzero" opacity="1" stroke="none"/>
<path d="M602.946 1471.7L611.48 1457.92L594.731 1447.55L596.605 1444.52L614.704 1455.73L616.311 1453.14L598.212 1441.93L600.186 1438.74L622.337 1452.46L624.211 1449.44L575.911 1419.52L574.037 1422.54L596.296 1436.33L594.322 1439.52L576.007 1428.18L574.4 1430.77L592.715 1442.11L590.841 1445.14L573.877 1434.63L565.343 1448.41L602.946 1471.7ZM576.099 1439.37L589.336 1447.57L587.294 1450.87L574.058 1442.67L576.099 1439.37ZM593.225 1449.98L606.246 1458.04L604.205 1461.34L591.184 1453.28L593.225 1449.98ZM602.799 1463.61L600.724 1466.96L587.704 1458.89L589.779 1455.54L602.799 1463.61ZM583.814 1456.48L570.577 1448.29L572.652 1444.94L585.889 1453.13L583.814 1456.48ZM588.271 1492.74L596.537 1479.39L561.257 1457.54L552.992 1470.88L588.271 1492.74ZM563.6 1462.2L591.316 1479.37L589.342 1482.56L561.626 1465.39L563.6 1462.2ZM587.903 1484.88L585.962 1488.02L558.246 1470.85L560.187 1467.72L587.903 1484.88ZM604.922 1480.7L606.73 1477.78L558.322 1447.8L556.514 1450.71L604.922 1480.7Z" fill="#1b2a38" fill-rule="nonzero" opacity="1" stroke="none"/>
<path d="M496.192 1424.34L515.36 1439.23L547.3 1398.14L543.838 1395.45L540.367 1399.91L528.174 1390.44L531.255 1386.47L527.742 1383.74L496.192 1424.34ZM537.715 1403.32L514.511 1433.18L502.317 1423.7L525.522 1393.85L537.715 1403.32ZM546.364 1446.67L548.977 1443.31L540.196 1436.48L540.469 1436.13C546.816 1432.21 554.039 1429.86 562.138 1429.07L563.674 1423.98C557.109 1425.08 550.895 1427.17 545.032 1430.26L562.348 1407.98L558.835 1405.25L541.246 1427.88C541.028 1424.33 541.043 1419.75 541.203 1414.16L536.677 1415.64C537.064 1421.25 537.712 1426.42 538.634 1431.24L536.684 1433.75L528.103 1427.08L525.49 1430.45L534.071 1437.11L527.909 1445.04C524.631 1443.46 521.347 1442.2 517.997 1441.12L517.363 1445.46C523.863 1447.45 531.06 1451.03 539.005 1456.24L540.347 1452.13C537.581 1450.31 534.788 1448.62 531.967 1447.07L537.583 1439.84L546.364 1446.67Z" fill="#1b2a38" fill-rule="nonzero" opacity="1" stroke="none"/>
</g>
<g opacity="1">
<path d="M643.053 1689.09C640.653 1684.06 638.853 1679.46 637.731 1675.31L634.876 1676.74C636.387 1681.42 638.499 1686.39 641.264 1691.63C640.508 1692.82 639.791 1694.15 639.085 1695.57L627.868 1691.74L635.347 1669.85C635.776 1668.6 636.631 1668.15 637.886 1668.58L643.833 1670.78L644.014 1667.69L637.856 1665.59C635.346 1664.73 633.596 1665.62 632.698 1668.25L624.067 1693.51L637.833 1698.21C637.006 1700.12 636.151 1702.23 635.361 1704.55L638.224 1705.53C639.001 1703.25 639.856 1701.14 640.735 1699.2L655.09 1704.11L665.209 1674.5L662.346 1673.52L653.165 1700.38L641.987 1696.56C642.878 1694.85 643.794 1693.33 644.748 1691.94C647.648 1688.07 651.783 1685.46 657.168 1684.06L656.076 1681.1C650.508 1682.53 646.189 1685.17 643.053 1689.09Z" fill="#1b2a38" fill-rule="nonzero" opacity="1" stroke="none"/>
<path d="M616.649 1689.06C618.287 1685.3 620.195 1681.87 622.388 1678.73L620.302 1677.13C618.009 1680.41 616.04 1684 614.34 1687.92L616.649 1689.06ZM605.535 1686.27C606.974 1685.24 608.536 1684.35 610.252 1683.52L606.329 1693.33L608.984 1694.39L614.646 1680.23C618.139 1671.72 622.54 1666.29 627.927 1663.98L626.595 1661.39C623.009 1663 619.839 1665.79 616.976 1669.82C616.499 1667.89 615.99 1665.37 615.543 1662.24L612.958 1664.02C613.712 1667.05 614.483 1669.81 615.33 1672.38C614.16 1674.41 613.045 1676.64 611.991 1679.17L611.483 1680.44C608.897 1681.32 606.681 1682.4 604.78 1683.69L605.535 1686.27ZM606.639 1666.99C608.886 1664.49 611.595 1662.18 614.75 1660.1L612.926 1657.85C610.14 1659.68 607.362 1662.05 604.576 1665L606.639 1666.99ZM592.3 1660.98L595.086 1661.16C594.824 1658.02 594.808 1654.49 595.061 1650.62L592.298 1650.72C592.091 1654.25 592.099 1657.69 592.3 1660.98ZM605.606 1653.05C603.45 1652.19 601.904 1652.82 601.042 1654.97L596.734 1665.75L589.229 1662.75L588.245 1665.21L595.749 1668.21L592.764 1675.68L598.345 1677.91C597.398 1679.05 596.436 1680.23 595.459 1681.44L583.99 1676.86L582.96 1679.43L593.735 1683.74C592.935 1684.85 592.081 1685.98 591.25 1687.17L593.706 1688.73C594.637 1687.41 595.568 1686.08 596.468 1684.84L603.665 1687.71L604.695 1685.13L598.191 1682.53C599.13 1681.3 600.092 1680.12 601.039 1678.99L605.657 1680.83L606.657 1678.33L602.962 1676.85C604.501 1675.24 605.948 1673.85 607.356 1672.67L607.702 1670.13L599.428 1666.83L603.397 1656.9C603.828 1655.82 604.521 1655.43 605.444 1655.8L608.862 1657.3L609.185 1654.48L605.606 1653.05ZM600.23 1675.76L596.458 1674.25L598.443 1669.29L604.293 1671.63C602.985 1672.89 601.63 1674.27 600.23 1675.76Z" fill="#1b2a38" fill-rule="nonzero" opacity="1" stroke="none"/>
<path d="M548.717 1669.24L551.211 1668.38C549.967 1666.02 549.102 1663.94 548.597 1662.06L555.637 1665.3C554.881 1667.14 554.035 1669.08 553.064 1671.19L555.85 1672.47C556.786 1670.44 557.632 1668.5 558.423 1666.58L573.973 1673.74L579.743 1661.2C582.681 1655.12 586.124 1650.91 590.128 1648.56L588.907 1645.76C584.249 1648.54 580.248 1653.27 576.995 1659.94L576.475 1661.07L569.962 1658.07C571.943 1653.96 573.304 1651.31 574.119 1650.13C574.83 1649.18 575.617 1648.86 576.463 1649.2C577.479 1649.67 578.704 1650.28 580.138 1651.03L580.436 1648.2C579.266 1647.57 578.209 1646.99 577.305 1646.58C575.388 1645.79 573.84 1646.08 572.605 1647.47C571.267 1649.09 569.076 1653.06 566.072 1659.38L575.297 1663.63L572.42 1669.88L559.506 1663.94C561.371 1659.09 562.664 1654.89 563.291 1651.35C563.622 1649.54 563.826 1647.81 563.94 1646.17C568.045 1644.09 572.389 1643.08 576.934 1643.12L576.468 1640.17C572.201 1640.12 568.056 1641 564 1642.87C563.972 1641.44 563.818 1640.1 563.556 1638.88C562.788 1635.79 561.614 1633.88 560.033 1633.15C558.338 1632.37 555.897 1634.31 552.689 1638.9L554.512 1641.38C556.862 1637.76 558.403 1636.1 559.098 1636.37C559.851 1636.72 560.452 1638.09 560.862 1640.47C561.066 1641.61 561.146 1642.93 561.118 1644.37C557.149 1646.65 553.25 1649.97 549.457 1654.25L551.419 1656.43C554.44 1652.93 557.575 1650.09 560.844 1647.94C560.726 1648.89 560.591 1649.88 560.384 1650.93C559.814 1653.95 558.605 1657.86 556.72 1662.65L545.124 1657.32L543.928 1659.91L548.521 1662.03L545.992 1662.96C546.631 1664.94 547.534 1667.05 548.717 1669.24Z" fill="#1b2a38" fill-rule="nonzero" opacity="1" stroke="none"/>
<path d="M538.745 1655.12C540.683 1651.6 542.93 1648.47 545.428 1645.75L543.532 1644.01C540.921 1646.86 538.597 1650.13 536.545 1653.78L538.745 1655.12ZM526.609 1651.76C528.557 1650.72 530.706 1649.83 533.017 1649.17L528.171 1658.43L530.705 1659.75L537.588 1646.61C542.007 1638.35 547.015 1633.25 552.648 1631.43L551.587 1628.72C547.557 1630.07 543.816 1632.84 540.362 1637.11C539.987 1635.32 539.679 1632.96 539.364 1629.99L536.779 1631.45C537.281 1634.33 537.898 1636.99 538.612 1639.47C537.411 1641.23 536.207 1643.17 535.055 1645.28L534.497 1646.35C531.298 1646.92 528.501 1647.79 526.125 1648.93L526.609 1651.76ZM510.024 1640.55L513.677 1633.57L525.83 1639.94L522.177 1646.91L510.024 1640.55ZM527.157 1637.4L512.433 1629.69L506.127 1641.73L513.176 1645.43C512.86 1647.46 512.677 1649.33 512.626 1651.03L515.537 1652C515.493 1650.38 515.563 1648.64 515.783 1646.79L523.494 1650.83L529.627 1639.12C533.029 1632.71 537.137 1628.17 541.969 1625.56L540.946 1622.77C535.362 1625.93 530.766 1630.78 527.157 1637.4Z" fill="#1b2a38" fill-rule="nonzero" opacity="1" stroke="none"/>
<path d="M489.444 1615.9C490.1 1614.78 491.007 1614.07 492.165 1613.77C493.322 1613.46 494.459 1613.63 495.576 1614.29C496.693 1614.95 497.4 1615.85 497.697 1617.01C497.993 1618.17 497.814 1619.31 497.158 1620.43C496.502 1621.55 495.599 1622.25 494.448 1622.55C493.297 1622.84 492.163 1622.66 491.047 1622C489.93 1621.35 489.219 1620.45 488.916 1619.3C488.612 1618.15 488.789 1617.02 489.444 1615.9Z" fill="#1b2a38" fill-rule="nonzero" opacity="1" stroke="none"/>
<path d="M473.187 1600.43L465.178 1595.19L467.29 1591.96L475.299 1597.21L473.187 1600.43ZM463.816 1597.27L471.825 1602.51L469.622 1605.87L461.613 1600.63L463.816 1597.27ZM476.685 1595.09L468.675 1589.85L470.515 1587.04C471.083 1586.17 471.828 1586.01 472.695 1586.58L475.228 1588.39L476.148 1585.62L473.374 1583.81C471.432 1582.53 469.78 1582.94 468.463 1584.95L457.79 1601.25L470.584 1609.63L483.414 1590.04L481.022 1588.47L476.685 1595.09ZM447.505 1590.4C446.291 1589.6 445.208 1589.29 444.313 1589.45C443.28 1589.66 441.694 1591.1 439.589 1593.78L441.435 1596.03C442.982 1593.97 444.03 1592.83 444.695 1592.57C445.199 1592.4 445.821 1592.51 446.514 1592.97L451.056 1595.94C451.992 1596.56 452.08 1597.41 451.353 1598.52L448.515 1602.85C444.337 1600.91 440.543 1599.36 437.153 1598.18L436.52 1600.89C439.321 1601.83 442.816 1603.23 447.016 1605.14L444.064 1609.65L446.525 1611.26L454.155 1599.61C455.632 1597.36 455.341 1595.53 453.226 1594.14L447.505 1590.4ZM459.051 1586.76C455.241 1584.71 451.492 1583.1 447.781 1581.96L447.125 1584.7C450.409 1585.66 453.881 1587.09 457.575 1589.02L454.782 1593.28L457.244 1594.89L465.124 1582.86C466.327 1581.02 465.935 1579.43 463.855 1578.07L457.961 1574.21C456.712 1573.39 455.629 1573.08 454.734 1573.23C453.666 1573.43 452.103 1574.83 450.055 1577.5L451.855 1579.67C453.379 1577.65 454.462 1576.52 455.161 1576.29C455.643 1576.16 456.276 1576.32 456.97 1576.78L461.685 1579.87C462.587 1580.46 462.753 1581.11 462.299 1581.8L459.051 1586.76ZM453.86 1612.69L456.596 1612.75C456.536 1611.03 456.511 1609.33 456.509 1607.74C460.041 1609.46 463.308 1611.2 466.334 1612.94C463.235 1613.43 459.911 1614.72 456.295 1616.77L458.176 1619.04C461.38 1617.17 464.818 1615.86 468.421 1615.05C468.915 1614.97 469.455 1614.98 469.996 1615.14L470.666 1612.6C465.352 1609.52 460.642 1607.03 456.546 1605.19C456.595 1604.13 456.678 1603.09 456.797 1602.08L453.797 1602.2C453.579 1605.03 453.619 1608.52 453.86 1612.69Z" fill="#1b2a38" fill-rule="nonzero" opacity="1" stroke="none"/>
<path d="M435.674 1583.14L441.908 1574.6L431.533 1567.03L432.902 1565.15L444.114 1573.34L445.287 1571.73L434.075 1563.55L435.518 1561.57L449.24 1571.59L450.609 1569.72L420.688 1547.86L419.319 1549.74L433.108 1559.81L431.665 1561.78L420.319 1553.5L419.146 1555.1L430.492 1563.39L429.123 1565.27L418.614 1557.59L412.38 1566.12L435.674 1583.14ZM419.823 1560.78L428.023 1566.77L426.532 1568.81L418.332 1562.82L419.823 1560.78ZM430.433 1568.53L438.499 1574.42L437.007 1576.47L428.941 1570.57L430.433 1568.53ZM435.981 1577.87L434.465 1579.95L426.399 1574.05L427.915 1571.98L435.981 1577.87ZM423.989 1572.29L415.789 1566.3L417.305 1564.23L425.505 1570.22L423.989 1572.29ZM425.086 1596.09L431.124 1587.82L409.269 1571.86L403.231 1580.13L425.086 1596.09ZM410.561 1575.01L427.73 1587.55L426.288 1589.52L409.118 1576.98L410.561 1575.01ZM425.237 1590.96L423.819 1592.91L406.649 1580.36L408.067 1578.42L425.237 1590.96ZM436.512 1589.09L437.832 1587.28L407.844 1565.38L406.524 1567.18L436.512 1589.09Z" fill="#1b2a38" fill-rule="nonzero" opacity="1" stroke="none"/>
<path d="M379.827 1562.71L382.618 1564.33C382.863 1562.72 383.25 1561.06 383.78 1559.35L396.266 1569.49L398.016 1567.33L388.78 1559.83C394.548 1558.06 398.604 1557.4 400.945 1557.8C401.126 1557.84 401.339 1557.91 401.616 1558.03L402.767 1555.49C395.819 1550.44 389.248 1545.91 383.056 1541.89C383.186 1540.02 383.386 1538.27 383.651 1536.56L380.623 1536.34C380.118 1539.99 379.943 1544.55 380.047 1550.07L382.763 1550.41C382.77 1548.49 382.815 1546.66 382.893 1544.86C388.009 1548.16 393.047 1551.55 397.986 1555.13C395.202 1555.28 391.318 1556.18 386.367 1557.87L371.5 1545.81L369.75 1547.96L381.463 1557.47C380.777 1559.37 380.22 1561.11 379.827 1562.71ZM398.971 1550.44C401.829 1547.31 404.469 1545.5 406.894 1545.02C409.35 1544.55 412.487 1544.96 416.336 1546.27L416.376 1543.26C412.055 1541.95 408.458 1541.64 405.58 1542.29C402.908 1542.95 399.974 1545.06 396.719 1548.61L398.971 1550.44ZM393.298 1525.33C392.114 1524.42 391.01 1524.01 389.922 1524.03C388.73 1524.19 386.654 1525.76 383.726 1528.77L385.327 1531.14C387.682 1528.57 389.316 1527.28 390.197 1527.24C390.876 1527.26 391.522 1527.52 392.133 1528.02L395.898 1531.07C397.025 1531.99 397.154 1532.95 396.37 1533.91L388.978 1543.02L391.262 1544.87L398.968 1535.38C400.744 1533.19 400.539 1531.21 398.318 1529.41L393.298 1525.33Z" fill="#1b2a38" fill-rule="nonzero" opacity="1" stroke="none"/>
<path d="M361.375 1529.5L364.04 1529.39C363.454 1527.75 362.959 1526.13 362.466 1524.58C364.631 1525.02 366.936 1525.87 369.406 1527.09L370.05 1524.26C367.068 1522.81 364.234 1521.93 361.603 1521.57C361.018 1519.37 360.59 1517.37 360.374 1515.5L357.272 1515.66C357.629 1517.43 358.082 1519.35 358.689 1521.4C356.258 1521.5 354.006 1522.2 351.899 1523.43L350.235 1525.28L359.415 1533.54C358.257 1534.39 357.043 1535.31 355.749 1536.37L344.567 1526.31C346.538 1524.74 348.402 1523.35 350.217 1522.14L344.98 1517.42C347.938 1514.51 349.879 1512.91 350.778 1512.72C351.622 1512.58 352.488 1512.86 353.375 1513.55C353.868 1513.99 354.524 1514.75 355.371 1515.79L356.659 1512.94C355.55 1511.94 354.568 1511.11 353.797 1510.42C352.698 1509.59 351.512 1509.36 350.298 1509.72C348.856 1510.21 346.182 1512.37 342.22 1516.28L341.055 1517.57L345.953 1521.98C344.536 1522.94 343.039 1524.04 341.437 1525.39L340.522 1526.4L360.73 1544.59L362.588 1542.53L357.906 1538.31C361.082 1535.65 363.978 1533.8 366.532 1532.7C369.265 1531.64 372.293 1531.19 375.645 1531.31L375.879 1528.51C372.053 1528.3 368.528 1528.81 365.395 1530.06C364.249 1530.59 363.02 1531.21 361.683 1532.01L354.228 1525.3C355.836 1524.63 357.607 1524.27 359.545 1524.29C360.075 1525.99 360.694 1527.72 361.375 1529.5ZM353.172 1506.9L374.428 1526.03L380.722 1519.04L384.049 1522.03L385.852 1520.03L357.973 1494.94L356.17 1496.94L359.466 1499.9L353.172 1506.9ZM378.597 1517.12L374.133 1522.08L369.943 1518.31L374.407 1513.35L378.597 1517.12ZM372.282 1511.44L367.817 1516.4L363.566 1512.57L368.03 1507.61L372.282 1511.44ZM365.905 1505.7L361.441 1510.66L357.128 1506.78L361.592 1501.82L365.905 1505.7Z" fill="#1b2a38" fill-rule="nonzero" opacity="1" stroke="none"/>
</g>
<path d="M894.263 1684.72C613.909 1684.72 354.852 1535.16 214.676 1292.36" fill="none" opacity="0.98" stroke="#d97706" stroke-linecap="round" stroke-linejoin="miter" stroke-width="16.5787"/>
<path d="M214.676 1292.36L265.225 1330.18L222.152 1355.05L214.676 1292.36Z" fill="#d97706" fill-rule="nonzero" opacity="1" stroke="none"/>
<path d="M371.62 1111.1C316.924 975.682 316.924 824.318 371.62 688.898L207.63 622.584C135.727 800.539 135.727 999.461 207.63 1177.42L371.62 1111.1Z" fill="#d3b6ff" fill-rule="nonzero" opacity="0.72" stroke="#8b5cf6" stroke-linecap="butt" stroke-linejoin="miter" stroke-width="2.76311"/>
<g opacity="1">
<path d="M245.307 994.37L249.728 993.876L248.444 982.381L263.665 980.681L265.302 995.334L269.723 994.84L263.431 938.502L259.009 938.996L260.646 953.649L245.425 955.349L244.134 943.791L239.713 944.285L241.004 955.843L228.119 957.282L228.634 961.893L241.519 960.454L243.508 978.264L230.371 979.732L230.886 984.342L244.023 982.875L245.307 994.37ZM263.15 976.071L247.929 977.771L245.94 959.96L261.161 958.26L263.15 976.071ZM269.782 975.33C275.918 979.888 281.564 985.78 286.586 992.957L290.276 989.347C284.994 982.136 279.025 976.216 272.496 971.574L269.782 975.33ZM267.863 957L271.387 959.931C275.944 951.493 280.376 944.795 284.675 939.775L280.68 936.64C276.318 942.243 272.02 948.99 267.863 957Z" fill="#1b2a38" fill-rule="nonzero" opacity="1" stroke="none"/>
<path d="M225.805 918.632L244.997 918.534L245.022 923.428L230.977 923.499L230.999 927.884L245.044 927.813L245.063 931.499L249.511 931.476L249.375 904.658L244.927 904.68L244.974 914.086L237.603 914.123L237.559 905.48L233.237 905.502L233.281 914.145L225.782 914.183L225.805 918.632ZM254.731 907.999C267.263 910.477 275.564 918.125 279.568 930.879L283.686 928.252C279.169 914.802 269.786 906.715 255.6 903.991L254.731 907.999ZM255.077 926.173C260.23 927.291 264.37 929.049 267.496 931.321L270.402 927.938C267.212 925.54 262.627 923.656 256.645 922.161L255.077 926.173ZM251.925 918.626L268.511 918.542L268.489 914.157L251.902 914.241L251.925 918.626ZM228.271 903.748L232.593 903.726L232.53 891.27C234.946 891.448 237.235 891.691 239.524 892.061L239.572 901.403L269.758 901.25L269.736 896.865L243.807 896.996L243.724 880.536L269.653 880.405L269.63 875.957L239.444 876.11L239.5 887.294C237.211 886.988 234.922 886.746 232.506 886.567L232.441 873.857L228.12 873.879L228.271 903.748ZM269.988 883.962L272.927 886.998C276.845 882.466 280.576 878.888 284.058 876.265L280.673 872.914C277.129 875.919 273.589 879.623 269.988 883.962ZM247.591 891.13L258.839 891.073C264.305 891.173 268.696 892.294 272.138 894.374C275.327 896.582 277.953 900.509 280.015 906.155L283.942 903.593C281.815 897.63 278.87 893.387 275.107 890.8C271.027 888.152 265.617 886.717 258.817 886.625L247.568 886.682L247.591 891.13Z" fill="#1b2a38" fill-rule="nonzero" opacity="1" stroke="none"/>
<path d="M235.927 808.921L233.479 833.074L285.262 838.324L285.704 833.961L280.077 833.391L281.635 818.027L286.63 818.533L287.078 814.107L235.927 808.921ZM275.777 832.955L238.157 829.141L239.715 813.776L277.335 817.591L275.777 832.955ZM243.637 863.296L247.873 863.725L248.995 852.66L249.438 852.705C256.13 856.003 261.96 860.874 266.928 867.318L272.052 865.921C267.638 860.938 262.566 856.783 256.835 853.455L284.908 856.302L285.357 851.876L256.841 848.985C259.734 846.914 263.62 844.498 268.443 841.665L264.792 838.612C260.241 841.919 256.202 845.215 252.605 848.555L249.444 848.235L250.54 837.423L246.304 836.993L245.208 847.805L235.218 846.792C234.818 843.174 234.146 839.721 233.278 836.311L229.266 838.076C231.028 844.643 231.814 852.643 231.617 862.141L235.811 861.097C235.892 857.783 235.839 854.52 235.654 851.308L244.759 852.231L243.637 863.296Z" fill="#1b2a38" fill-rule="nonzero" opacity="1" stroke="none"/>
</g>
<g opacity="1">
<path d="M90.6342 1054.31C93.7941 1049.73 96.8854 1045.87 99.924 1042.83L97.2584 1041.07C93.9567 1044.71 90.7006 1049.02 87.5386 1054.03C86.1327 1053.97 84.6206 1054.01 83.0351 1054.11L80.767 1042.47L103.467 1038.05C104.769 1037.79 105.587 1038.31 105.841 1039.61L106.892 1045.87L109.662 1044.48L108.417 1038.1C107.909 1035.49 106.265 1034.42 103.539 1034.95L77.3405 1040.06L80.124 1054.34C78.0582 1054.57 75.797 1054.88 73.3968 1055.35L73.9757 1058.32C76.3352 1057.86 78.5964 1057.55 80.7108 1057.35L83.6133 1072.24L114.327 1066.25L113.748 1063.28L85.882 1068.71L83.6219 1057.12C85.5487 1057.04 87.3287 1057.07 89.0025 1057.21C93.8036 1057.79 98.1331 1060.07 102.032 1064.04L104.051 1061.62C100.039 1057.51 95.5969 1055.08 90.6342 1054.31Z" fill="#1b2a38" fill-rule="nonzero" opacity="1" stroke="none"/>
<path d="M66.925 1016.3C73.3182 1020.33 78.9371 1025.68 83.8345 1032.43L86.4437 1030.47C81.3001 1023.75 75.6577 1018.53 69.4402 1014.85C74.6592 1009.17 78.6301 1002.66 81.347 995.278L78.2878 994.081C75.8113 1001.38 71.9106 1008.09 66.6211 1014.16L66.925 1016.3ZM86.0169 999.26L89.7107 1025.19L106.247 1022.84L105.838 1019.96L103.376 1020.32L100.5 1000.13L102.962 999.777L102.553 996.905L86.0169 999.26ZM100.544 1020.72L92.0918 1021.92L89.2162 1001.73L97.6689 1000.53L100.544 1020.72ZM81.341 1024.04L84.1723 1023.64L81.1331 1002.3L78.3018 1002.7L81.341 1024.04Z" fill="#1b2a38" fill-rule="nonzero" opacity="1" stroke="none"/>
<path d="M60.8229 962.637L62.8113 964.371C64.2302 962.12 65.6077 960.33 66.9814 958.957L67.6814 966.676C65.7076 966.938 63.6062 967.171 61.2947 967.38L61.5717 970.435C63.8007 970.233 65.9021 970 67.9585 969.731L69.5046 986.778L83.2499 985.532C89.9893 985.045 95.3551 985.932 99.3922 988.229L101.209 985.776C96.4739 983.125 90.3802 982.013 82.9766 982.518L81.7383 982.631L81.0907 975.49C85.6386 975.16 88.6218 975.015 90.0477 975.135C91.2259 975.278 91.8975 975.8 92.0211 976.704C92.1222 977.819 92.2045 979.184 92.2679 980.802L94.8686 979.65C94.8314 978.322 94.8053 977.117 94.7155 976.127C94.4458 974.07 93.4216 972.873 91.598 972.497C89.5268 972.144 84.9976 972.222 78.0143 972.772L78.9314 982.885L72.0794 983.507L70.7954 969.349C75.9251 968.55 80.2068 967.579 83.5917 966.357C85.3254 965.742 86.9279 965.055 88.4027 964.339C92.2521 966.862 95.2946 970.123 97.5265 974.082L99.8534 972.207C97.7678 968.484 94.9429 965.327 91.2961 962.745C92.5196 962.01 93.6117 961.203 94.535 960.37C96.8319 958.164 97.9018 956.195 97.7445 954.461C97.5761 952.604 94.6832 951.451 89.1035 950.958L87.8609 953.776C92.1686 954.01 94.3786 954.517 94.4873 955.256C94.5622 956.081 93.6726 957.286 91.8148 958.828C90.9253 959.574 89.8257 960.298 88.5573 960.996C84.6027 958.691 79.785 956.964 74.1867 955.807L73.2742 958.595C77.8069 959.474 81.8368 960.773 85.3261 962.537C84.4442 962.909 83.5211 963.284 82.5116 963.625C79.607 964.637 75.6105 965.541 70.5183 966.294L69.3653 953.581L66.5172 953.839L66.9739 958.875L64.9029 957.148C63.5029 958.69 62.1292 960.521 60.8229 962.637Z" fill="#1b2a38" fill-rule="nonzero" opacity="1" stroke="none"/>
<path d="M76.9627 947.934L79.9445 947.816L78.4762 910.584L75.4944 910.702L76.9627 947.934Z" fill="#1b2a38" fill-rule="nonzero" opacity="1" stroke="none"/>
<path d="M77.5154 884.668C78.8106 884.68 79.8792 885.111 80.7215 885.962C81.5637 886.813 81.9788 887.886 81.9669 889.181C81.9551 890.476 81.5203 891.542 80.6626 892.377C79.8049 893.212 78.7285 893.624 77.4333 893.612C76.1382 893.6 75.0763 893.169 74.2475 892.318C73.4188 891.467 73.0104 890.394 73.0223 889.099C73.0342 887.804 73.4622 886.739 74.3064 885.903C75.1506 885.068 76.2203 884.656 77.5154 884.668Z" fill="#1b2a38" fill-rule="nonzero" opacity="1" stroke="none"/>
<path d="M98.376 837.404C98.5155 835.004 97.2197 833.725 94.5303 833.569L62.4218 831.703L60.4935 864.887L96.781 866.996L96.9541 864.017L63.563 862.077L65.1451 834.851L93.6951 836.51C94.9364 836.582 95.5258 837.156 95.4657 838.19L95.029 843.562L98.0562 842.907L98.376 837.404ZM68.4969 859.333L71.2691 859.494L72.5025 838.267L69.7303 838.106L68.4969 859.333ZM75.8725 857.436L89.1958 858.21L90.16 841.618L76.8366 840.844L75.8725 857.436ZM87.3435 844.361L86.716 855.16L78.7303 854.696L79.3578 843.897L87.3435 844.361Z" fill="#1b2a38" fill-rule="nonzero" opacity="1" stroke="none"/>
<path d="M62.28 815.92L74.7225 817.282L74.3752 820.454L65.2699 819.457L64.9587 822.3L74.064 823.297L73.8024 825.687L76.6864 826.003L78.5898 808.616L75.7058 808.3L75.0382 814.398L70.259 813.875L70.8724 808.271L68.0708 807.965L67.4574 813.568L62.5957 813.036L62.28 815.92ZM81.8116 811.178C89.7477 813.715 94.558 819.287 96.2058 827.848L99.0688 826.452C97.141 817.401 91.6618 811.465 82.6726 808.646L81.8116 811.178ZM80.6864 822.98C83.9425 824.087 86.4942 825.534 88.3506 827.238L90.4849 825.262C88.5963 823.471 85.7652 821.91 82.0006 820.497L80.6864 822.98ZM79.2043 817.856L89.9577 819.033L90.2689 816.19L79.5156 815.013L79.2043 817.856ZM64.9834 806.459L67.7851 806.766L68.6692 798.691C70.2212 798.986 71.6864 799.313 73.1426 799.722L72.4795 805.779L92.0498 807.921L92.361 805.079L75.5512 803.238L76.7194 792.567L93.5292 794.408L93.845 791.524L74.2747 789.381L73.4809 796.632C72.0202 796.264 70.555 795.937 69.0029 795.642L69.905 787.402L67.1034 787.095L64.9834 806.459ZM93.4826 796.737L95.1613 798.922C98.036 796.277 100.719 794.236 103.17 792.795L101.226 790.372C98.7066 792.056 96.1378 794.193 93.4826 796.737ZM78.4382 799.718L85.7307 800.517C89.2649 800.987 92.0265 802.04 94.1025 803.643C96.0047 805.311 97.4142 808.05 98.3312 811.861L101.066 810.493C100.13 806.471 98.5374 803.503 96.2915 801.548C93.8441 799.529 90.4458 798.198 86.0464 797.633L78.7539 796.834L78.4382 799.718Z" fill="#1b2a38" fill-rule="nonzero" opacity="1" stroke="none"/>
<path d="M74.8501 780.654L77.7143 781.117L78.9164 773.67L88.7774 775.262L87.2451 784.754L90.1092 785.217L96.0009 748.719L93.1368 748.256L91.6044 757.749L81.7434 756.157L82.9521 748.67L80.0879 748.207L78.8792 755.695L70.5321 754.348L70.05 757.335L78.397 758.682L76.5344 770.221L68.0237 768.847L67.5415 771.834L76.0522 773.207L74.8501 780.654ZM89.2596 772.275L79.3986 770.683L81.2612 759.144L91.1222 760.736L89.2596 772.275ZM93.5559 772.968C96.615 776.905 99.1328 781.593 101.034 786.98L103.983 785.357C101.925 779.903 99.2089 775.14 95.9175 771.082L93.5559 772.968ZM95.5532 761.116L97.2556 763.573C101.593 759.068 105.548 755.634 109.127 753.231L107.165 750.563C103.445 753.321 99.565 756.809 95.5532 761.116Z" fill="#1b2a38" fill-rule="nonzero" opacity="1" stroke="none"/>
<path d="M110.823 742.677C111.31 740.408 110.427 738.989 108.157 738.503L96.2018 735.942C95.8341 734.294 95.4172 732.679 94.951 731.096L92.1142 730.488C92.6121 732.121 93.0696 733.745 93.4459 735.351L85.0974 733.562L86.0177 729.267L83.2214 728.667L82.301 732.963L74.8846 731.374L74.2768 734.211L81.6932 735.8L80.6426 740.704L83.439 741.303L84.4896 736.399L94.0134 738.44C94.3204 740.371 94.4883 742.356 94.5753 744.325L97.4874 744.186C97.3078 742.452 97.0791 740.75 96.8098 739.039L106.82 741.183C107.874 741.409 108.288 742.049 108.062 743.103C107.854 744.075 107.547 745.112 107.191 746.18L110.077 746.162L110.823 742.677ZM95.1361 726.473L95.7439 723.636L109.402 726.562C110.293 726.753 110.846 727.338 111.069 728.276L113.715 727.995C113.61 724.327 113.306 720.998 112.753 718.04L110.183 718.167C110.507 720.017 110.756 722.02 110.907 724.087L96.317 720.961L97.0376 717.597C104.411 718.796 111.15 717.018 117.335 712.282L115.784 709.83C112.849 712.253 109.745 713.877 106.515 714.711C105.84 712.32 104.717 710.045 103.055 707.908L100.783 709.414C102.358 711.362 103.47 713.295 104.118 715.215C102.017 715.527 99.8136 715.522 97.5586 715.166L99.1909 707.547L96.4756 706.965L92.4469 725.769C92.1632 725.709 91.8882 725.607 91.6045 725.547L81.108 723.298L85.0412 704.939L82.3259 704.357L77.7936 725.512L91.0054 728.343C99.5624 730.346 105.96 733.327 110.14 737.359L112.554 735.588C108.397 731.645 102.561 728.615 95.1361 726.473ZM85.9132 722.038L88.588 722.611L91.7138 708.022L89.039 707.449L85.9132 722.038Z" fill="#1b2a38" fill-rule="nonzero" opacity="1" stroke="none"/>
</g>
<path d="M214.676 1292.36C74.4984 1049.57 74.4984 750.433 214.676 507.638" fill="none" opacity="0.98" stroke="#8b5cf6" stroke-linecap="round" stroke-linejoin="miter" stroke-width="16.5787"/>
<path d="M212.658 504.341L205.182 567.027L162.109 542.159L212.658 504.341Z" fill="#8b5cf6" fill-rule="nonzero" opacity="1" stroke="none"/>
<path d="M450.093 552.953C540.036 437.861 671.144 362.178 815.791 341.852L791.199 166.67C601.131 193.377 428.858 292.838 310.694 444.087L450.093 552.953Z" fill="#9ab0ff" fill-rule="nonzero" opacity="0.72" stroke="#1e3a8a" stroke-linecap="butt" stroke-linejoin="miter" stroke-width="2.76311"/>
<g opacity="1">
<path d="M496.192 385.5L499.126 388.844L512.836 376.814L515.644 380.015C518.195 383.018 520.477 386.004 522.358 388.919L506.069 403.212L508.961 406.508L524.677 392.718C526.697 396.273 528.226 399.75 529.175 403.145C530.871 410.281 529.728 418.132 525.734 426.878L530.328 428.258C534.453 419.566 535.667 411.314 534.102 403.556C533.044 399.074 531.094 394.443 528.212 389.617L532.081 386.222L547.338 403.61C550.188 406.858 553.142 407.141 556.295 404.375L564.034 397.585C566.04 395.824 567.096 394.137 567.249 392.481C567.378 390.508 565.622 387.06 561.896 382.044L557.726 383.843C560.756 387.779 562.254 390.353 562.256 391.704C562.275 392.786 561.709 393.875 560.563 394.881L554.496 400.204C552.967 401.546 551.49 401.404 550.149 399.876L535.521 383.204L550.329 370.21L547.437 366.914L525.845 385.86C523.916 382.987 521.634 380 519.131 376.955L516.323 373.754L533.425 358.749L530.491 355.405L496.192 385.5Z" fill="#1b2a38" fill-rule="nonzero" opacity="1" stroke="none"/>
<path d="M582.707 349.035C580.494 352.073 577.985 355.242 575.231 358.505L568.64 349.155L581.418 340.147C584.616 343.802 587.604 346.827 590.418 349.275C592.366 350.935 594.292 352.454 596.16 353.781C594.895 360.038 592.421 365.903 588.649 371.362L592.945 373.154C596.353 367.952 598.782 362.352 600.178 356.391C602.327 357.676 604.486 358.642 606.513 359.312C611.1 360.744 614.432 360.728 616.561 359.227C618.951 357.542 618.169 352.573 614.216 344.318L609.735 344.911C613.005 351.314 614.173 354.846 613.171 355.63C612.184 356.326 609.918 355.979 606.498 354.658C604.825 354.049 603.036 353.055 601.063 351.802C601.883 346.015 601.758 339.882 600.705 333.315L596.277 333.871C597.116 339.033 597.3 344.036 596.93 348.806C595.761 347.92 594.555 346.981 593.291 345.851C590.874 343.745 588.209 340.958 585.209 337.474L600.948 326.379L598.421 322.795L582.371 334.11C579.203 330.278 575.789 325.765 572.039 320.556L568.299 323.192C571.887 328.282 575.302 332.795 578.579 336.783L566.113 345.571L560.621 337.78C562.809 335.148 564.857 332.538 566.66 330.023L562.924 327.37C558.785 333.631 553.302 339.751 546.512 345.782L549.818 348.816C552.485 346.314 555.013 343.832 557.363 341.32L562.27 348.281L551.569 355.824L554.096 359.408L564.796 351.865L572.01 362.097C569.146 365.205 566.001 368.354 562.649 371.651L565.841 375.076C568.971 372.015 571.871 368.96 574.683 365.889L581.64 375.758C582.628 377.161 582.414 378.4 580.959 379.426C579.245 380.634 577.406 381.775 575.478 382.901L578.784 385.936L584.55 381.871C587.718 379.638 588.266 376.996 586.143 373.983L577.904 362.296C580.606 359.07 583.063 355.938 585.38 352.827L582.707 349.035ZM578.155 317.099L577.346 321.246C583.234 321.216 588.13 321.653 592.1 322.431L592.897 317.826C588.542 317.164 583.652 316.956 578.155 317.099Z" fill="#1b2a38" fill-rule="nonzero" opacity="1" stroke="none"/>
<path d="M647.799 280.058L626.587 291.866L651.901 337.344L655.733 335.211L652.982 330.269L666.475 322.758L668.917 327.145L672.804 324.981L647.799 280.058ZM650.88 326.493L632.489 293.453L645.983 285.942L664.374 318.982L650.88 326.493ZM607.608 317.486L609.679 321.206L619.397 315.797L619.613 316.186C620.737 323.561 620.076 331.129 617.632 338.89L621.709 342.294C623.271 335.824 623.778 329.287 623.23 322.682L636.953 347.337L640.84 345.173L626.9 320.13C630.253 321.319 634.458 323.124 639.54 325.459L639.956 320.718C634.64 318.877 629.626 317.449 624.829 316.41L623.284 313.633L632.779 308.348L630.708 304.627L621.213 309.913L616.329 301.139C619.068 298.742 621.516 296.215 623.817 293.553L620.074 291.272C615.696 296.473 609.583 301.694 601.68 306.966L604.935 309.809C607.699 307.98 610.346 306.07 612.875 304.08L617.326 312.076L607.608 317.486Z" fill="#1b2a38" fill-rule="nonzero" opacity="1" stroke="none"/>
</g>
<g opacity="1">
<path d="M310.694 305.762L312.731 307.827L321.2 299.474L323.15 301.451C324.925 303.31 326.524 305.167 327.86 306.994L317.798 316.918L319.806 318.955L329.514 309.379C330.964 311.616 332.092 313.822 332.839 315.996C334.214 320.578 333.768 325.733 331.501 331.579L334.544 332.303C336.899 326.487 337.376 321.068 336.062 316.077C335.203 313.199 333.758 310.258 331.698 307.225L334.088 304.868L344.682 315.609C346.661 317.615 348.595 317.687 350.542 315.766L355.323 311.051C356.562 309.829 357.185 308.69 357.222 307.606C357.231 306.316 355.956 304.139 353.34 301.014L350.693 302.344C352.816 304.791 353.889 306.411 353.942 307.29C353.996 307.994 353.668 308.724 352.96 309.423L349.212 313.119C348.268 314.051 347.301 314.015 346.37 313.07L336.212 302.772L345.36 293.75L343.352 291.714L330.014 304.869C328.649 303.072 327.05 301.214 325.304 299.327L323.354 297.35L333.918 286.93L331.881 284.865L310.694 305.762Z" fill="#1b2a38" fill-rule="nonzero" opacity="1" stroke="none"/>
<path d="M352.611 262.999L356.994 267.921L351.112 273.158L353.014 275.294L358.864 270.085C364.46 276.867 366.593 283.626 365.177 290.325L368.23 290.326C369.625 282.979 367.236 275.561 361.124 268.073L367.872 262.064C373.264 268.307 376.376 272.362 377.21 274.172C378.038 276.099 377.523 277.889 375.693 279.574C375.105 280.097 374.307 280.697 373.354 281.434L375.817 283.016C376.708 282.333 377.447 281.73 378.066 281.179C380.264 279.222 381.04 276.977 380.449 274.507C379.828 272.063 375.744 266.542 368.199 257.944L359.253 265.909L354.871 260.987L352.611 262.999ZM339.962 275.095L339.71 277.928C343.509 277.708 346.704 277.805 349.351 278.223L349.5 275.149C346.67 274.838 343.5 274.83 339.962 275.095ZM383.119 285.67L389.651 279.854L388.196 277.099C387.508 277.822 386.452 278.818 385.087 280.089C383.663 281.357 382.328 282.6 380.966 283.813C378.428 286.073 376.265 287.944 374.535 289.429C372.56 291.076 370.882 292.182 369.533 292.662C368.249 293.028 366.835 293.122 365.258 292.972C364.704 292.91 364.232 292.942 363.819 292.976L353.456 281.338L346.863 287.208L348.792 289.375L353.25 285.406L361.573 294.754C360.769 296.469 360.748 299.374 361.419 303.494L364.441 303.522C363.584 299.069 363.585 296.515 364.328 295.853C364.73 295.495 365.384 295.357 366.286 295.497C368.269 295.73 370.103 295.484 371.734 294.698C373.306 293.908 375.174 292.578 377.307 290.735C379.408 288.919 381.355 287.241 383.119 285.67Z" fill="#1b2a38" fill-rule="nonzero" opacity="1" stroke="none"/>
<path d="M373.423 247.83L375.239 250.093L384.515 242.646L386.253 244.811C387.829 246.841 389.231 248.852 390.374 250.805L379.352 259.653L381.143 261.883L391.776 253.346C392.991 255.72 393.888 258.029 394.409 260.268C395.311 264.965 394.342 270.048 391.49 275.633L394.444 276.663C397.38 271.118 398.406 265.776 397.608 260.677C397.046 257.726 395.908 254.653 394.168 251.426L396.786 249.324L406.23 261.089C407.995 263.287 409.911 263.555 412.044 261.843L417.28 257.64C418.638 256.55 419.374 255.48 419.521 254.406C419.661 253.124 418.615 250.828 416.331 247.453L413.562 248.506C415.424 251.157 416.327 252.877 416.29 253.757C416.271 254.463 415.871 255.156 415.096 255.779L410.991 259.074C409.957 259.905 408.998 259.77 408.168 258.736L399.113 247.456L409.132 239.413L407.342 237.183L392.733 248.911C391.558 246.984 390.157 244.973 388.612 242.917L386.874 240.752L398.445 231.463L396.628 229.201L373.423 247.83Z" fill="#1b2a38" fill-rule="nonzero" opacity="1" stroke="none"/>
<path d="M428.839 226.064C430.907 230.91 432.171 235.774 432.562 240.706L435.5 240.527C435.041 235.644 433.685 230.438 431.397 224.933L428.839 226.064ZM440.217 217.183L438.61 219.417C442.617 221.993 446.879 225.204 451.418 229.084L452.865 226.556C448.684 223.032 444.437 219.912 440.217 217.183ZM444.205 238.28C446.154 236.873 446.434 235.137 444.978 233.121L434.01 217.933L442.243 211.988L440.544 209.636L421.559 223.345L423.258 225.697L431.591 219.68L442.122 234.263C442.85 235.271 442.743 236.115 441.87 236.746C440.895 237.449 439.839 238.11 438.758 238.737L440.878 240.682L444.205 238.28ZM417.786 213.801L419.46 216.119L434.648 205.152L432.974 202.833L417.786 213.801ZM405.017 222.101L426.273 251.536L428.625 249.838L409.019 222.687L414.395 218.805C415.536 222.225 416.583 226.223 417.56 230.834C421.682 232.152 424.543 233.92 426.193 236.205C426.752 236.978 426.938 237.661 426.787 238.23C426.694 238.809 426.1 239.545 425.073 240.388C424.737 240.631 424.252 240.879 423.699 241.176L426.171 242.97C428.33 241.359 429.585 239.84 429.876 238.402C430.029 237.269 429.613 235.985 428.546 234.507C426.688 232.218 423.73 230.316 419.679 228.742C418.703 224.488 417.656 220.489 416.481 216.737L415.098 214.822L405.017 222.101Z" fill="#1b2a38" fill-rule="nonzero" opacity="1" stroke="none"/>
<path d="M465.884 200.922C466.59 202.008 466.822 203.137 466.578 204.309C466.335 205.482 465.671 206.421 464.585 207.127C463.499 207.834 462.371 208.061 461.201 207.808C460.031 207.556 459.092 206.886 458.386 205.801C457.68 204.715 457.452 203.592 457.702 202.431C457.953 201.27 458.621 200.336 459.707 199.63C460.792 198.923 461.917 198.691 463.08 198.932C464.243 199.173 465.177 199.837 465.884 200.922Z" fill="#1b2a38" fill-rule="nonzero" opacity="1" stroke="none"/>
<path d="M474.481 175.628L475.942 178.135L486.218 172.142L487.617 174.541C488.875 176.782 489.964 178.978 490.805 181.078L478.596 188.198L480.037 190.668L491.816 183.799C492.666 186.326 493.212 188.743 493.397 191.034C493.593 195.813 491.883 200.697 488.237 205.798L491.005 207.254C494.729 202.204 496.534 197.073 496.499 191.911C496.38 188.91 495.709 185.703 494.466 182.254L497.366 180.563L504.966 193.595C506.386 196.03 508.241 196.579 510.604 195.201L516.404 191.818C517.908 190.941 518.794 189.993 519.099 188.952C519.427 187.705 518.732 185.279 516.972 181.603L514.079 182.235C515.528 185.132 516.166 186.967 515.999 187.832C515.877 188.528 515.378 189.154 514.519 189.655L509.972 192.307C508.826 192.975 507.899 192.7 507.231 191.555L499.944 179.059L511.043 172.587L509.602 170.116L493.419 179.554C492.542 177.474 491.453 175.278 490.23 173.017L488.831 170.618L501.649 163.143L500.187 160.637L474.481 175.628Z" fill="#1b2a38" fill-rule="nonzero" opacity="1" stroke="none"/>
<path d="M514.459 150.305C517.032 158.353 517.72 165.462 516.449 171.671L519.414 172.985C519.815 171.051 520.083 168.953 520.146 166.728C522.798 169.603 525.331 171.886 527.745 173.578C527.149 177.571 525.735 181.335 523.52 184.812L526.25 186.574C528.391 183.135 529.825 179.408 530.623 175.356C532.079 176.097 533.513 176.616 534.944 176.856C539.625 177.609 545.778 176.063 553.363 172.143L557.413 170.05L556.502 167.022C554.57 168.16 552.694 169.223 550.779 170.213C544.518 173.355 539.42 174.683 535.501 174.142C534.09 173.939 532.636 173.383 531.049 172.477C531.602 166.687 530.683 160.303 528.347 153.346L527.129 150.989L518.881 155.252C518.448 153.329 517.922 151.409 517.302 149.396L514.459 150.305ZM520.037 162.725C519.907 161.3 519.72 159.763 519.458 158.173L525.828 154.881C527.57 160.419 528.307 165.637 528.056 170.478C525.603 168.62 522.955 166.023 520.037 162.725ZM529.228 142.953L543.403 170.385L546.091 168.996L538.176 153.679C541.15 154.288 544.928 155.368 549.47 156.846L549.836 153.672C545.241 152.454 540.891 151.529 536.749 150.917L531.916 141.564L529.228 142.953Z" fill="#1b2a38" fill-rule="nonzero" opacity="1" stroke="none"/>
<path d="M547.389 135.976L548.605 138.656L565.363 131.053C565.227 139.58 561.969 148.249 555.665 157.026L558.518 158.599C562.697 152.561 565.558 146.53 567.102 140.504L576.881 162.055L579.674 160.788L568.08 135.236C568.297 133.408 568.405 131.538 568.382 129.683L580.687 124.1L579.471 121.42L547.389 135.976ZM574.189 136.06L573.065 138.8C579.327 140.464 584.506 142.347 588.655 144.47L589.772 141.414C585.269 139.315 580.088 137.525 574.189 136.06Z" fill="#1b2a38" fill-rule="nonzero" opacity="1" stroke="none"/>
<path d="M603.601 130.158L604.664 132.857L613.496 129.382L617.685 140.026L607.272 144.124L608.35 146.863L632.531 137.346L631.454 134.607L620.5 138.918L616.311 128.273L625.529 124.646L624.466 121.946L615.249 125.574L612.425 118.4L609.61 119.508L612.433 126.682L603.601 130.158ZM598.06 134.298L604.283 150.111L607.021 149.033L599.553 130.058C600.604 126.616 601.293 123.049 601.598 119.41L622.232 111.289L621.154 108.551L601.755 116.186C601.796 114.254 601.692 112.291 601.534 110.305L598.504 111.096C598.708 113.198 598.743 115.323 598.669 117.4L587.446 121.817L588.524 124.555L598.436 120.655C597.755 126.847 595.805 132.87 592.547 138.74L595.179 140.332C596.267 138.345 597.21 136.326 598.06 134.298Z" fill="#1b2a38" fill-rule="nonzero" opacity="1" stroke="none"/>
</g>
<path d="M214.676 507.638C354.852 264.845 613.909 115.278 894.263 115.276" fill="none" opacity="0.98" stroke="#1e3a8a" stroke-linecap="round" stroke-linejoin="miter" stroke-width="16.5787"/>
<path d="M894.263 115.276L836.238 140.144L836.238 90.4085L894.263 115.276Z" fill="#1e3a8a" fill-rule="nonzero" opacity="1" stroke="none"/>
</g>
</g>
</svg>
