<?xml version="1.0" encoding="UTF-8" standalone="no"?>
<!DOCTYPE svg PUBLIC "-//W3C//DTD SVG 1.1//EN" "http://www.w3.org/Graphics/SVG/1.1/DTD/svg11.dtd">
<!-- Created with Vectornator (http://vectornator.io/) -->
<svg height="1024.0pt" stroke-miterlimit="10" style="fill-rule:nonzero;clip-rule:evenodd;stroke-linecap:round;stroke-linejoin:round;" version="1.1" viewBox="0 0 1024 1024" width="1024.0pt" xml:space="preserve" xmlns="http://www.w3.org/2000/svg" xmlns:xlink="http://www.w3.org/1999/xlink">
<defs>
<linearGradient gradientTransform="matrix(260.989 -289.171 289.171 260.989 420.103 670.064)" gradientUnits="userSpaceOnUse" id="LinearGradient" x1="0" x2="1" y1="0" y2="0">
<stop offset="0" stop-color="#0473bb"/>
<stop offset="1" stop-color="#00a651"/>
</linearGradient>
</defs>
<g id="图层-1">
<path d="M496 173.5C490 175.833 482 180.333 472 187C462 193.667 446.167 203.167 424.5 215.5C402.833 227.833 389 236.667 383 242C377 247.333 373.167 252.333 371.5 257C369.833 261.667 369 283.333 369 322C369 360.667 368.5 381.333 367.5 384C366.5 386.667 365 389.167 363 391.5C361 393.833 358.833 395.5 356.5 396.5C355.333 397 354.167 397.5 353 398C353 382.333 353 366.667 353 351C353 319.667 352.167 302.333 350.5 299C348.833 295.667 346.833 292.833 344.5 290.5C342.167 288.167 338.5 285.833 333.5 283.5C328.5 281.167 322.5 280.333 315.5 281C308.5 281.667 290.833 290.333 262.5 307C234.167 323.667 216.667 334.833 210 340.5C203.333 346.167 198.833 351.667 196.5 357C194.167 362.333 193 384.833 193 424.5C193 464.167 193.5 485.5 194.5 488.5C195.5 491.5 197.667 494.833 201 498.5C204.333 502.167 209.167 505 215.5 507C221.833 509 228.667 509.333 236 508C243.333 506.667 258.5 498.833 281.5 484.5C304.5 470.167 316.333 463 317 463C317.667 463 318.167 469 318.5 481C318.833 493 319.667 499.333 321 500C322.333 500.667 327.167 501 335.5 501C343.833 501 348.833 500.5 350.5 499.5C352.167 498.5 353 488.167 353 468.5C353 448.833 358.5 435.833 369.5 429.5C380.5 423.167 387.5 418.333 390.5 415C393.5 411.667 396 407.833 398 403.5C400 399.167 401.5 394.667 402.5 390C403.5 385.333 404 368.333 404 339C404 324.333 404 309.667 404 295C405 295.333 406 295.667 407 296C409 296.667 411.333 298.333 414 301C416.667 303.667 418 323.5 418 360.5C418 397.5 417 418.167 415 422.5C413 426.833 410.167 430.833 406.5 434.5C402.833 438.167 398.833 441.333 394.5 444C390.167 446.667 386.167 450 382.5 454C378.833 458 376.167 461.833 374.5 465.5C372.833 469.167 371.5 474.167 370.5 480.5C369.5 486.833 369 497.5 369 512.5C369 527.5 369.833 539.167 371.5 547.5C373.167 555.833 376.333 563 381 569C385.667 575 391.667 580.667 399 586C406.333 591.333 411.333 596.5 414 601.5C416.667 606.5 418.167 626.833 418.5 662.5C418.833 698.167 418.5 717.167 417.5 719.5C416.5 721.833 414 724.167 410 726.5C408 727.667 406 728.833 404 730C404 715.333 404 700.667 404 686C404 656.667 403.333 639.333 402 634C400.667 628.667 399.167 624.333 397.5 621C395.833 617.667 393.167 614 389.5 610C385.833 606 378.833 601 368.5 595C358.167 589 353 575.667 353 555C353 534.333 352.667 523.667 352 523C351.333 522.333 346 522 336 522C326 522 320.667 522.333 320 523C319.333 523.667 319 530.833 319 544.5C319 551.333 319 558.167 319 565C306.333 557.333 293.667 549.667 281 542C255.667 526.667 239.167 518.667 231.5 518C223.833 517.333 217.667 518 213 520C208.333 522 204.5 524.667 201.5 528C198.5 531.333 196.333 534.667 195 538C193.667 541.333 193 562.333 193 601C193 639.667 194.5 662.333 197.5 669C200.5 675.667 204.333 681 209 685C213.667 689 230.667 699.667 260 717C289.333 734.333 307.833 743.333 315.5 744C323.167 744.667 329.5 743.833 334.5 741.5C339.5 739.167 343 736.833 345 734.5C347 732.167 348.833 729 350.5 725C352.167 721 353 703.5 353 672.5C353 657 353 641.5 353 626C353.333 626 353.667 626 354 626C354.667 626 356.333 627 359 629C361.667 631 364 634.5 366 639.5C368 644.5 369 666.167 369 704.5C369 742.833 370.167 764.833 372.5 770.5C374.833 776.167 378.833 781.333 384.5 786C390.167 790.667 408 802 438 820C468 838 486 848.333 492 851C498 853.667 504.5 855.167 511.5 855.5C518.5 855.833 526 854.333 534 851C542 847.667 560.667 837.167 590 819.5C619.333 801.833 637.167 790.167 643.5 784.5C649.833 778.833 653.833 773.667 655.5 769C657.167 764.333 658 742.833 658 704.5C658 666.167 658.667 645 660 641C661.333 637 663.667 633.5 667 630.5C668.667 629 670.333 627.5 672 626C672.333 642 672.667 658 673 674C673.667 706 675.5 724.333 678.5 729C681.5 733.667 686.333 737.667 693 741C699.667 744.333 705.5 745.833 710.5 745.5C715.5 745.167 720.333 744 725 742C729.667 740 745.667 730.667 773 714C800.333 697.333 816.5 686.333 821.5 681C826.5 675.667 829.833 670.333 831.5 665C833.167 659.667 834 638.5 834 601.5C834 564.5 833.333 543.833 832 539.5C830.667 535.167 828.333 531.167 825 527.5C821.667 523.833 817 521 811 519C805 517 799 516.5 793 517.5C787 518.5 771.667 526.5 747 541.5C734.667 549 722.333 556.5 710 564C709.667 557.167 709.333 550.333 709 543.5C708.333 529.833 702.833 522.833 692.5 522.5C682.167 522.167 676.5 522.5 675.5 523.5C674.5 524.5 674 535.167 674 555.5C674 575.833 668.333 589.5 657 596.5C645.667 603.5 637.833 610.167 633.5 616.5C629.167 622.833 626.333 628.333 625 633C623.667 637.667 623 655 623 685C623 700 623 715 623 730C621.5 729.333 620 728.667 618.5 728C615.5 726.667 613.167 725 611.5 723C609.833 721 609 701.5 609 664.5C609 627.5 610.333 606.5 613 601.5C615.667 596.5 621.333 590.833 630 584.5C638.667 578.167 644 573.833 646 571.5C648 569.167 650.333 565 653 559C655.667 553 657.333 547.333 658 542C658.667 536.667 658.833 524.833 658.5 506.5C658.167 488.167 657.5 477.167 656.5 473.5C655.5 469.833 654 466.167 652 462.5C650 458.833 647.333 455.333 644 452C640.667 448.667 637.167 446 633.5 444C629.833 442 626 439.167 622 435.5C618 431.833 614.833 427.667 612.5 423C610.167 418.333 608.833 398.333 608.5 363C608.167 327.667 608.333 309 609 307C609.667 305 610.667 303.167 612 301.5C613.333 299.833 615.5 298.167 618.5 296.5C620 295.667 621.5 294.833 623 294C623 308.667 623 323.333 623 338C623 367.333 624 385.5 626 392.5C628 399.5 631.167 405.833 635.5 411.5C639.833 417.167 647.333 423.167 658 429.5C668.667 435.833 674 448.5 674 467.5C674 486.5 674.5 496.667 675.5 498C676.5 499.333 680.333 500.167 687 500.5C693.667 500.833 698.833 500.667 702.5 500C706.167 499.333 708.167 493 708.5 481C708.833 469 709.333 463 710 463C710.667 463 723 470.333 747 485C771 499.667 785.833 507.5 791.5 508.5C797.167 509.5 801.333 509.833 804 509.5C806.667 509.167 810.167 508 814.5 506C818.833 504 822.333 501.667 825 499C827.667 496.333 829.833 493 831.5 489C833.167 485 834 463.5 834 424.5C834 385.5 833 363.5 831 358.5C829 353.5 826 348.833 822 344.5C818 340.167 802.333 329.667 775 313C747.667 296.333 731.667 286.833 727 284.5C722.333 282.167 717.5 280.667 712.5 280C707.5 279.333 703.5 279.333 700.5 280C697.5 280.667 693.667 282.5 689 285.5C684.333 288.5 680.667 292.333 678 297C675.333 301.667 673.833 319.667 673.5 351C673.333 366.667 673.167 382.333 673 398C671.333 396.667 669.667 395.333 668 394C664.667 391.333 662.167 387.667 660.5 383C658.833 378.333 658 356.833 658 318.5C658 280.167 657 258.833 655 254.5C653 250.167 649.167 245.5 643.5 240.5C637.833 235.5 619.167 223.667 587.5 205C555.833 186.333 537.667 176 533 174C528.333 172 522.5 170.833 515.5 170.5C508.5 170.167 502 171.167 496 173.5ZM513.5 209C517.167 209 521.5 210.167 526.5 212.5C531.5 214.833 546.5 223.5 571.5 238.5C596.5 253.5 609 261.333 609 262C609 262.667 605.167 265 597.5 269C589.833 273 584 277.5 580 282.5C576 287.5 573.833 300.167 573.5 320.5C573.167 340.833 553.333 351.167 514 351.5C494.333 351.667 474.667 351.833 455 352C455 343.333 455 334.667 455 326C455 308.667 454.5 297.667 453.5 293C452.5 288.333 450.5 284.333 447.5 281C444.5 277.667 438.833 273.667 430.5 269C426.333 266.667 422.167 264.333 418 262C433 253.167 448 244.333 463 235.5C493 217.833 509.833 209 513.5 209ZM317 318C317.167 333.167 317.333 348.333 317.5 363.5C317.833 393.833 317.333 410.833 316 414.5C314.667 418.167 312.333 421.667 309 425C305.667 428.333 291.333 437.333 266 452C253.333 459.333 240.667 466.667 228 474C228 458.5 228 443 228 427.5C228 396.5 228.5 379.5 229.5 376.5C230.5 373.5 232.167 370.667 234.5 368C236.833 365.333 251.167 356.333 277.5 341C290.667 333.333 303.833 325.667 317 318ZM709 318C721.5 325.167 734 332.333 746.5 339.5C771.5 353.833 785.833 362.5 789.5 365.5C793.167 368.5 795.667 372.167 797 376.5C798.333 380.833 799 398.167 799 428.5C799 443.667 799 458.833 799 474C786.833 467 774.667 460 762.5 453C738.167 439 723.667 429.833 719 425.5C714.333 421.167 711.5 417.5 710.5 414.5C709.5 411.5 709 394.667 709 364C709 348.667 709 333.333 709 318ZM455 387C474.5 387 494 387 513.5 387C552.5 387 572.167 392.667 572.5 404C572.833 415.333 574.167 424.167 576.5 430.5C578.833 436.833 581.333 442 584 446C586.667 450 590.667 454.5 596 459.5C601.333 464.5 605.667 468 609 470C612.333 472 615.333 474.833 618 478.5C620.667 482.167 622.333 491.333 623 506C623.667 520.667 623.667 530.167 623 534.5C622.333 538.833 621.333 542.333 620 545C618.667 547.667 614.667 551.5 608 556.5C601.333 561.5 595.167 567.333 589.5 574C583.833 580.667 579.667 587.5 577 594.5C574.333 601.5 572.833 610.333 572.5 621C572.167 631.667 552.5 637 513.5 637C474.5 637 454.833 631.667 454.5 621C454.167 610.333 452.667 601.5 450 594.5C447.333 587.5 443 580.5 437 573.5C431 566.5 425.5 561.333 420.5 558C415.5 554.667 411.833 551.5 409.5 548.5C407.167 545.5 405.5 540.5 404.5 533.5C403.5 526.5 403.333 516.667 404 504C404.667 491.333 405.5 483.833 406.5 481.5C407.5 479.167 411.5 475.333 418.5 470C425.5 464.667 431.833 458.667 437.5 452C443.167 445.333 447 439.667 449 435C451 430.333 452.5 425.5 453.5 420.5C454.5 415.5 455 408.667 455 400C455 395.667 455 391.333 455 387ZM539.5 439.5C531.167 441.167 523.667 444 517 448C510.333 452 503.667 457.833 497 465.5C490.333 473.167 485.333 481 482 489C478.667 497 476.667 506.167 476 516.5C475.333 526.833 475.833 535.167 477.5 541.5C479.167 547.833 482 554.667 486 562C490 569.333 494.667 575.333 500 580C505.333 584.667 508.833 586.833 510.5 586.5C512.167 586.167 513.167 585.167 513.5 583.5C513.833 581.833 512.167 578.833 508.5 574.5C504.833 570.167 502.167 566 500.5 562C498.833 558 497.667 554.5 497 551.5C496.333 548.5 496.333 542.833 497 534.5C497.667 526.167 499.333 519 502 513C504.667 507 509 500.5 515 493.5C521 486.5 524.333 483.167 525 483.5C525.667 483.833 523.667 489.5 519 500.5C514.333 511.5 511.667 522 511 532C510.667 537 510.333 542 510 547C510.833 546.833 511.667 546.667 512.5 546.5C514.167 546.167 517.167 544.5 521.5 541.5C525.833 538.5 530.833 533.833 536.5 527.5C542.167 521.167 546.167 515.667 548.5 511C550.833 506.333 553 500.167 555 492.5C557 484.833 558 476.667 558 468C558 459.333 557.5 452.5 556.5 447.5C555.5 442.5 554.5 439.5 553.5 438.5C552.5 437.5 547.833 437.833 539.5 439.5ZM228 551C239.333 557.5 250.667 564 262 570.5C284.667 583.5 299 592.667 305 598C311 603.333 314.667 608.167 316 612.5C317.333 616.833 318 633.833 318 663.5C318 678.333 318 693.167 318 708C305 700.5 292 693 279 685.5C253 670.5 238.5 661.5 235.5 658.5C232.5 655.5 230.5 652.333 229.5 649C228.5 645.667 228 628.5 228 597.5C228 582 228 566.5 228 551ZM798 551C798.167 566.667 798.333 582.333 798.5 598C798.833 629.333 798.5 646.667 797.5 650C796.5 653.333 794.333 656.5 791 659.5C787.667 662.5 773.167 671.5 747.5 686.5C734.667 694 721.833 701.5 709 709C709 694 709 679 709 664C709 634 709.5 617 710.5 613C711.5 609 714 605 718 601C722 597 736.333 587.667 761 573C773.333 565.667 785.667 558.333 798 551ZM455 672C474.5 672 494 672 513.5 672C533 672 552.5 672 572 672C572 681.333 572 690.667 572 700C572 718.667 572.333 729.333 573 732C573.667 734.667 575.333 737.833 578 741.5C580.667 745.167 586.333 749.333 595 754C603.667 758.667 608.333 761.5 609 762.5C609.333 763 609.667 763.5 610 764C597.5 771.667 585 779.333 572.5 787C547.5 802.333 532.167 811.333 526.5 814C520.833 816.667 515.5 817.667 510.5 817C505.5 816.333 498.833 813.667 490.5 809C482.167 804.333 468 795.667 448 783C438 776.667 428 770.333 418 764C421.833 761.833 425.667 759.667 429.5 757.5C437.167 753.167 443 748.5 447 743.5C451 738.5 453.333 734.833 454 732.5C454.667 730.167 455 719.5 455 700.5C455 691 455 681.5 455 672Z" fill="url(#LinearGradient)" fill-rule="nonzero" opacity="1" stroke="none"/>
</g>
</svg>
