<?xml version="1.0" encoding="UTF-8" standalone="no"?>
<!DOCTYPE svg PUBLIC "-//W3C//DTD SVG 1.1//EN" "http://www.w3.org/Graphics/SVG/1.1/DTD/svg11.dtd">
<!-- Created with Vectornator (http://vectornator.io/) -->
<svg height="1024.0pt" stroke-miterlimit="10" style="fill-rule:nonzero;clip-rule:evenodd;stroke-linecap:round;stroke-linejoin:round;" version="1.1" viewBox="0 0 1024 1024" width="1024.0pt" xml:space="preserve" xmlns="http://www.w3.org/2000/svg" xmlns:xlink="http://www.w3.org/1999/xlink">
<defs>
<linearGradient gradientTransform="matrix(277.874 -320.446 320.446 277.874 353.265 710.948)" gradientUnits="userSpaceOnUse" id="LinearGradient" x1="0" x2="1" y1="0" y2="0">
<stop offset="0" stop-color="#0172bb"/>
<stop offset="1" stop-color="#00a651"/>
</linearGradient>
</defs>
<g id="图层-1">
<path d="M512.717 64.6511C512.612 64.6509 512.498 64.6915 512.392 64.6918C512.255 64.6952 512.12 64.69 511.985 64.6918L511.985 64.7326C505.245 64.8181 498.127 66.2501 490.571 69.17C482.748 72.1928 474.517 76.7475 465.819 82.8081C457.121 88.8687 437.549 100.556 407.114 117.86C376.679 135.164 358.189 145.977 351.666 150.306C345.143 154.635 340.167 158.742 336.685 162.642C333.202 166.542 330.32 171.548 328.135 177.623C325.951 183.698 324.825 211.929 324.716 262.301C324.607 312.674 323.909 339.6 322.599 343.071C321.288 346.542 319.308 349.767 316.696 352.801C314.084 355.835 311.271 358.019 308.228 359.315C306.707 359.963 305.19 360.621 303.668 361.269C303.712 340.859 303.746 320.45 303.79 300.04C303.879 259.221 302.817 236.645 300.656 232.298C298.494 227.95 295.913 224.189 292.88 221.143C289.847 218.097 284.839 215.038 277.898 211.983C270.957 208.928 263.136 207.836 254.449 208.685C245.762 209.535 222.972 220.802 186.014 242.435C149.057 264.067 126.24 278.591 117.539 285.954C108.838 293.318 102.967 300.467 99.9114 307.409C96.8566 314.35 95.2601 343.669 95.1482 395.344C95.0365 447.019 95.6041 474.808 96.8988 478.719C98.1931 482.63 100.817 486.744 104.715 491.095C108.614 495.446 112.713 498.726 117.051 500.907C121.388 503.087 126.172 504.586 131.381 505.466C136.59 506.346 143.536 505.922 152.225 504.204C160.913 502.486 180.274 492.32 210.278 473.712C240.281 455.104 255.697 445.783 256.566 445.784C257.434 445.786 258.079 453.641 258.479 469.274C258.88 484.908 259.96 493.154 261.696 494.026C263.431 494.899 270.38 495.126 282.539 494.719C294.699 494.311 301.21 493.713 302.08 492.846C302.951 491.979 303.409 478.733 303.465 453.112C303.52 427.492 310.91 410.348 325.693 401.695C340.476 393.042 350.51 385.006 355.737 377.635C360.964 370.264 364.662 362.472 366.851 354.226C369.04 345.98 370.188 322.743 370.271 284.529C370.312 265.423 370.352 246.315 370.393 227.209C372.345 228.081 374.262 228.942 376.215 229.814C380.119 231.56 383.168 233.758 385.334 236.369C387.499 238.979 388.532 264.378 388.428 312.579C388.324 360.78 386.974 387.709 384.357 393.349C381.739 398.989 378.03 404.175 373.243 408.941C368.456 413.708 363.222 417.815 357.569 421.276C351.916 424.738 346.684 429.103 341.896 434.304C337.108 439.505 333.655 444.473 331.474 449.245C329.292 454.017 327.543 460.538 326.222 468.786C324.901 477.034 324.228 490.715 324.186 509.822C324.185 510.658 324.265 511.279 324.268 512.102L324.431 512.102C324.443 531.087 325.746 546.654 328.339 558.756C330.944 570.915 334.853 580.252 340.064 586.765C345.274 593.279 353.091 600.444 363.513 608.261C373.935 616.077 380.666 623.025 383.705 629.104C386.745 635.184 388.482 661.456 388.916 707.92C389.351 754.385 388.916 779.137 387.614 782.176C386.311 785.216 383.054 788.256 377.843 791.296C375.238 792.816 372.632 794.336 370.027 795.855C370.027 776.748 370.027 757.641 370.027 738.535C370.027 700.321 369.158 677.74 367.421 670.792C365.684 663.844 363.73 658.199 361.559 653.856C359.388 649.514 355.914 644.737 351.137 639.526C346.36 634.315 337.241 627.802 323.779 619.985C310.318 612.169 303.587 594.799 303.587 567.876C303.587 540.952 303.153 527.056 302.284 526.188C301.416 525.319 294.468 524.885 281.44 524.885C268.413 524.885 261.465 525.319 260.596 526.188C259.728 527.056 259.294 536.392 259.294 554.197C259.294 563.099 259.294 572.001 259.294 580.903C242.792 570.915 226.291 560.927 209.789 550.94C176.787 530.965 155.291 520.542 145.304 519.674C135.316 518.806 127.065 519.891 120.552 522.931C114.038 525.971 109.044 529.444 105.57 533.353C102.096 537.261 99.4907 541.386 97.7537 545.729C96.0167 550.071 95.1482 577.429 95.1482 627.802C95.1482 678.174 97.1023 707.703 101.011 716.388C104.919 725.073 109.913 732.021 115.992 737.232C122.072 742.443 144.218 756.339 182.432 778.92C220.646 801.5 244.746 813.225 254.734 814.094C264.722 814.962 273.19 813.66 280.137 810.185C287.085 806.711 292.514 801.935 296.422 795.855C300.33 789.776 302.501 765.675 302.935 723.553C303.153 702.492 303.37 681.431 303.587 660.37C304.455 660.587 305.324 660.804 306.192 661.022C307.929 661.456 310.318 662.976 313.357 665.581C316.397 668.187 319.003 672.529 321.174 678.609C323.345 684.688 324.431 712.697 324.431 762.635C324.431 812.574 325.516 840.583 327.687 846.662C329.859 852.742 333.116 858.17 337.458 862.946C341.801 867.723 345.926 871.414 349.834 874.02C353.742 876.625 375.238 889.653 414.32 913.102C453.402 936.551 476.851 950.013 484.668 953.487C492.484 956.961 500.735 958.915 509.42 959.349C510.025 959.379 510.663 959.328 511.293 959.309C511.372 959.309 511.455 959.302 511.537 959.309C511.674 959.32 511.81 959.349 511.944 959.349C512.049 959.349 512.164 959.309 512.27 959.309C512.406 959.305 512.541 959.31 512.677 959.309L512.677 959.268C519.416 959.169 526.541 957.725 534.091 954.79C541.908 951.751 550.156 947.189 558.843 941.111C567.529 935.033 587.065 923.302 617.466 905.937C647.866 888.573 666.318 877.711 672.832 873.368C679.347 869.027 684.339 864.899 687.814 860.992C691.289 857.085 694.15 852.09 696.322 846.011C698.495 839.932 699.57 811.705 699.579 761.333C699.589 710.96 700.23 684.036 701.533 680.563C702.837 677.089 704.789 673.831 707.396 670.792C710.002 667.753 712.823 665.581 715.864 664.278C717.384 663.627 718.903 662.975 720.423 662.324C720.419 682.734 720.427 703.143 720.423 723.553C720.416 764.372 721.51 786.953 723.68 791.296C725.85 795.639 728.458 799.369 731.496 802.41C734.536 805.45 739.531 808.487 746.478 811.529C753.425 814.57 761.243 815.652 769.927 814.786C778.612 813.919 801.406 802.621 838.321 780.914C875.236 759.209 898.029 744.653 906.715 737.273C915.401 729.892 921.261 722.725 924.302 715.777C927.343 708.83 928.852 679.518 928.862 627.842C928.871 576.167 928.251 548.375 926.948 544.467C925.646 540.558 923.039 536.434 919.132 532.091C915.224 527.748 911.098 524.492 906.756 522.32C902.414 520.148 897.636 518.63 892.426 517.761C887.215 516.891 880.267 517.328 871.582 519.063C862.897 520.799 843.577 531.011 813.61 549.678C783.643 568.345 768.232 577.687 767.363 577.687C766.494 577.687 765.84 569.87 765.408 554.237C764.977 538.605 763.889 530.354 762.152 529.485C760.415 528.617 753.466 528.402 741.308 528.834C729.149 529.266 722.635 529.879 721.767 530.747C720.898 531.616 720.469 544.861 720.464 570.481C720.459 596.102 713.083 613.257 698.317 621.939C683.551 630.622 673.526 638.658 668.314 646.04C663.101 653.421 659.414 661.239 657.24 669.489C655.068 677.74 653.99 700.972 653.983 739.186C653.98 758.293 653.987 777.4 653.983 796.507C652.029 795.638 650.075 794.77 648.121 793.901C644.213 792.163 641.172 789.994 639.002 787.387C636.831 784.782 635.736 759.379 635.745 711.177C635.754 662.976 637.047 636.052 639.653 630.407C642.26 624.762 645.99 619.55 650.767 614.774C655.545 609.998 660.754 605.871 666.4 602.398C672.046 598.925 677.255 594.581 682.033 589.371C686.811 584.161 690.283 579.166 692.455 574.389C694.627 569.613 696.361 563.099 697.666 554.848C698.97 546.598 699.616 532.919 699.62 513.812C699.62 512.976 699.544 512.355 699.539 511.532L699.335 511.532C699.324 492.911 698.082 477.546 695.549 465.61C692.968 453.446 689.063 444.085 683.865 437.561C678.667 431.037 670.863 423.862 660.456 416.025C650.05 408.188 643.332 401.226 640.305 395.14C637.277 389.055 635.599 362.789 635.256 316.324C634.914 269.859 635.413 245.105 636.722 242.068C638.031 239.031 641.276 235.978 646.493 232.949C649.101 231.434 651.7 229.945 654.309 228.43C654.271 247.537 654.265 266.644 654.228 285.751C654.152 323.964 654.947 346.542 656.67 353.493C658.394 360.445 660.37 366.082 662.533 370.429C664.695 374.776 668.147 379.579 672.914 384.8C677.68 390.02 686.784 396.538 700.231 404.382C713.677 412.225 720.355 429.609 720.301 456.532C720.248 483.455 720.656 497.349 721.522 498.22C722.389 499.09 729.339 499.537 742.366 499.563C755.394 499.589 762.34 499.168 763.21 498.301C764.08 497.434 764.559 488.096 764.594 470.292C764.612 461.39 764.618 452.488 764.635 443.586C781.117 453.606 797.617 463.651 814.098 473.671C847.062 493.712 868.517 504.171 878.503 505.059C888.489 505.947 896.735 504.87 903.255 501.843C909.774 498.816 914.795 495.363 918.277 491.462C921.759 487.56 924.348 483.425 926.093 479.086C927.839 474.747 928.762 447.385 928.862 397.013C928.961 346.64 927.094 317.119 923.203 308.427C919.312 299.734 914.331 292.765 908.262 287.542C902.193 282.319 880.073 268.388 841.904 245.732C803.735 223.076 779.628 211.284 769.642 210.395C759.656 209.507 751.194 210.803 744.239 214.263C737.284 217.723 731.834 222.48 727.914 228.552C723.994 234.624 721.796 258.733 721.278 300.854C721.019 321.915 720.763 342.977 720.505 364.037C719.637 363.818 718.767 363.605 717.899 363.386C716.163 362.948 713.769 361.438 710.734 358.826C707.699 356.215 705.117 351.842 702.958 345.758C700.799 339.674 699.765 311.67 699.864 261.731C699.963 211.793 698.929 183.788 696.77 177.705C694.611 171.621 691.373 166.165 687.04 161.38C682.707 156.594 678.568 152.92 674.664 150.306C670.761 147.693 649.296 134.629 610.26 111.102C571.224 87.5753 547.803 74.0435 539.994 70.5542C532.184 67.0647 523.926 65.1025 515.241 64.6511C514.636 64.6197 513.999 64.6739 513.369 64.6918C513.289 64.6908 513.206 64.6988 513.125 64.6918C512.988 64.6797 512.851 64.6515 512.717 64.6511ZM513.328 111.916C514.847 111.784 516.314 111.805 517.725 111.916C523.369 112.362 532.068 115.842 543.78 122.379C555.491 128.916 574.346 140.471 600.367 157.024C613.379 165.3 626.398 173.581 639.409 181.857C634.41 184.67 629.386 187.472 624.387 190.284C614.388 195.91 606.772 201.979 601.548 208.482C596.324 214.985 593.303 219.774 592.429 222.812C591.554 225.85 591.094 239.748 591.045 264.5C591.02 276.876 590.988 289.252 590.963 301.628C565.56 301.578 540.156 301.515 514.753 301.465C489.35 301.415 463.946 301.352 438.543 301.302C438.567 289.143 438.6 276.984 438.624 264.825C438.672 240.508 438.264 226.614 437.403 223.138C436.541 219.662 434.354 215.545 430.889 210.762C427.424 205.978 420.062 200.539 408.783 194.437C397.505 188.335 391.451 184.627 390.585 183.323C390.152 182.67 389.716 182.021 389.283 181.369C405.587 171.413 421.872 161.443 438.176 151.487C470.784 131.576 490.795 119.895 498.184 116.435C503.726 113.841 508.77 112.314 513.328 111.916ZM256.973 256.887C257.147 276.863 257.328 296.878 257.502 316.854C257.85 356.805 257.173 378.914 255.426 383.253C253.68 387.591 250.618 391.947 246.266 396.28C241.914 400.613 223.211 412.296 190.167 431.332C173.645 440.85 157.103 450.393 140.581 459.911C140.625 439.718 140.659 419.526 140.703 399.333C140.791 358.949 141.509 336.799 142.82 332.894C144.132 328.988 146.327 325.288 149.375 321.82C152.422 318.353 171.125 306.67 205.474 286.768C222.648 276.818 239.799 266.837 256.973 256.887ZM766.304 257.294C783.22 267.098 800.154 276.924 817.07 286.728C850.903 306.336 869.758 318.067 873.658 321.983C877.559 325.899 880.139 329.838 881.434 333.749C882.729 337.659 883.347 360.021 883.266 400.84C883.225 421.249 883.184 441.659 883.144 462.069C868.396 453.572 853.639 445.081 838.891 436.584C809.396 419.59 790.758 407.599 782.955 400.636C775.152 393.673 770.392 387.572 768.665 382.357C766.939 377.143 766.105 354.999 766.182 315.917C766.221 296.376 766.265 276.835 766.304 257.294ZM511.293 350.969C562.099 350.699 587.77 357.296 588.276 370.755C588.782 384.214 590.777 395.702 594.302 405.236C597.826 414.771 603.535 424.087 611.4 433.164C619.265 442.241 626.225 448.707 632.325 452.583C638.426 456.459 643.24 460.554 646.737 464.878C650.234 469.202 652.637 475.524 653.983 483.767C655.05 490.299 655.265 500.5 655.001 512.753L655.571 512.753C655.587 525.299 655.259 534.644 654.513 539.744C653.685 545.396 652.621 549.546 651.337 552.161C650.054 554.776 644.894 559.599 635.826 566.614C626.758 573.628 618.556 581.487 611.237 590.226C603.919 598.964 598.564 607.91 595.156 617.054C591.749 626.198 589.872 637.719 589.538 651.617C589.206 665.516 563.645 672.66 512.84 673.031C462.034 673.402 436.348 666.867 435.815 653.409C435.282 639.951 433.252 628.454 429.708 618.927C426.165 609.399 420.452 600.102 412.569 591.04C404.686 581.978 397.711 575.525 391.603 571.662C385.495 567.798 380.657 563.684 377.151 559.367C373.645 555.05 371.227 548.759 369.864 540.518C368.784 533.989 368.565 523.786 368.805 511.532L368.235 511.532C368.233 498.651 368.565 489.158 369.334 483.971C370.173 478.321 371.262 474.167 372.551 471.554C373.839 468.942 378.98 464.139 388.061 457.143C397.143 450.146 405.355 442.295 412.691 433.571C420.027 424.847 425.428 415.921 428.853 406.783C432.279 397.646 434.152 386.118 434.512 372.22C434.873 358.322 460.486 351.239 511.293 350.969ZM554.202 415.251C551.162 415.468 546.928 416.12 541.5 417.205C530.644 419.377 520.873 423.068 512.188 428.279C503.503 433.49 495.253 440.438 487.436 449.123C479.62 457.808 473.106 468.012 467.895 479.737C462.684 491.462 459.644 504.055 458.776 517.516C457.907 530.978 458.559 541.834 460.73 550.085C462.901 558.336 466.592 567.238 471.803 576.791C477.014 586.345 483.094 594.161 490.042 600.241C496.99 606.32 501.549 609.143 503.72 608.708C505.892 608.274 507.194 606.971 507.629 604.8C508.063 602.629 505.892 598.721 501.115 593.075C496.338 587.43 492.864 582.002 490.693 576.791C488.522 571.58 487.002 567.021 486.133 563.112C485.265 559.204 485.265 551.822 486.133 540.966C487.002 530.11 489.173 520.773 492.647 512.957C496.121 505.14 501.766 496.673 509.583 487.553C517.399 478.434 521.742 474.092 522.61 474.526C523.479 474.96 520.873 482.343 514.794 496.673C508.714 511.003 505.24 524.682 504.372 537.709C503.937 544.223 503.503 550.736 503.069 557.25C503.72 557.25 504.372 557.25 505.023 557.25C506.326 557.25 510.451 554.862 517.399 550.085C524.347 545.308 530.861 539.663 536.94 533.149C543.02 526.636 548.014 519.688 551.922 512.306C555.83 504.923 559.087 496.021 561.692 485.599C564.298 475.177 565.601 464.538 565.601 453.682C565.601 442.826 564.949 434.141 563.646 427.627C562.344 421.114 561.041 417.205 559.738 415.903C559.087 415.251 557.241 415.034 554.202 415.251ZM140.744 562.665C155.509 571.132 170.273 579.6 185.037 588.068C214.566 605.004 233.239 616.946 241.055 623.893C248.872 630.841 253.648 636.921 255.385 642.132C257.122 647.343 257.991 669.489 257.991 708.572C257.991 728.113 257.991 747.654 257.991 767.195C241.055 757.424 224.12 747.654 207.184 737.883C173.313 718.342 154.423 706.618 150.515 702.709C146.606 698.801 144.001 694.893 142.698 690.985C141.396 687.076 140.744 664.713 140.744 623.893C140.744 603.484 140.744 583.074 140.744 562.665ZM883.307 563.357C883.303 583.549 883.311 603.742 883.307 623.934C883.299 664.319 882.615 686.466 881.312 690.374C880.008 694.282 877.839 697.974 874.798 701.447C871.758 704.921 853.09 716.652 818.78 736.621C801.626 746.606 784.476 756.6 767.322 766.584C767.108 746.609 766.884 726.634 766.67 706.658C766.244 666.707 766.886 644.56 768.625 640.218C770.362 635.876 773.401 631.533 777.744 627.191C782.087 622.849 800.796 611.118 833.802 592.017C850.305 582.467 866.804 572.907 883.307 563.357ZM433.25 722.535C458.654 722.535 484.057 722.535 509.461 722.535C534.864 722.535 560.268 722.535 585.671 722.535C585.671 734.694 585.671 746.853 585.671 759.012C585.671 783.33 586.105 797.226 586.974 800.7C587.842 804.174 590.013 808.299 593.487 813.076C596.961 817.853 604.344 823.281 615.634 829.36C626.924 835.44 633.004 839.131 633.872 840.433C634.307 841.085 634.741 841.736 635.175 842.388C618.891 852.375 602.607 862.363 586.322 872.351C553.754 892.326 533.778 904.051 526.396 907.525C519.014 910.999 512.5 912.518 506.855 912.084C501.21 911.65 492.525 908.176 480.8 901.662C469.076 895.149 450.186 883.641 424.131 867.14C411.104 858.889 398.076 850.638 385.049 842.388C390.043 839.565 395.036 836.742 400.03 833.92C410.018 828.274 417.617 822.195 422.828 815.681C428.039 809.168 431.079 804.391 431.947 801.351C432.816 798.311 433.25 784.415 433.25 759.663C433.25 747.287 433.25 734.911 433.25 722.535Z" fill="url(#LinearGradient)" fill-rule="nonzero" opacity="1" stroke="none"/>
</g>
</svg>
