<?xml version="1.0" encoding="UTF-8" standalone="no"?>
<!DOCTYPE svg PUBLIC "-//W3C//DTD SVG 1.1//EN" "http://www.w3.org/Graphics/SVG/1.1/DTD/svg11.dtd">
<!-- Created with Vectornator (http://vectornator.io/) -->
<svg height="1024.0pt" stroke-miterlimit="10" style="fill-rule:nonzero;clip-rule:evenodd;stroke-linecap:round;stroke-linejoin:round;" version="1.1" viewBox="0 0 1024 1024" width="1024.0pt" xml:space="preserve" xmlns="http://www.w3.org/2000/svg" xmlns:xlink="http://www.w3.org/1999/xlink">
<defs/>
<g id="图层-1">
<path d="M516.967 227.999C508.689 227.585 501.445 228.206 495.236 229.862C489.027 231.517 483.025 235.45 477.229 241.659C471.434 247.868 467.709 254.698 466.053 262.149C464.397 269.599 463.777 277.05 464.19 284.501C464.604 291.952 466.053 298.161 468.537 303.128C471.02 308.095 474.125 312.235 477.85 315.546C481.576 318.858 486.75 321.755 493.373 324.239C499.996 326.722 507.033 327.964 514.484 327.964C521.934 327.964 528.764 326.722 534.973 324.239C541.182 321.755 546.771 317.823 551.738 312.442C556.705 307.061 560.017 301.886 561.672 296.919C563.328 291.952 563.949 284.708 563.535 275.188C563.121 265.667 561.465 258.216 558.568 252.835C555.67 247.454 551.738 242.694 546.771 238.554C541.803 234.415 537.871 232.138 534.973 231.724C532.076 231.31 530.42 230.689 530.006 229.862C529.592 229.034 525.246 228.413 516.967 227.999ZM482.818 381.362C469.986 381.362 460.879 381.983 455.498 383.225C450.117 384.466 445.149 386.329 440.596 388.813C436.043 391.296 425.694 398.954 409.551 411.786C393.407 424.618 381.196 433.725 372.918 439.106C364.639 444.487 356.153 448.42 347.461 450.903C338.768 453.387 333.18 456.284 330.696 459.596C328.213 462.907 326.971 470.565 326.971 482.569C326.971 494.573 327.592 501.196 328.834 502.438C330.075 503.68 334.215 504.715 341.252 505.543C348.289 506.37 355.325 506.784 362.362 506.784C369.399 506.784 375.194 506.164 379.748 504.922C384.301 503.68 388.647 502.024 392.787 499.954C396.926 497.885 398.996 496.436 398.996 495.608C398.996 494.78 402.307 492.09 408.93 487.536C415.553 482.983 422.797 476.36 430.662 467.668C438.526 458.975 445.149 452.973 450.531 449.661C455.912 446.35 458.602 444.28 458.602 443.452C458.602 442.624 462.535 441.59 470.399 440.348C478.264 439.106 482.611 438.899 483.438 439.727C484.266 440.555 484.68 454.836 484.68 482.569C484.68 496.436 484.68 510.303 484.68 524.17C479.092 523.549 473.504 522.928 467.916 522.307C456.74 521.065 448.668 520.858 443.701 521.686C438.733 522.514 433.352 524.377 427.557 527.274C421.762 530.172 404.17 543.418 374.78 567.012C345.391 590.606 330.075 603.438 328.834 605.508C327.592 607.578 326.971 613.166 326.971 622.272C326.971 631.379 328.627 637.795 331.938 641.52C335.25 645.246 340.217 647.729 346.84 648.971C353.463 650.213 358.43 650.627 361.741 650.213C365.053 649.799 368.985 648.143 373.539 645.246C378.092 642.348 390.924 631.793 412.035 613.58C433.145 595.367 444.942 585.639 447.426 584.397C449.91 583.156 454.256 582.535 460.465 582.535C466.674 582.535 472.055 583.569 476.609 585.639C481.162 587.709 483.645 621.238 484.059 686.225C484.473 751.213 485.094 784.742 485.922 786.812C486.75 788.881 488.613 790.951 491.51 793.021C494.408 795.09 502.273 796.125 515.105 796.125C527.937 796.125 535.801 795.711 538.699 794.884C541.596 794.056 543.666 792.814 544.908 791.158C546.15 789.502 546.771 760.32 546.771 703.611C546.771 646.902 555.877 618.34 574.09 617.926C592.303 617.512 605.963 614.615 615.07 609.233C624.177 603.852 628.73 600.748 628.73 599.92C628.73 599.092 634.318 594.746 645.494 586.881C656.67 579.016 665.984 574.463 673.435 573.221C680.886 571.979 686.06 570.737 688.957 569.496C691.855 568.254 693.925 566.805 695.166 565.149C696.408 563.494 697.029 556.25 697.029 543.418C697.029 530.586 694.959 522.721 690.82 519.823C686.681 516.926 679.023 515.477 667.847 515.477C656.67 515.477 649.013 516.098 644.873 517.34C640.734 518.582 635.56 520.858 629.351 524.17C623.142 527.481 615.691 532.862 606.998 540.313C598.306 547.764 591.269 552.731 585.887 555.215C580.506 557.698 575.539 558.94 570.986 558.94C566.433 558.94 561.879 558.112 557.326 556.457C552.773 554.801 549.875 553.352 548.633 552.11C547.391 550.869 546.771 538.244 546.771 514.235C546.771 490.227 547.185 477.809 548.012 476.981C548.84 476.153 550.496 476.567 552.98 478.223C555.463 479.879 560.43 481.741 567.881 483.811C575.332 485.881 584.646 486.916 595.822 486.916C606.998 486.916 615.484 485.881 621.279 483.811C627.074 481.741 640.527 474.084 661.638 460.838C682.748 447.592 693.925 439.934 695.166 437.864C696.408 435.794 697.029 429.585 697.029 419.237C697.029 408.889 694.546 402.266 689.578 399.368C684.611 396.471 677.16 395.022 667.226 395.022C657.291 395.022 644.873 399.989 629.972 409.924C615.07 419.858 603.894 425.446 596.443 426.688C588.992 427.93 582.162 427.309 575.953 424.825C569.744 422.342 563.328 417.995 556.705 411.786C550.082 405.577 542.217 399.575 533.111 393.78C524.004 387.985 516.553 384.466 510.758 383.225C504.963 381.983 495.65 381.362 482.818 381.362Z" fill="#776fed" fill-rule="nonzero" opacity="1" stroke="none"/>
<path d="M521.011 49.6299C512.252 47.4442 462.435 72.0327 371.559 123.395C280.683 174.758 212.8 214.645 167.91 243.059C123.019 271.472 100.574 362.176 100.574 515.171C100.574 668.165 164.077 781.818 291.085 856.13C418.092 930.441 487.617 969.783 499.661 974.154C511.705 978.526 585.062 941.916 719.734 864.326C854.405 786.736 922.288 670.897 923.383 516.81C924.478 362.722 904.77 272.565 864.259 246.337C823.748 220.11 758.602 181.314 668.821 129.952C579.04 78.5896 529.77 51.8155 521.011 49.6299ZM509.104 142.246C571.239 142.246 633.785 160.005 696.741 195.521C822.653 266.554 885.609 372.558 885.609 513.531C885.609 654.505 824.295 760.508 701.668 831.541C579.04 902.575 508.967 934.266 491.449 926.617C473.931 918.967 410.975 883.45 302.581 820.067C194.187 756.683 139.99 654.505 139.99 513.531C139.99 372.558 201.304 266.554 323.931 195.521C385.245 160.005 446.969 142.246 509.104 142.246Z" fill="#776fed" fill-rule="nonzero" opacity="1" stroke="none"/>
</g>
</svg>
