<?xml version="1.0" encoding="UTF-8" standalone="no"?>
<!DOCTYPE svg PUBLIC "-//W3C//DTD SVG 1.1//EN" "http://www.w3.org/Graphics/SVG/1.1/DTD/svg11.dtd">
<!-- Created with Vectornator (http://vectornator.io/) -->
<svg height="1024.0pt" stroke-miterlimit="10" style="fill-rule:nonzero;clip-rule:evenodd;stroke-linecap:round;stroke-linejoin:round;" version="1.1" viewBox="0 0 1024 1024" width="1024.0pt" xml:space="preserve" xmlns="http://www.w3.org/2000/svg" xmlns:xlink="http://www.w3.org/1999/xlink">
<defs/>
<g id="图层-1">
<path d="M280.902 288.309C281.725 289.955 282.548 291.601 283.371 293.247C285.017 296.539 287.692 299.831 291.395 303.123C295.099 306.415 306.209 319.377 324.727 342.01C343.244 364.642 353.12 376.164 354.355 376.576C355.589 376.987 357.852 379.662 361.144 384.6C364.436 389.538 367.111 392.624 369.169 393.859C371.226 395.093 381.514 407.026 400.031 429.659C418.548 452.291 429.865 465.459 433.98 469.163C438.095 472.866 440.769 475.953 442.004 478.422C443.238 480.891 446.119 484.183 450.645 488.298C455.172 492.413 457.435 495.087 457.435 496.322C457.435 497.556 431.922 528.007 380.896 587.675C329.87 647.342 303.329 677.793 301.271 679.028C299.214 680.262 295.922 683.966 291.395 690.138C286.869 696.311 279.873 704.129 270.409 713.594C260.944 723.058 256.212 728.613 256.212 730.259C256.212 731.082 256.212 731.905 256.212 732.728C271.232 732.728 286.251 732.728 301.271 732.728C331.311 732.728 357.235 719.355 379.045 692.607C400.854 665.86 412.787 651.869 414.845 650.634C416.902 649.4 432.128 631.911 460.521 598.168C474.718 581.297 488.915 564.425 503.112 547.554C506.198 550.434 509.284 553.315 512.37 556.195C518.543 561.956 526.567 571.215 536.443 583.971C546.319 596.728 565.865 603.312 595.082 603.723C624.298 604.135 639.112 603.723 639.524 602.489C639.935 601.254 638.906 599.814 636.437 598.168C633.968 596.522 618.743 579.239 590.761 546.319C562.779 513.399 556.812 487.063 572.861 467.311C588.909 447.559 597.962 437.066 600.02 435.831C602.077 434.597 604.752 431.511 608.044 426.573C611.336 421.635 617.92 414.022 627.796 403.735C637.672 393.447 650.84 378.222 667.3 358.058C683.76 337.895 694.459 325.55 699.397 321.023C704.335 316.497 708.038 312.176 710.507 308.061C712.976 303.946 715.857 300.654 719.149 298.185C722.441 295.716 724.293 293.453 724.704 291.395C724.91 290.366 725.116 289.338 725.321 288.309C710.919 288.309 696.516 288.309 682.114 288.309C653.309 288.309 617.097 313.822 573.478 364.848C529.859 415.874 507.227 441.387 505.581 441.387C503.935 441.387 501.466 439.123 498.174 434.597C494.882 430.07 492.618 427.601 491.384 427.19C490.149 426.778 470.192 403.529 431.511 357.441C392.83 311.353 358.058 288.309 327.196 288.309C311.764 288.309 296.333 288.309 280.902 288.309ZM507.432 622.241C503.935 622.446 500.643 622.858 497.556 623.475C491.384 624.71 485.211 626.973 479.039 630.265C472.866 633.557 467.723 637.26 463.608 641.375C459.493 645.49 455.789 651.251 452.497 658.658C449.205 666.065 447.559 674.913 447.559 685.2C447.559 695.488 448.588 703.1 450.645 708.038C452.703 712.976 455.789 717.914 459.904 722.852C464.019 727.79 469.163 732.317 475.335 736.432C481.508 740.547 488.503 743.633 496.322 745.691C504.14 747.748 513.811 748.365 525.333 747.542C536.855 746.719 547.142 744.662 556.195 741.37C565.248 738.078 574.095 733.757 582.737 728.408C591.378 723.058 599.814 723.058 608.044 728.408C616.274 733.757 625.121 738.078 634.586 741.37C644.05 744.662 656.189 746.308 671.003 746.308C685.817 746.308 697.751 744.045 706.804 739.518C715.857 734.992 723.058 728.819 728.408 721.001C733.757 713.182 737.049 706.804 738.284 701.866C739.518 696.928 740.135 691.373 740.135 685.2C740.135 679.028 739.518 673.472 738.284 668.534C737.049 663.596 734.374 657.835 730.259 651.251C726.144 644.667 722.029 639.729 717.914 636.437C713.799 633.145 711.125 631.499 709.89 631.499C709.273 631.499 708.656 631.499 708.038 631.499C708.038 631.088 708.038 630.676 708.038 630.265C708.038 629.442 704.746 628.002 698.162 625.944C691.578 623.887 681.291 623.269 667.3 624.092C653.309 624.915 637.055 629.648 618.537 638.289C600.02 646.931 588.703 649.605 584.588 646.313C580.474 643.021 573.89 639.318 564.837 635.203C555.784 631.088 547.759 628.002 540.764 625.944C533.768 623.887 526.361 622.652 518.543 622.241C514.634 622.035 510.93 622.035 507.432 622.241ZM515.457 664.831C522.864 664.831 528.007 665.448 530.888 666.683C533.768 667.917 538.295 670.592 544.467 674.707C550.64 678.822 554.343 682.525 555.578 685.817C556.812 689.109 552.903 693.43 543.85 698.78C534.797 704.129 526.156 706.804 517.926 706.804C509.696 706.804 504.346 706.187 501.877 704.952C499.408 703.718 496.733 701.249 493.853 697.545C490.972 693.842 489.738 689.109 490.149 683.348C490.561 677.587 493.03 673.061 497.556 669.769C502.083 666.477 508.05 664.831 515.457 664.831ZM667.917 664.831C674.913 664.831 681.497 666.888 687.669 671.003C693.842 675.118 697.339 678.822 698.162 682.114C698.985 685.406 698.162 689.109 695.693 693.224C693.224 697.339 689.315 700.631 683.966 703.1C678.616 705.569 673.472 706.804 668.534 706.804C663.596 706.804 658.864 706.187 654.338 704.952C649.811 703.718 644.256 700.837 637.672 696.311C631.088 691.784 628.002 688.698 628.413 687.052C628.825 685.406 631.294 682.525 635.82 678.41C640.347 674.295 645.079 671.003 650.017 668.534C654.955 666.065 660.922 664.831 667.917 664.831Z" fill="#0072bb" fill-rule="nonzero" opacity="1" stroke="none"/>
<path d="M520.971 50.6781C512.251 48.4974 462.654 73.0301 372.18 124.276C281.706 175.522 214.123 215.32 169.431 243.668C124.739 272.017 102.393 362.516 102.393 515.163C102.393 667.811 165.616 781.207 292.062 855.35C418.507 929.493 487.725 968.745 499.715 973.107C511.706 977.468 584.739 940.942 718.815 863.527C852.891 786.113 920.473 670.537 921.563 516.799C922.654 363.061 903.033 273.108 862.701 246.939C822.369 220.771 757.511 182.064 668.128 130.818C578.744 79.5721 529.692 52.8588 520.971 50.6781ZM509.117 143.084C570.977 143.084 633.246 160.803 695.924 196.239C821.279 267.111 883.957 372.874 883.957 513.528C883.957 654.182 822.914 759.945 700.829 830.817C578.744 901.689 508.981 933.309 491.54 925.677C474.099 918.044 411.422 882.608 303.507 819.368C195.592 756.129 141.635 654.182 141.635 513.528C141.635 372.874 202.678 267.111 324.763 196.239C385.806 160.803 447.257 143.084 509.117 143.084Z" fill="#0072bb" fill-rule="nonzero" opacity="1" stroke="none"/>
</g>
</svg>
