<?xml version="1.0" encoding="UTF-8" standalone="no"?>
<!DOCTYPE svg PUBLIC "-//W3C//DTD SVG 1.1//EN" "http://www.w3.org/Graphics/SVG/1.1/DTD/svg11.dtd">
<!-- Created with Vectornator (http://vectornator.io/) -->
<svg height="1024.0pt" stroke-miterlimit="10" style="fill-rule:nonzero;clip-rule:evenodd;stroke-linecap:round;stroke-linejoin:round;" version="1.1" viewBox="0 0 1024 1024" width="1024.0pt" xml:space="preserve" xmlns="http://www.w3.org/2000/svg" xmlns:xlink="http://www.w3.org/1999/xlink">
<defs/>
<g id="图层-1">
<path d="M520.96 49.0332C512.251 46.8448 462.716 71.4649 372.357 122.894C281.998 174.322 214.5 214.262 169.865 242.712C125.23 271.162 102.912 361.983 102.912 515.175C102.912 668.367 166.055 782.166 292.34 856.574C418.625 930.981 487.756 970.374 499.731 974.751C511.706 979.128 584.647 942.471 718.553 864.781C852.459 787.09 919.956 671.102 921.045 516.816C922.133 362.53 902.537 272.256 862.257 245.994C821.976 219.733 757.2 180.888 667.93 129.459C578.659 78.0303 529.669 51.2217 520.96 49.0332ZM509.121 141.769C570.903 141.769 633.093 159.55 695.691 195.113C820.888 266.238 883.486 372.378 883.486 513.533C883.486 654.689 822.52 760.829 700.59 831.954C578.659 903.079 508.985 934.811 491.566 927.152C474.147 919.492 411.549 883.93 303.771 820.464C195.993 756.999 142.104 654.689 142.104 513.533C142.104 372.378 203.069 266.238 325 195.113C385.965 159.55 447.339 141.769 509.121 141.769Z" fill="#5891ff" fill-rule="nonzero" opacity="1" stroke="none"/>
<path d="M512.81 223.106C503.343 223.106 494.493 224.959 486.261 228.663C478.028 232.368 468.973 239.571 459.094 250.273C449.215 260.976 440.571 273.53 433.162 287.937C425.752 302.344 419.578 317.574 414.639 333.627C409.699 349.68 397.556 355.854 378.21 352.15C358.864 348.445 343.016 346.593 330.668 346.593C318.319 346.593 305.97 348.239 293.622 351.532C281.273 354.825 272.629 358.118 267.69 361.411C262.75 364.704 258.016 369.438 253.489 375.612C248.961 381.787 246.697 385.903 246.697 387.961C246.697 390.019 246.079 391.871 244.845 393.518C243.61 395.164 242.992 401.133 242.992 411.423C242.992 421.714 244.021 430.564 246.079 437.973C248.138 445.382 253.694 457.113 262.75 473.167C271.806 489.22 276.745 497.246 277.569 497.246C278.392 497.246 279.215 498.275 280.038 500.334C280.861 502.392 285.801 508.566 294.857 518.857C303.912 529.147 303.089 539.849 292.387 550.963C281.685 562.077 272.423 573.396 264.602 584.922C256.782 596.447 251.225 606.738 247.932 615.794C244.639 624.849 242.581 634.728 241.757 645.43C240.934 656.132 241.552 664.777 243.61 671.362C245.668 677.948 248.343 683.505 251.636 688.033C254.929 692.561 258.222 696.266 261.515 699.147C264.808 702.028 270.159 705.321 277.569 709.026C284.978 712.73 295.886 715.406 310.292 717.052C324.699 718.699 339.106 719.111 353.513 718.287C367.92 717.464 381.091 716.023 393.028 713.965C404.965 711.907 413.198 719.111 417.726 735.575C422.254 752.04 426.781 765.212 431.309 775.091C435.837 784.97 440.365 793.408 444.893 800.406C449.421 807.403 454.977 814.195 461.563 820.781C468.149 827.367 474.53 832.307 480.704 835.6C486.878 838.893 495.111 840.951 505.401 841.774C515.692 842.597 522.895 842.597 527.011 841.774C531.128 840.951 536.273 838.893 542.447 835.6C548.621 832.307 555.413 826.956 562.822 819.546C570.232 812.137 577.847 801.641 585.667 788.057C593.488 774.474 600.692 757.803 607.278 738.045C613.864 718.287 624.154 709.849 638.149 712.73C652.144 715.612 663.876 717.464 673.343 718.287C682.81 719.111 693.101 719.316 704.215 718.905C715.328 718.493 725.001 717.052 733.234 714.583C741.466 712.113 750.11 707.174 759.166 699.764C768.222 692.355 774.396 684.534 777.689 676.302C780.982 668.069 782.628 659.837 782.628 651.605C782.628 643.372 781.599 635.346 779.541 627.525C777.483 619.704 772.75 609.208 765.34 596.036C757.931 582.864 747.846 569.074 735.086 554.668C722.326 540.261 719.444 528.736 726.442 520.091C733.44 511.447 737.556 506.92 738.791 506.508C740.026 506.096 742.289 503.215 745.583 497.864C748.875 492.513 750.934 489.837 751.757 489.837C752.58 489.837 755.667 485.515 761.018 476.871C766.369 468.227 770.691 459.583 773.984 450.939C777.277 442.295 779.541 433.239 780.776 423.772C782.011 414.305 781.599 405.455 779.541 397.222C777.483 388.99 774.19 381.787 769.662 375.612C765.135 369.438 760.401 364.704 755.461 361.411C750.522 358.118 745.171 355.443 739.408 353.385C733.645 351.327 727.471 349.68 720.885 348.445C714.299 347.21 705.655 346.593 694.953 346.593C684.251 346.593 668.815 348.445 648.646 352.15C628.476 355.854 614.893 347.21 607.895 326.218C600.897 305.225 593.077 287.731 584.433 273.736C575.789 259.741 568.791 250.068 563.44 244.716C558.089 239.365 552.738 235.043 547.387 231.75C542.036 228.457 537.302 226.193 533.186 224.959C529.069 223.724 522.278 223.106 512.81 223.106ZM513.273 265.4C516.052 265.4 518.779 265.915 521.454 266.944C526.806 269.002 533.186 274.353 540.595 282.997C548.004 291.641 555.413 304.607 562.822 321.896C570.232 339.184 574.759 351.327 576.406 358.324C578.052 365.322 573.319 370.467 562.205 373.76C551.091 377.053 541.006 380.963 531.951 385.491C522.895 390.019 516.927 392.489 514.045 392.9C511.164 393.312 503.343 390.636 490.583 384.874C477.823 379.111 467.326 375.201 459.094 373.142C450.861 371.084 446.539 369.438 446.128 368.203C445.716 366.968 448.186 358.53 453.537 342.888C458.888 327.247 463.827 315.104 468.355 306.46C472.883 297.816 478.646 289.583 485.643 281.762C492.641 273.942 499.021 269.002 504.784 266.944C507.665 265.915 510.495 265.4 513.273 265.4ZM701.127 385.491C709.36 385.903 716.769 387.343 723.355 389.813C729.941 392.283 734.88 395.576 738.173 399.692C741.466 403.808 743.113 408.748 743.113 414.51C743.113 420.273 741.878 426.653 739.408 433.651C736.938 440.648 733.851 447.234 730.147 453.409C726.442 459.583 718.21 469.874 705.449 484.28C692.689 498.687 677.665 498.893 660.377 484.898C643.089 470.903 633.21 452.174 630.74 428.711C628.27 405.249 637.326 392.077 657.907 389.196C678.488 386.314 692.895 385.079 701.127 385.491ZM330.05 386.109C341.987 386.109 356.394 387.549 373.271 390.431C381.709 391.871 390.147 393.312 398.585 394.753C397.556 399.486 396.527 404.22 395.498 408.954C393.44 418.421 391.794 430.564 390.559 445.382C389.324 460.2 380.062 473.99 362.774 486.75C345.486 499.51 330.462 498.687 317.702 484.28C304.941 469.874 297.121 460.2 294.239 455.261C291.358 450.322 288.682 444.147 286.213 436.738C283.743 429.329 282.508 421.92 282.508 414.51C282.508 407.101 283.125 402.368 284.36 400.31C285.595 398.251 288.065 395.987 291.769 393.518C295.474 391.048 299.796 389.196 304.736 387.961C309.675 386.726 318.113 386.109 330.05 386.109ZM584.433 405.866C586.491 405.866 588.549 411.012 590.607 421.302C591.636 426.447 592.665 431.593 593.694 436.738C587.314 433.651 580.934 430.564 574.554 427.477C561.793 421.302 555.413 417.803 555.413 416.98C555.413 416.157 556.648 415.128 559.118 413.893C561.588 412.658 565.91 411.012 572.084 408.954C578.258 406.895 582.374 405.866 584.433 405.866ZM443.658 408.954C448.186 409.365 453.331 410.6 459.094 412.658C464.856 414.716 467.738 416.157 467.738 416.98C467.738 417.803 461.975 421.508 450.45 428.094C444.687 431.387 438.924 434.68 433.162 437.973C432.956 436.532 432.75 435.092 432.544 433.651C432.133 430.77 432.75 425.83 434.396 418.832C436.043 411.835 439.13 408.542 443.658 408.954ZM511.112 439.516C515.949 439.516 521.249 440.854 527.011 443.53C538.537 448.881 552.12 456.496 567.762 466.375C583.404 476.254 592.253 482.222 594.311 484.28C596.37 486.338 597.81 491.895 598.634 500.951C599.457 510.007 599.663 525.237 599.251 546.641C598.839 568.045 591.018 583.893 575.789 594.183C560.559 604.474 546.769 612.912 534.421 619.498C522.072 626.084 513.839 628.76 509.723 627.525C505.607 626.29 503.549 625.261 503.549 624.438C503.549 623.614 499.844 621.556 492.435 618.263C485.026 614.97 480.91 612.706 480.086 611.471C479.263 610.237 472.266 605.915 459.094 598.505C445.922 591.096 438.101 586.157 435.631 583.687C433.162 581.217 431.927 575.866 431.927 567.634C431.927 559.401 431.515 554.256 430.692 552.198C429.869 550.14 429.457 539.026 429.457 518.857C429.457 498.687 436.455 483.457 450.45 473.167C464.445 462.876 473.912 456.702 478.852 454.644C483.791 452.585 490.171 448.881 497.992 443.53C501.902 440.854 506.276 439.516 511.112 439.516ZM514.817 481.155C509.054 481.155 503.292 482.184 497.529 484.242C491.766 486.3 486.621 489.593 482.093 494.121C477.565 498.649 473.861 504 470.979 510.174C468.098 516.348 466.657 522.317 466.657 528.079C466.657 533.842 467.686 539.605 469.744 545.368C471.803 551.13 475.096 556.481 479.623 561.421C484.151 566.36 489.914 570.065 496.911 572.535C503.909 575.004 510.495 576.033 516.669 575.622C522.844 575.21 528.195 573.975 532.723 571.917C537.25 569.859 541.984 565.949 546.924 560.186C551.863 554.423 555.362 548.249 557.42 541.663C559.478 535.077 560.095 528.903 559.272 523.14C558.449 517.377 556.802 512.026 554.333 507.087C551.863 502.147 548.57 497.619 544.454 493.503C540.338 489.387 535.81 486.3 530.87 484.242C525.931 482.184 520.58 481.155 514.817 481.155ZM385.774 515.731C386.391 515.731 387.008 515.731 387.626 515.731C387.626 521.288 387.626 526.845 387.626 532.402C387.626 537.958 387.626 543.515 387.626 549.072C387.008 549.072 386.391 549.072 385.774 549.072C384.539 549.072 380.834 546.397 374.66 541.046C368.485 535.694 366.016 531.99 367.251 529.932C368.485 527.874 371.573 524.992 376.512 521.288C381.452 517.583 384.539 515.731 385.774 515.731ZM638.304 516.966C641.391 519.23 644.478 521.494 647.565 523.757C650.652 526.021 653.739 528.285 656.827 530.549C654.151 533.636 651.475 536.724 648.8 539.811C643.449 545.985 640.362 548.866 639.538 548.455C638.715 548.043 638.304 542.692 638.304 532.402C638.304 527.256 638.304 522.111 638.304 516.966ZM689.975 567.209C692.162 567.389 694.027 568.148 695.57 569.486C701.745 574.837 708.537 582.041 715.946 591.096C723.355 600.152 729.735 610.442 735.086 621.968C740.437 633.493 743.113 642.961 743.113 650.37C743.113 657.779 741.466 663.542 738.173 667.658C734.88 671.774 729.323 674.861 721.503 676.919C713.682 678.977 702.774 679.801 688.779 679.389C674.784 678.977 660.994 677.743 647.411 675.684C640.619 674.655 633.827 673.626 627.035 672.597C628.682 660.66 630.328 648.723 631.975 636.786C635.268 612.912 645.147 594.389 661.612 581.217C673.96 571.338 683.415 566.669 689.975 567.209ZM333.215 569.64C340.933 569.287 350.58 573.345 362.157 581.835C380.68 595.418 390.353 608.179 391.176 620.116C391.999 632.053 393.028 642.549 394.263 651.605C395.498 660.66 396.527 665.6 397.35 666.423C398.174 667.246 398.174 668.687 397.35 670.745C396.527 672.803 383.767 675.067 359.07 677.537C334.372 680.007 318.319 680.624 310.91 679.389C303.501 678.154 297.121 675.684 291.769 671.98C286.418 668.275 283.125 664.982 281.891 662.101C280.656 659.22 280.038 654.28 280.038 647.283C280.038 640.285 280.45 636.58 281.273 636.169C282.096 635.757 283.125 633.082 284.36 628.142C285.595 623.203 289.917 615.382 297.326 604.68C304.736 593.978 312.762 584.099 321.406 575.043C324.648 571.647 328.584 569.853 333.215 569.64ZM434.551 630.573C439.902 633.66 445.253 636.748 450.604 639.835C455.955 642.922 461.306 646.009 466.657 649.096C462.335 650.743 458.013 652.389 453.691 654.036C449.369 655.682 445.047 657.329 440.725 658.975C439.696 654.242 438.667 649.508 437.638 644.774C436.609 640.041 435.58 635.307 434.551 630.573ZM588.292 630.573C589.321 630.573 590.35 630.573 591.379 630.573C591.379 631.191 591.379 631.808 591.379 632.426C591.379 633.66 590.35 638.188 588.292 646.009C587.262 649.92 586.233 653.83 585.204 657.74C580.882 656.3 576.56 654.859 572.238 653.418C567.916 651.978 563.594 650.537 559.272 649.096C559.684 648.273 560.095 647.45 560.507 646.627C561.33 644.98 565.241 642.51 572.238 639.217C579.236 635.924 583.146 633.66 583.97 632.426C584.793 631.191 586.233 630.573 588.292 630.573ZM506.983 678.579C514.47 678.193 526.703 680.933 543.682 686.798C566.321 694.619 575.994 704.292 572.701 715.818C569.408 727.343 565.498 738.045 560.97 747.924C556.442 757.803 551.503 766.859 546.152 775.091C540.801 783.324 535.038 789.704 528.864 794.232C522.689 798.759 516.927 801.023 511.576 801.023C506.224 801.023 501.902 799.994 498.609 797.936C495.316 795.878 492.023 792.997 488.731 789.292C485.438 785.588 480.704 778.384 474.53 767.682C468.355 756.98 462.592 744.014 457.241 728.784C451.89 713.554 449.215 704.704 449.215 702.234C449.215 699.764 456.418 696.266 470.825 691.738C485.232 687.21 495.316 683.299 501.079 680.007C502.52 679.183 504.488 678.707 506.983 678.579Z" fill="#5891ff" fill-rule="nonzero" opacity="1" stroke="none"/>
</g>
</svg>
