<?xml version="1.0" encoding="UTF-8" standalone="no"?>
<!DOCTYPE svg PUBLIC "-//W3C//DTD SVG 1.1//EN" "http://www.w3.org/Graphics/SVG/1.1/DTD/svg11.dtd">
<!-- Created with Vectornator (http://vectornator.io/) -->
<svg height="1024.0pt" stroke-miterlimit="10" style="fill-rule:nonzero;clip-rule:evenodd;stroke-linecap:round;stroke-linejoin:round;" version="1.1" viewBox="0 0 1024 1024" width="1024.0pt" xml:space="preserve" xmlns="http://www.w3.org/2000/svg" xmlns:xlink="http://www.w3.org/1999/xlink">
<defs/>
<g id="图层-1">
<path d="M306.147 290.196C305.941 364.144 305.735 438.091 305.529 512.039C305.117 659.934 305.323 734.293 306.147 735.117C306.971 735.941 316.652 736.353 335.19 736.353C353.729 736.353 363.41 735.941 364.234 735.117C365.058 734.293 365.47 677.236 365.47 563.946C365.47 507.301 365.47 450.656 365.47 394.011C373.915 405.134 382.36 416.257 390.805 427.38C407.696 449.626 417.789 463.633 421.085 469.4C424.38 475.168 427.058 478.876 429.118 480.523C431.178 482.171 432.826 484.437 434.062 487.321C435.298 490.205 436.945 492.47 439.005 494.118C441.065 495.766 443.743 499.474 447.038 505.241C450.334 511.009 453.012 514.716 455.072 516.364C457.132 518.012 458.162 519.454 458.162 520.69C458.162 521.926 459.603 523.986 462.487 526.869C465.371 529.753 470.726 537.168 478.554 549.115C486.381 561.062 492.972 569.92 498.328 575.687C503.683 581.454 508.421 584.338 512.541 584.338C516.66 584.338 520.162 583.514 523.046 581.866C525.93 580.219 533.345 570.743 545.292 553.441C557.239 536.138 563.624 527.487 564.448 527.487C565.272 527.487 566.714 525.427 568.774 521.308C570.834 517.188 572.481 514.922 573.717 514.51C574.953 514.098 577.219 511.009 580.515 505.241C583.81 499.474 586.488 495.766 588.548 494.118C590.608 492.47 592.256 490.205 593.492 487.321C594.727 484.437 595.757 482.995 596.581 482.995C597.405 482.995 599.053 480.729 601.525 476.198C603.997 471.666 610.588 462.603 621.299 449.008C632.01 435.413 637.366 427.998 637.366 426.762C637.366 426.144 637.366 425.526 637.366 424.908C637.778 424.908 638.19 424.908 638.602 424.908C639.425 424.908 640.043 424.084 640.455 422.437C640.867 420.789 643.133 417.699 647.253 413.167C651.372 408.636 653.432 405.752 653.432 404.516C653.432 403.28 654.462 401.838 656.522 400.191C657.552 399.367 658.582 398.543 659.612 397.719C659.612 436.443 659.612 475.168 659.612 513.892C659.612 591.342 660.436 630.89 662.083 632.538C663.731 634.186 673.206 635.01 690.509 635.01C707.811 635.01 717.287 634.598 718.934 633.774C720.582 632.95 721.2 575.481 720.788 461.367C720.582 404.31 720.376 347.253 720.17 290.196C709.871 290.402 699.572 290.608 689.273 290.814C668.675 291.226 634.482 324.801 586.694 391.539C538.906 458.277 514.395 491.646 513.159 491.646C511.923 491.646 509.451 489.175 505.743 484.231C502.036 479.288 478.348 445.712 434.68 383.506C391.011 321.299 358.672 290.196 337.662 290.196C327.157 290.196 316.652 290.196 306.147 290.196ZM553.943 662.817C540.348 662.405 526.753 664.053 513.159 667.761C499.564 671.469 488.853 676 481.025 681.356C473.198 686.711 466.813 692.067 461.869 697.422C456.926 702.778 454.454 706.897 454.454 709.781C454.454 712.665 459.191 718.226 468.667 726.466C478.142 734.705 483.703 738.825 485.351 738.825C486.175 738.825 486.999 738.825 487.823 738.825C487.823 738.207 487.823 737.589 487.823 736.971C487.823 735.735 488.853 734.087 490.913 732.027C492.972 729.967 498.122 726.26 506.361 720.904C514.601 715.549 521.192 712.253 526.136 711.017C531.079 709.781 537.053 709.163 544.056 709.163C551.059 709.163 568.362 714.107 595.963 723.994C623.565 733.881 644.987 739.237 660.23 740.06C675.472 740.884 688.243 739.648 698.542 736.353C708.841 733.057 716.051 729.967 720.17 727.084C724.29 724.2 729.44 719.256 735.619 712.253C741.798 705.25 744.888 700.306 744.888 697.422C744.888 694.538 740.563 689.183 731.911 681.356C723.26 673.528 718.317 669.615 717.081 669.615C715.845 669.615 713.785 671.263 710.901 674.558C708.017 677.854 703.898 681.15 698.542 684.445C693.187 687.741 688.449 690.007 684.33 691.243C680.21 692.479 674.236 693.097 666.409 693.097C658.582 693.097 649.519 691.449 639.22 688.153C628.92 684.857 619.239 680.944 610.176 676.412C601.113 671.88 592.874 668.585 585.458 666.525C578.043 664.465 567.538 663.229 553.943 662.817Z" fill="#f6a03c" fill-rule="nonzero" opacity="1" stroke="none"/>
<path d="M520.936 49.9189C512.25 47.7347 462.848 72.3077 372.731 123.638C282.614 174.968 215.298 214.831 170.782 243.227C126.267 271.622 104.009 362.27 104.009 515.169C104.009 668.067 166.982 781.65 292.929 855.915C418.876 930.18 487.821 969.497 499.764 973.865C511.707 978.234 584.452 941.647 717.999 864.106C851.546 786.564 918.862 670.798 919.948 516.807C921.034 362.816 901.49 272.715 861.318 246.503C821.145 220.292 756.543 181.521 667.512 130.191C578.481 78.8605 529.622 52.1032 520.936 49.9189ZM509.128 142.477C570.745 142.477 632.768 160.225 695.198 195.719C820.059 266.708 882.49 372.645 882.49 513.53C882.49 654.416 821.688 760.353 700.084 831.342C578.481 902.33 508.993 934.002 491.621 926.357C474.249 918.712 411.818 883.218 304.329 819.874C196.84 756.53 143.096 654.416 143.096 513.53C143.096 372.645 203.898 266.708 325.501 195.719C386.303 160.225 447.512 142.477 509.128 142.477Z" fill="#f6a03c" fill-rule="nonzero" opacity="1" stroke="none"/>
</g>
</svg>
