<?xml version="1.0" encoding="UTF-8" standalone="no"?>
<!DOCTYPE svg PUBLIC "-//W3C//DTD SVG 1.1//EN" "http://www.w3.org/Graphics/SVG/1.1/DTD/svg11.dtd">
<!-- Created with Vectornator (http://vectornator.io/) -->
<svg height="1024.0pt" stroke-miterlimit="10" style="fill-rule:nonzero;clip-rule:evenodd;stroke-linecap:round;stroke-linejoin:round;" version="1.1" viewBox="0 0 1024 1024" width="1024.0pt" xml:space="preserve" xmlns="http://www.w3.org/2000/svg" xmlns:xlink="http://www.w3.org/1999/xlink">
<defs/>
<g id="图层-1">
<path d="M503.753 211.128C501.253 211.433 498.903 212.094 496.703 213.11C492.303 215.141 486.703 218.799 479.903 224.082C473.103 229.365 461.103 241.354 443.903 260.048C426.703 278.742 413.902 294.388 405.502 306.987C397.102 319.585 391.302 329.135 388.102 335.637C384.902 342.14 381.702 349.658 378.502 358.192C375.302 366.727 372.702 375.464 370.702 384.405C368.702 393.345 367.702 405.131 367.702 419.761C367.702 434.391 369.302 448.412 372.502 461.823C375.702 475.234 379.302 486.816 383.302 496.57C387.302 506.323 392.502 516.077 398.902 525.83C405.302 535.584 409.502 541.07 411.502 542.289C413.502 543.508 416.702 547.166 421.102 553.262C425.503 559.358 437.903 570.737 458.303 587.399C478.703 604.061 488.903 624.178 488.903 647.748C488.903 671.319 488.303 683.308 487.103 683.714C485.903 684.121 466.903 665.63 430.103 628.242C393.302 590.853 363.302 571.956 340.102 571.549C316.901 571.143 305.101 571.753 304.701 573.378C304.301 575.004 321.501 592.885 356.302 627.022C391.102 661.159 411.302 681.479 416.902 687.982C422.503 694.484 435.703 707.285 456.503 726.386C477.303 745.486 487.703 766.619 487.703 789.783C487.703 812.948 495.503 824.733 511.103 825.14C518.903 825.343 526.704 825.546 534.504 825.749C534.704 814.167 534.904 802.585 535.104 791.003C535.504 767.838 543.504 749.144 559.104 734.92C574.704 720.696 605.304 690.217 650.905 643.481C673.705 620.114 696.505 596.746 719.305 573.378C707.105 573.175 694.905 572.972 682.705 572.769C658.305 572.362 629.705 588.821 596.904 622.146C564.104 655.47 545.904 673.758 542.304 677.009C538.704 680.26 536.104 681.886 534.504 681.886C533.704 681.886 532.904 681.886 532.104 681.886C532.304 670.303 532.504 658.721 532.704 647.139C533.104 623.974 543.104 604.061 562.704 587.399C582.304 570.737 598.504 554.278 611.304 538.022C624.105 521.766 632.505 509.371 636.505 500.837C640.505 492.303 643.505 484.581 645.505 477.672C647.505 470.764 649.505 458.369 651.505 440.487C653.505 422.606 653.105 405.334 650.305 388.672C647.505 372.01 643.905 358.396 639.505 347.829C635.105 337.263 629.705 326.697 623.305 316.131C616.904 305.564 608.504 294.185 598.104 281.993C587.704 269.802 578.104 259.439 569.304 250.904C560.504 242.37 550.104 233.836 538.104 225.301C526.104 216.767 517.303 212.094 511.703 211.281C508.903 210.874 506.253 210.824 503.753 211.128ZM510.503 266.754C512.903 267.16 517.503 269.395 524.304 273.459C531.104 277.523 539.304 284.025 548.904 292.966C558.504 301.907 565.504 309.628 569.904 316.131C574.304 322.633 576.904 325.884 577.704 325.884C578.504 325.884 582.104 331.167 588.504 341.733C594.904 352.3 600.304 365.304 604.704 380.747C609.104 396.19 611.304 409.804 611.304 421.59C611.304 433.375 610.704 442.316 609.504 448.412C608.304 454.508 606.104 461.62 602.904 469.748C599.704 477.876 595.504 486.003 590.304 494.131C585.104 502.259 580.304 508.762 575.904 513.638C571.504 518.515 566.504 523.595 560.904 528.878C555.304 534.161 549.504 538.632 543.504 542.289C537.504 545.947 533.904 547.369 532.704 546.556C531.504 545.743 530.904 537.209 530.904 520.953C530.904 504.698 533.304 493.725 538.104 488.035C542.904 482.346 549.904 475.437 559.104 467.309C568.304 459.181 573.904 453.289 575.904 449.631C577.904 445.974 578.904 442.316 578.904 438.658C578.904 435.001 577.904 431.14 575.904 427.076C573.904 423.012 570.504 420.574 565.704 419.761C560.904 418.948 555.104 421.996 548.304 428.905C541.504 435.814 538.104 439.878 538.104 441.097C538.104 442.316 537.104 443.535 535.104 444.754C534.104 445.364 533.104 445.974 532.104 446.583C532.104 435.814 532.104 425.044 532.104 414.275C532.104 392.736 531.304 379.934 529.704 375.871C528.104 371.807 525.904 368.759 523.104 366.727C520.303 364.695 515.903 363.679 509.903 363.679C503.903 363.679 499.503 364.898 496.703 367.336C493.903 369.775 491.703 373.229 490.103 377.699C488.503 382.17 487.303 411.633 486.503 466.09C486.103 493.319 485.703 520.547 485.303 547.775C484.303 547.572 483.303 547.369 482.303 547.166C480.303 546.759 476.103 543.915 469.703 538.632C463.303 533.348 455.703 525.627 446.903 515.467C438.103 505.307 431.703 496.773 427.703 489.864C423.703 482.955 420.102 473.608 416.902 461.823C413.702 450.038 412.102 436.626 412.102 421.59C412.102 406.553 413.102 394.361 415.102 385.014C417.102 375.667 419.702 367.336 422.903 360.021C426.103 352.706 432.503 342.343 442.103 328.932C451.703 315.521 462.303 303.126 473.903 291.747C485.503 280.368 493.903 273.256 499.103 270.411C504.303 267.566 508.103 266.347 510.503 266.754Z" fill="#f9cf4d" fill-rule="nonzero" opacity="1" stroke="none"/>
<path d="M520.936 45.2676C512.25 43.0613 462.847 67.8817 372.727 119.729C282.607 171.576 215.288 211.84 170.772 240.521C126.254 269.203 103.996 360.762 103.996 515.2C103.996 669.638 166.971 784.364 292.922 859.377C418.873 934.389 487.82 974.102 499.764 978.515C511.707 982.927 584.454 945.972 718.006 867.65C851.557 789.328 918.875 672.396 919.961 516.855C921.047 361.314 901.503 270.306 861.329 243.831C821.155 217.356 756.551 178.195 667.517 126.348C578.483 74.5005 529.622 47.4738 520.936 45.2676ZM509.128 138.758C570.747 138.758 632.772 156.684 695.204 192.535C820.069 264.239 882.502 371.242 882.502 513.546C882.502 655.849 821.698 762.853 700.09 834.556C578.483 906.26 508.993 938.25 491.62 930.528C474.248 922.807 411.815 886.955 304.323 822.973C196.83 758.992 143.084 655.849 143.084 513.546C143.084 371.242 203.888 264.239 325.495 192.535C386.299 156.684 447.51 138.758 509.128 138.758Z" fill="#f9cf4d" fill-rule="nonzero" opacity="1" stroke="none"/>
</g>
</svg>
