<?xml version="1.0" encoding="UTF-8" standalone="no"?>
<!DOCTYPE svg PUBLIC "-//W3C//DTD SVG 1.1//EN" "http://www.w3.org/Graphics/SVG/1.1/DTD/svg11.dtd">
<!-- Created with Vectornator (http://vectornator.io/) -->
<svg height="1024.0pt" stroke-miterlimit="10" style="fill-rule:nonzero;clip-rule:evenodd;stroke-linecap:round;stroke-linejoin:round;" version="1.1" viewBox="0 0 1024 1024" width="1024.0pt" xml:space="preserve" xmlns="http://www.w3.org/2000/svg" xmlns:xlink="http://www.w3.org/1999/xlink">
<defs/>
<g id="图层-1">
<path d="M520.893 53.1805C512.249 51.0117 463.084 75.4113 373.399 126.379C283.715 177.347 216.721 216.929 172.419 245.124C128.117 273.319 105.966 363.326 105.966 515.146C105.966 666.966 168.637 779.746 293.98 853.487C419.322 927.228 487.937 966.268 499.823 970.605C511.709 974.943 584.105 938.615 717.011 861.62C849.918 784.626 916.911 669.677 917.992 516.773C919.072 363.869 899.622 274.404 859.642 248.377C819.662 222.351 755.37 183.854 666.766 132.886C578.162 81.9178 529.537 55.3494 520.893 53.1805ZM509.142 145.086C570.463 145.086 632.189 162.708 694.32 197.951C818.582 268.439 880.713 373.629 880.713 513.52C880.713 653.411 820.203 758.6 699.182 829.088C578.162 899.575 509.007 931.024 491.719 923.433C474.43 915.842 412.299 880.598 305.325 817.701C198.352 754.804 144.865 653.411 144.865 513.52C144.865 373.629 205.375 268.439 326.396 197.951C386.906 162.708 447.822 145.086 509.142 145.086Z" fill="#00a651" fill-rule="nonzero" opacity="1" stroke="none"/>
<path d="M510.875 237.625C496.759 237.625 485.882 238.608 478.219 240.625C470.556 242.642 463.484 245.273 457.031 248.5C450.578 251.727 447.344 253.756 447.344 254.562C447.344 255.369 444.141 257.97 437.687 262.406C431.234 266.843 425.178 273.121 419.531 281.188C413.885 289.254 409.445 297.911 406.219 307.188C402.992 316.464 401.375 334.824 401.375 362.25C401.375 389.676 393.511 409.622 377.781 422.125C362.052 434.628 351.556 443.728 346.312 449.375C341.069 455.022 336.852 460.856 333.625 466.906C330.398 472.956 328.369 475.969 327.563 475.969C326.756 475.969 324.536 479.394 320.906 486.25C317.276 493.107 313.439 502.207 309.406 513.5C305.373 524.793 302.772 535.067 301.562 544.344C300.353 553.62 299.338 558.662 298.531 559.469C297.725 560.275 297.122 566.11 296.719 577C296.315 587.89 296.728 599.591 297.938 612.094C299.147 624.597 301.97 637.503 306.406 650.812C310.843 664.122 316.266 676.647 322.719 688.344C329.172 700.04 332.818 705.875 333.625 705.875C334.432 705.875 335.827 707.682 337.844 711.312C339.86 714.942 344.109 720.396 350.563 727.656C357.016 734.916 366.275 743.192 378.375 752.469C390.475 761.745 402.778 769.609 415.281 776.062C427.784 782.516 440.69 787.336 454 790.562C467.31 793.789 481.421 795.819 496.344 796.625C511.267 797.432 524.997 796.829 537.5 794.812C550.003 792.796 563.321 789.149 577.438 783.906C591.554 778.663 605.253 771.814 618.562 763.344C631.872 754.874 642.78 746.598 651.25 738.531C659.72 730.465 666.569 723.203 671.812 716.75C677.056 710.297 679.656 706.491 679.656 705.281C679.656 704.676 679.656 704.074 679.656 703.469C680.06 703.469 680.472 703.469 680.875 703.469C681.682 703.469 685.328 697.793 691.781 686.5C698.234 675.207 703.657 662.935 708.094 649.625C712.53 636.315 715.574 621.57 717.188 605.438C718.801 589.305 719.182 576.018 718.375 565.531C717.568 555.045 716.775 549.4 715.969 548.594C715.162 547.787 714.147 543.348 712.938 535.281C711.728 527.215 708.493 516.909 703.25 504.406C698.007 491.903 692.774 481.629 687.531 473.563C682.288 465.496 674.424 456.427 663.938 446.344C661.54 444.039 659.495 441.937 657.625 439.969L626.156 413.75L626.562 413.25C626.305 413.162 626.073 413.157 625.812 413.062C621.376 411.449 619.156 398.543 619.156 374.344C619.156 350.144 618.554 334.226 617.344 326.563C616.134 318.899 615.15 314.841 614.344 314.438C613.537 314.034 612.522 311.212 611.312 305.969C610.103 300.726 607.471 294.7 603.437 287.844C599.404 280.987 593.157 273.504 584.688 265.438C576.218 257.371 567.751 251.314 559.281 247.281C550.811 243.248 544.152 240.647 539.312 239.438C534.473 238.228 524.991 237.625 510.875 237.625ZM506.656 288.438C513.916 288.438 520.956 289.23 527.812 290.844C534.669 292.457 540.313 294.677 544.75 297.5C549.187 300.323 553.023 303.558 556.25 307.188C559.477 310.817 562.109 315.447 564.125 321.094C566.142 326.74 567.156 346.717 567.156 381C567.156 415.283 574.387 436.655 588.906 445.125C603.426 453.595 615.127 462.473 624 471.75C632.873 481.026 640.547 490.889 647 501.375C653.453 511.861 658.495 524.386 662.125 538.906C665.755 553.426 667.563 567.125 667.562 580.031C667.562 592.938 666.77 604.226 665.156 613.906C663.543 623.586 660.118 634.685 654.875 647.188C649.632 659.691 644.78 669.172 640.344 675.625C635.907 682.078 629.851 689.149 622.187 696.812C614.524 704.476 605.867 711.516 596.187 717.969C586.508 724.422 576.836 729.686 567.156 733.719C557.476 737.752 547.995 740.765 538.719 742.781C529.442 744.798 516.727 745.812 500.594 745.812C484.461 745.812 475.994 745.4 475.188 744.594C474.381 743.787 472.352 743.375 469.125 743.375C465.898 743.375 457.844 740.774 444.938 735.531C432.031 730.288 422.359 725.437 415.906 721C409.453 716.563 401.97 710.095 393.5 701.625C385.03 693.155 377.578 684.498 371.125 675.625C364.672 666.752 359.82 658.476 356.594 650.812C353.367 643.149 351.148 634.904 349.938 626.031C348.728 617.158 347.744 612.307 346.938 611.5C346.131 610.693 345.719 602.829 345.719 587.906C345.719 572.983 346.131 563.312 346.938 558.875C347.744 554.438 350.947 544.736 356.594 529.812C362.24 514.889 368.106 502.998 374.156 494.125C380.206 485.252 387.056 476.976 394.719 469.312C402.382 461.649 413.068 453.404 426.781 444.531C440.494 435.658 447.344 414.666 447.344 381.594C447.344 348.521 447.946 329.971 449.156 325.938C450.366 321.904 451.381 319.906 452.188 319.906C452.994 319.906 454.009 318.067 455.219 314.438C456.429 310.808 458.648 307.383 461.875 304.156C465.102 300.93 469.953 297.695 476.406 294.469C482.859 291.242 487.68 289.435 490.906 289.031C494.133 288.628 499.396 288.438 506.656 288.438ZM519.344 465.688C509.261 465.284 500.001 465.887 491.531 467.5C483.061 469.113 472.978 473.172 461.281 479.625C449.585 486.078 440.484 492.516 434.031 498.969C427.578 505.422 421.743 512.493 416.5 520.156C411.257 527.819 407.42 534.257 405 539.5C402.58 544.743 400.36 551.402 398.344 559.469C396.327 567.535 395.312 578.824 395.312 593.344C395.312 607.863 396.93 620.579 400.156 631.469C403.383 642.359 407.029 650.635 411.062 656.281C415.096 661.928 420.138 667.351 426.188 672.594C432.237 677.837 438.484 682.086 444.938 685.312C451.391 688.539 456.021 690.156 458.844 690.156C461.667 690.156 464.299 690.759 466.719 691.969C469.139 693.179 476.812 693.56 489.719 693.156C502.625 692.753 512.487 691.548 519.344 689.531C526.2 687.515 534.286 683.899 543.562 678.656C552.839 673.413 562.289 665.549 571.969 655.062C581.649 644.576 588.308 635.888 591.937 629.031C595.567 622.175 598.39 614.723 600.406 606.656C602.423 598.59 603.85 594.341 604.656 593.938C605.463 593.534 606.256 590.331 607.062 584.281C607.869 578.231 608.091 570.146 607.688 560.063C607.284 549.979 606.46 542.527 605.25 537.688C604.04 532.848 601.218 526.189 596.781 517.719C592.345 509.249 587.905 502.4 583.469 497.156C579.032 491.913 571.771 486.078 561.688 479.625C551.604 473.172 544.564 469.335 540.531 468.125C536.498 466.915 529.427 466.091 519.344 465.688ZM507.25 524.375C514.107 524.375 520.163 525.58 525.406 528C530.649 530.42 534.677 532.861 537.5 535.281C540.323 537.701 543.336 541.507 546.562 546.75C549.789 551.993 551.406 559.857 551.406 570.344C551.406 580.83 549.789 589.931 546.562 597.594C543.336 605.257 537.913 612.899 530.25 620.562C522.587 628.226 514.913 633.268 507.25 635.687C499.587 638.107 492.516 639.122 486.062 638.719C479.609 638.315 473.775 636.096 468.531 632.062C463.288 628.029 459.451 623.812 457.031 619.375C454.611 614.938 452.994 611.292 452.188 608.469C451.381 605.645 451 599.589 451 590.313C451 581.036 451.381 576.216 452.188 575.812C452.994 575.409 454.009 572.587 455.219 567.344C456.429 562.101 458.648 556.837 461.875 551.594C465.102 546.351 468.939 541.721 473.375 537.688C477.812 533.654 482.853 530.42 488.5 528C494.147 525.58 500.394 524.375 507.25 524.375Z" fill="#00a651" fill-rule="nonzero" opacity="1" stroke="none"/>
</g>
</svg>
