<?xml version="1.0" encoding="UTF-8" standalone="no"?>
<!DOCTYPE svg PUBLIC "-//W3C//DTD SVG 1.1//EN" "http://www.w3.org/Graphics/SVG/1.1/DTD/svg11.dtd">
<!-- Created with Vectornator (http://vectornator.io/) -->
<svg height="1024.0pt" stroke-miterlimit="10" style="fill-rule:nonzero;clip-rule:evenodd;stroke-linecap:round;stroke-linejoin:round;" version="1.1" viewBox="0 0 1024 1024" width="1024.0pt" xml:space="preserve" xmlns="http://www.w3.org/2000/svg" xmlns:xlink="http://www.w3.org/1999/xlink">
<defs/>
<g id="图层-1">
<path d="M510.878 237.615C496.762 237.615 485.872 238.624 478.209 240.64C470.546 242.657 463.488 245.278 457.034 248.505C450.581 251.732 447.355 253.748 447.355 254.555C447.355 255.361 444.128 257.983 437.675 262.42C431.222 266.856 425.172 273.108 419.525 281.174C413.879 289.241 409.442 297.912 406.216 307.189C402.989 316.465 401.376 334.816 401.376 362.242C401.376 389.668 393.511 409.633 377.781 422.136C362.052 434.639 351.565 443.714 346.322 449.36C341.079 455.007 336.844 460.855 333.617 466.905C330.391 472.955 328.374 475.98 327.567 475.98C326.761 475.98 324.542 479.408 320.912 486.265C317.283 493.121 313.451 502.196 309.418 513.489C305.384 524.782 302.763 535.067 301.553 544.343C300.343 553.62 299.335 558.661 298.528 559.468C297.721 560.275 297.116 566.123 296.713 577.013C296.31 587.902 296.713 599.599 297.923 612.102C299.133 624.605 301.956 637.511 306.393 650.821C310.829 664.131 316.274 676.634 322.727 688.33C329.181 700.027 332.811 705.875 333.617 705.875C334.424 705.875 335.835 707.69 337.852 711.32C339.869 714.95 344.104 720.394 350.557 727.654C357.01 734.914 366.286 743.182 378.386 752.459C390.486 761.735 402.787 769.6 415.29 776.053C427.793 782.506 440.7 787.346 454.01 790.573C467.319 793.799 481.436 795.816 496.359 796.623C511.282 797.429 524.995 796.824 537.498 794.808C550.001 792.791 563.31 789.161 577.427 783.918C591.543 778.675 605.256 771.818 618.566 763.349C631.876 754.879 642.765 746.611 651.235 738.544C659.705 730.478 666.561 723.218 671.805 716.765C677.048 710.311 679.67 706.48 679.67 705.27C679.67 704.665 679.67 704.06 679.67 703.455C680.073 703.455 680.476 703.455 680.879 703.455C681.686 703.455 685.316 697.808 691.769 686.515C698.222 675.222 703.667 662.921 708.104 649.611C712.54 636.301 715.565 621.58 717.179 605.447C718.792 589.314 719.195 576.004 718.389 565.518C717.582 555.031 716.775 549.385 715.969 548.578C715.162 547.772 714.154 543.335 712.944 535.269C711.734 527.202 708.507 516.917 703.264 504.414C698.021 491.911 692.778 481.626 687.534 473.56C682.291 465.493 674.426 456.419 663.94 446.336C653.453 436.252 648.009 429.396 647.605 425.766C647.202 422.136 646.395 419.313 645.185 417.296C643.975 415.28 641.555 414.473 637.925 414.876C634.296 415.28 630.262 414.675 625.826 413.061C621.389 411.448 619.171 398.542 619.171 374.342C619.171 350.143 618.566 334.211 617.356 326.548C616.146 318.885 615.138 314.852 614.331 314.448C613.524 314.045 612.516 311.222 611.306 305.979C610.096 300.735 607.474 294.686 603.441 287.829C599.408 280.973 593.156 273.511 584.687 265.445C576.217 257.378 567.747 251.328 559.277 247.295C550.807 243.262 544.153 240.64 539.313 239.43C534.473 238.22 524.995 237.615 510.878 237.615ZM506.643 288.434C513.903 288.434 520.961 289.241 527.818 290.854C534.674 292.467 540.321 294.686 544.758 297.509C549.194 300.332 553.026 303.559 556.252 307.189C559.479 310.819 562.1 315.457 564.117 321.103C566.134 326.75 567.142 346.714 567.142 380.997C567.142 415.28 574.402 436.656 588.922 445.126C603.441 453.595 615.138 462.469 624.011 471.745C632.884 481.021 640.547 490.903 647 501.389C653.453 511.876 658.495 524.379 662.125 538.898C665.755 553.418 667.57 567.131 667.57 580.038C667.57 592.944 666.763 604.237 665.15 613.917C663.537 623.597 660.108 634.688 654.865 647.191C649.622 659.694 644.782 669.172 640.345 675.625C635.909 682.079 629.859 689.137 622.196 696.8C614.533 704.463 605.861 711.521 596.181 717.975C586.502 724.428 576.822 729.671 567.142 733.704C557.462 737.737 547.984 740.762 538.708 742.779C529.431 744.796 516.726 745.804 500.593 745.804C484.461 745.804 475.991 745.401 475.184 744.594C474.377 743.787 472.361 743.384 469.134 743.384C465.908 743.384 457.841 740.762 444.935 735.519C432.028 730.276 422.349 725.436 415.895 720.999C409.442 716.563 401.981 710.11 393.511 701.64C385.041 693.17 377.58 684.499 371.126 675.625C364.673 666.752 359.833 658.484 356.607 650.821C353.38 643.158 351.162 634.89 349.952 626.017C348.742 617.143 347.734 612.304 346.927 611.497C346.12 610.69 345.717 602.825 345.717 587.902C345.717 572.979 346.12 563.3 346.927 558.863C347.734 554.426 350.96 544.747 356.607 529.824C362.253 514.901 368.101 503.003 374.151 494.129C380.201 485.256 387.058 476.988 394.721 469.325C402.384 461.662 413.072 453.394 426.785 444.521C440.498 435.647 447.355 414.675 447.355 381.602C447.355 348.529 447.96 329.976 449.17 325.943C450.38 321.91 451.388 319.893 452.195 319.893C453.001 319.893 454.01 318.078 455.219 314.448C456.429 310.819 458.648 307.39 461.874 304.164C465.101 300.937 469.941 297.711 476.394 294.484C482.847 291.257 487.687 289.442 490.914 289.039C494.14 288.636 499.384 288.434 506.643 288.434ZM519.348 465.695C509.265 465.292 499.988 465.897 491.519 467.51C483.049 469.123 472.966 473.157 461.269 479.61C449.573 486.063 440.498 492.516 434.045 498.969C427.592 505.423 421.744 512.481 416.5 520.144C411.257 527.807 407.426 534.26 405.006 539.503C402.586 544.747 400.367 551.402 398.351 559.468C396.334 567.535 395.326 578.828 395.326 593.347C395.326 607.867 396.939 620.572 400.166 631.461C403.392 642.351 407.022 650.619 411.055 656.266C415.089 661.912 420.13 667.357 426.18 672.601C432.23 677.844 438.482 682.079 444.935 685.305C451.388 688.532 456.026 690.145 458.849 690.145C461.673 690.145 464.294 690.75 466.714 691.96C469.134 693.17 476.797 693.573 489.704 693.17C502.61 692.767 512.492 691.557 519.348 689.54C526.205 687.524 534.271 683.894 543.548 678.65C552.824 673.407 562.302 665.542 571.982 655.056C581.662 644.569 588.317 635.898 591.946 629.041C595.576 622.185 598.4 614.723 600.416 606.657C602.433 598.591 603.845 594.356 604.651 593.952C605.458 593.549 606.264 590.322 607.071 584.272C607.878 578.223 608.079 570.156 607.676 560.073C607.273 549.99 606.466 542.528 605.256 537.689C604.046 532.849 601.223 526.194 596.786 517.724C592.35 509.254 587.913 502.398 583.477 497.154C579.04 491.911 571.78 486.063 561.697 479.61C551.614 473.157 544.556 469.325 540.523 468.115C536.489 466.905 529.431 466.098 519.348 465.695ZM507.248 524.379C514.105 524.379 520.155 525.589 525.398 528.009C530.641 530.429 534.674 532.849 537.498 535.269C540.321 537.689 543.346 541.52 546.572 546.763C549.799 552.007 551.412 559.871 551.412 570.358C551.412 580.844 549.799 589.919 546.572 597.582C543.346 605.245 537.901 612.909 530.238 620.572C522.575 628.235 514.911 633.276 507.248 635.696C499.585 638.116 492.527 639.125 486.074 638.721C479.621 638.318 473.772 636.1 468.529 632.066C463.286 628.033 459.454 623.798 457.034 619.362C454.615 614.925 453.001 611.295 452.195 608.472C451.388 605.649 450.985 599.599 450.985 590.322C450.985 581.046 451.388 576.206 452.195 575.803C453.001 575.399 454.01 572.576 455.219 567.333C456.429 562.09 458.648 556.846 461.874 551.603C465.101 546.36 468.933 541.722 473.369 537.689C477.806 533.655 482.847 530.429 488.494 528.009C494.14 525.589 500.392 524.379 507.248 524.379Z" fill="#2fc596" fill-rule="nonzero" opacity="1" stroke="none"/>
<path d="M520.893 53.1805C512.249 51.0117 463.084 75.4113 373.399 126.379C283.715 177.347 216.721 216.929 172.419 245.124C128.117 273.319 105.966 363.326 105.966 515.146C105.966 666.966 168.637 779.746 293.98 853.487C419.322 927.228 487.937 966.268 499.823 970.605C511.709 974.943 584.105 938.615 717.011 861.62C849.918 784.626 916.911 669.677 917.992 516.773C919.072 363.869 899.622 274.404 859.642 248.377C819.662 222.351 755.37 183.854 666.766 132.886C578.162 81.9178 529.537 55.3494 520.893 53.1805ZM509.142 145.086C570.463 145.086 632.189 162.708 694.32 197.951C818.582 268.439 880.713 373.629 880.713 513.52C880.713 653.411 820.203 758.6 699.182 829.088C578.162 899.575 509.007 931.024 491.719 923.433C474.43 915.842 412.299 880.598 305.325 817.701C198.352 754.804 144.865 653.411 144.865 513.52C144.865 373.629 205.375 268.439 326.396 197.951C386.906 162.708 447.822 145.086 509.142 145.086Z" fill="#2fc596" fill-rule="nonzero" opacity="1" stroke="none"/>
</g>
</svg>
